<svg xmlns="http://www.w3.org/2000/svg" viewBox="0 0 183.22 130.34"><title>Resurs 1</title><g id="Lager_2" data-name="Lager 2"><g id="invitation_2" data-name="invitation 2"><path d="M88.24,107.87a5.65,5.65,0,0,0-1-2.61,1,1,0,0,1-.23-.67,2,2,0,0,0-.92-1.74.65.65,0,0,1-.31-.75,14.37,14.37,0,0,0,0-3.82,6.74,6.74,0,0,1,.3-2.72.75.75,0,0,0-.46-1,16.58,16.58,0,0,0-3.42-.68c-1-.08-2-.07-3-.13a17.85,17.85,0,0,0-3.43.15c-.66.08-.78-.08-.55-.7l.93-2.51c.32-.83.62-1.67,1-2.49a14,14,0,0,0,.73-1.79.48.48,0,0,1,.3-.36,1.78,1.78,0,0,1,.11.8,8.23,8.23,0,0,0,.31,1.85,6.29,6.29,0,0,0,.4,1.5,2,2,0,0,1,.14,1.09A11.75,11.75,0,0,1,79,92.57c-.07.26.06.35.34.37a.3.3,0,0,0,.35-.27A7.41,7.41,0,0,0,80,90.86a.58.58,0,0,1,0-.43.86.86,0,0,0,0-.75c-.37-1.19-.54-2.42-.82-3.63a4.81,4.81,0,0,0-.33-1.18,10.07,10.07,0,0,1-.72-2.67,17.71,17.71,0,0,0-1.16-4,.67.67,0,0,1-.07-.37,3,3,0,0,0-.78-2.5c-.43-.46-.46-.43.14-.84a1.36,1.36,0,0,1,.25-.11A2.24,2.24,0,0,0,78,72.7a5.53,5.53,0,0,0-1.48-5.12l-.17-.14a6.43,6.43,0,0,0-1.72-1.09c-.23-.08-.25-.22-.08-.37a11.21,11.21,0,0,0,1-1.23,6.38,6.38,0,0,0,1.25-2.46c.12-.37.27-.73.39-1.1a10.86,10.86,0,0,0,.64-2.46,2,2,0,0,1,.91-1.63c.51-.31.55-.68.15-1.17a.84.84,0,0,1-.13-1,15,15,0,0,0,.88-3.55,9.81,9.81,0,0,1,.82-3.33,1.35,1.35,0,0,0,.09-.66A12.93,12.93,0,0,1,80.58,46c.17-1.38.14-2.77.24-4.16.05-.61-.1-1.23,0-1.83a14.49,14.49,0,0,0,.13-2.55c0-1.5.17-3,0-4.5,0-.62-.06-1.26-.06-1.89,0-1,.12-2,.08-3a2.23,2.23,0,0,1,.2-1.19.57.57,0,0,0,0-.54l-.69-1.51a2.42,2.42,0,0,0-.21-.39,13.74,13.74,0,0,1-.83-1.36c-.4-.52-.61-1.2-1.27-1.5A.31.31,0,0,1,78,21.4a1.86,1.86,0,0,0-.49-.59c-.39-.38-.83-.68-1.19-1.09a9.28,9.28,0,0,0-2-1.69,9,9,0,0,1-1.77-1.64,6.05,6.05,0,0,0-2-1.47.41.41,0,0,1-.19-.12c-.34-.44-.88-.61-1.28-1a5.58,5.58,0,0,0-1-.62c-.82-.47-1.75-.72-2.53-1.26a5.65,5.65,0,0,1-1.45-1.08,1.11,1.11,0,0,0-.66-.39,2.7,2.7,0,0,1-.66-.27c-.85-.46-1.7-.92-2.56-1.35a28.2,28.2,0,0,0-3.56-1.22,3,3,0,0,1-.66-.29A6.81,6.81,0,0,0,55,6.83c-.55-.22-1.15-.24-1.72-.43A19.58,19.58,0,0,0,51,5.85c-.88-.17-1.74-.36-2.62-.52A15.21,15.21,0,0,0,46,4.9a12.86,12.86,0,0,1-2.7-.24,12.33,12.33,0,0,0-2.1-.19c-1.05-.09-2.11-.15-3.16-.16a3.08,3.08,0,0,1-.61,0,14.23,14.23,0,0,0-2.61-.13,22.37,22.37,0,0,0-2.7.24c-2,.21-4.08.57-6.13.76-.65.06-1.25.3-1.89.41A20,20,0,0,0,20,6.69a4.17,4.17,0,0,1-1.38.38,1,1,0,0,0-.47.16c-.26.15-.53.28-.79.42a8.58,8.58,0,0,0-1.94,1.28,1.64,1.64,0,0,0-.58.86A1.5,1.5,0,0,1,14,10.9a4.51,4.51,0,0,0-1.15.76,9.91,9.91,0,0,1-1.05.91A31,31,0,0,0,9.07,15a11.32,11.32,0,0,0-1.93,2.71C6.47,19,6,20.35,5.31,21.61a1.47,1.47,0,0,0-.13.37c-.34,1.35-.76,2.68-1,4.05a2.88,2.88,0,0,0,0,.83c0,.23,0,.45.31.53s.37-.08.51-.24a2.92,2.92,0,0,1,.88-.77c-.23,1-.43,1.89-.67,2.78a19.91,19.91,0,0,0-.64,2.64c-.07.64-.3,1.28-.32,1.92,0,1.15-.11,2.29-.17,3.44,0,.38.16.73.12,1.11a13,13,0,0,0,.57,4.33,2.76,2.76,0,0,0,.62,1.23c.18.19.28.47.61.4s.31-.36.38-.61a1.36,1.36,0,0,1,.41-.86,8,8,0,0,0,0,1,5.93,5.93,0,0,0,.2.93c.09.38.26.46.58.23a4.92,4.92,0,0,0,1.07-1,15,15,0,0,0,1.32-2.12c.05-.1.05-.27.24-.25a1.08,1.08,0,0,1,0,.44,11.43,11.43,0,0,0,0,1.55,2.85,2.85,0,0,1,0,.77q0,.62,0,1.23c0,1,.1,2,.12,3.06a6.3,6.3,0,0,0,.38,2.23,1.37,1.37,0,0,1,.09.49,2.33,2.33,0,0,0,.09.83,17.84,17.84,0,0,0,1,3.44.76.76,0,0,1,.06.16,8.63,8.63,0,0,0,.77,2.13c.24.43.15.57-.33.58a12.2,12.2,0,0,0-1.82.19,2.55,2.55,0,0,0-1.3.46c-.37.33-.77.64-1.17.94a1.31,1.31,0,0,0-.54.87,1.81,1.81,0,0,1-.28.72c-.22.34-.37.73-.6,1.07a1.26,1.26,0,0,0-.16.69c0,.67-.09.75-.73.72H5.63a2.63,2.63,0,0,0-1.89.8,6.23,6.23,0,0,0-.9,1.27,4.63,4.63,0,0,0-.73,1.3,7,7,0,0,1-.35,1,5.68,5.68,0,0,0-.65,3,.14.14,0,0,1,0,.11,3.47,3.47,0,0,0,.06,2,7.65,7.65,0,0,0,.75,3.11A.73.73,0,0,1,2,76.9a5.34,5.34,0,0,0,.82,1.82,1.43,1.43,0,0,1,.21.45,3.67,3.67,0,0,0,.67,1.32c.47.62.9,1.28,1.34,1.91a.26.26,0,0,1-.12.45A3.51,3.51,0,0,1,4.4,83a1.91,1.91,0,0,0-.54.1c-.88.47-1.81.85-2.7,1.29a4.16,4.16,0,0,0-.95.56.48.48,0,0,0-.16.6c.11.24.33.16.54.12a6.92,6.92,0,0,0,2.16-1A3.09,3.09,0,0,1,5,84s.06,0,.08.06-.24.25-.09.43c.33-.11.38-.53.73-.67.1.38-.29.63-.22,1,.24-.33.29-.68.47-1s.3-.33.54-.17A20.42,20.42,0,0,0,9,85a14.83,14.83,0,0,0,2.45,1.16,1.39,1.39,0,0,1,.35.16,15.82,15.82,0,0,0,2.8,1.22c.59.16,1.17.34,1.76.49a13.79,13.79,0,0,0,1.56.42,30.59,30.59,0,0,1,3.76,1c.8.22,1.57.54,2.39.72a30.13,30.13,0,0,1,3.1.83,2.38,2.38,0,0,0,.69.2c1,0,2,.21,3,.16a12.89,12.89,0,0,0,3-.26,7.71,7.71,0,0,1,1.43-.21l1.83-.15c.44,0,.89,0,1.33-.1a11.88,11.88,0,0,1,1.87-.15c.88,0,1.73-.16,2.6-.16a20.39,20.39,0,0,0,2.44-.25,14.72,14.72,0,0,1,2.65-.2,3.05,3.05,0,0,0,1-.07,13.13,13.13,0,0,1,1.77-.2c.18,0,.37,0,.55,0a20.25,20.25,0,0,0,3.09-.67c.38-.11.78-.11,1.14-.24a24.59,24.59,0,0,0,3-1,19.33,19.33,0,0,1,2.25-.79c.84-.29,1.69-.56,2.53-.83,1-.31,2-.54,3-.79a4.57,4.57,0,0,0,.74-.24,1,1,0,0,1,.49-.08.35.35,0,0,1,.35.34c.09.57.09,1.15.14,1.72,0,.19,0,.37-.18.48a.35.35,0,0,0-.16.43c.08.34.12.69.23,1a7.69,7.69,0,0,1,.39,1.5c.07.49,0,1,0,1.44s0,.93.05,1.37.34.88,0,1.33c0,0,0,0,0,.06a4.35,4.35,0,0,0,.3,1.06,4,4,0,0,1,.45,1.8c.08,1,.12,2,.27,2.93.22,1.36.2,2.77.3,4.16,0,.39,0,.67-.47.8a2.17,2.17,0,0,0-.55.38,1,1,0,0,0-.4,1.12c0,.15.11.28.28.31.46.11.66.58,1.06.77.1,0,.12.19.14.3A5.81,5.81,0,0,1,70,111a10.61,10.61,0,0,0-.12,3.6,14.18,14.18,0,0,0,.38,1.56,2.12,2.12,0,0,0,.45,1A1.3,1.3,0,0,1,71,118.5c-.24.8-.46,1.6-.69,2.41s-.32,1-1.23.8a1.82,1.82,0,0,0-1.13.18l-.84.42a.75.75,0,0,0-.44.54,3,3,0,0,1-.35.88,1.83,1.83,0,0,0-.26,1.12,2,2,0,0,1,0,.55,2.66,2.66,0,0,0,.34,1.66c.26.58.8.92,1.17,1.41a2.77,2.77,0,0,0,.7.61,6.51,6.51,0,0,1,1,.68,3.28,3.28,0,0,0,.74.56h2.56l0,0h.16l.2,0a.38.38,0,0,1,.22,0h6a2.17,2.17,0,0,0-.27-2.36c-.1-.12-.21-.25-.11-.39.38-.51.33-1.34,1.15-1.54a.32.32,0,0,0,.2-.41c0-.21-.22-.23-.39-.23a4.17,4.17,0,0,1-.5,0c-.13,0-.23-.12-.18-.23.26-.57.33-1.27,1-1.61a2,2,0,0,0,.45-.33c.24-.23.24-.35-.07-.48s-.22-.25-.12-.42.33-.58.49-.88c.55-1.09,1.07-2.2,1.63-3.29a1.17,1.17,0,0,1,1.12-.69c.21,0,.41,0,.62,0a5.76,5.76,0,0,0,1.1-.06c.26-.06.4-.18.41-.45,0-.44,0-.89,0-1.33a10.89,10.89,0,0,1,.11-2.49.92.92,0,0,0,0-.33,13.52,13.52,0,0,1,0-2.11c0-.47.14-.64.62-.62A1.74,1.74,0,0,0,88.24,107.87ZM75.18,94.77a11.12,11.12,0,0,1,1.27-.19,34.93,34.93,0,0,1,6.22.12c.22,0,.6,0,.61.25s-.37.19-.57.23a17.94,17.94,0,0,1-3.45.34A13.16,13.16,0,0,1,76,95.39c-.25,0-.51,0-.77,0s-.31,0-.33-.24A.3.3,0,0,1,75.18,94.77Zm-.38-2.58a1.39,1.39,0,0,1,.24-.8C75.33,91.78,75.28,91.91,74.8,92.19Zm2.46-6a5.51,5.51,0,0,1-.68,2,3.92,3.92,0,0,0-.74,1.77c0,.28,0,.61-.45.7a.57.57,0,0,1,.07-.52c.34-.84.5-1.74.78-2.6A12.63,12.63,0,0,1,76.91,86a.19.19,0,0,1,.22-.13c.12,0,.11.14.13.23S77.27,86.15,77.26,86.16Zm-.42-26.31c0,.08,0,.15-.06.22a10.87,10.87,0,0,1-1.09,3.24,6.75,6.75,0,0,1-2,2.58.13.13,0,0,1-.17,0c-.09-.11,0-.19.08-.27.22-.28.44-.55.67-.82a8.43,8.43,0,0,0,1.13-2.29c.41-1,.84-1.93,1.27-2.9,0-.06.06-.13.15-.14S76.87,59.73,76.84,59.85ZM10.64,37.73c-.15.46-.34,1-.46,1.44a3.39,3.39,0,0,1-.11.43A34.48,34.48,0,0,1,7.68,44c0,.09-.08.24-.23.18s-.11-.18-.1-.29A6.25,6.25,0,0,1,8,41c.1-.17.17-.37.26-.55A1.09,1.09,0,0,0,8.36,40c0-.23,0-.48-.29-.55s-.42.1-.51.31a14.32,14.32,0,0,1-1.24,2A5.14,5.14,0,0,0,5.72,43a3.66,3.66,0,0,1-.51-1.18,18.58,18.58,0,0,1-.43-4.47c0-1.08.1-2.15.17-3.22a15.48,15.48,0,0,1,.87-4.46,4.92,4.92,0,0,0,.32-1.69A3,3,0,0,1,6.36,27a6.22,6.22,0,0,0,.35-1.11,1.2,1.2,0,0,1,.39-.72.49.49,0,0,0,.18-.28c.08-.27,0-.66-.12-.72a.59.59,0,0,0-.66.18,6.43,6.43,0,0,0-1,.95.75.75,0,0,1-.46.36c.11-.46.26-.88.32-1.31a25.62,25.62,0,0,1,.75-2.73c.06-.25.12-.5.51-.44.21,0,.43-.11.35-.43A.69.69,0,0,1,7.29,20a.55.55,0,0,0,.24-.75.51.51,0,0,1,0-.48c.31-.55.6-1.12.94-1.65a11.64,11.64,0,0,1,1.63-1.88C11,14.34,12,13.6,13,12.8a15.39,15.39,0,0,1,2.39-1.61,6.57,6.57,0,0,1,2-.74c.49-.09.59-.18.62-.49a.83.83,0,0,0-.52-.85A1,1,0,0,1,17.3,9a.85.85,0,0,1,.56-.42,47.14,47.14,0,0,1,5.41-1.83,44.11,44.11,0,0,1,4.53-.87c1.81-.22,3.6-.49,5.41-.67a29.35,29.35,0,0,1,3.11-.06c1.84,0,3.67.24,5.5.28a14.24,14.24,0,0,1,1.6.18,22.18,22.18,0,0,0,2.44.14,21.34,21.34,0,0,1,2.51.47,49.32,49.32,0,0,1,6.22,1.48c.69.21,1.32.57,2,.82l.57.19A13.09,13.09,0,0,1,61,10.3a1,1,0,0,0,.91.32.1.1,0,0,1,.09,0c.28.38.73.42,1.11.61a2.32,2.32,0,0,1,1,.76,2.54,2.54,0,0,0,1.16.73,3.22,3.22,0,0,1,.87.48.37.37,0,0,0,.19.11c.73.18,1.32.68,2,.9a1.91,1.91,0,0,1,.69.53A11.87,11.87,0,0,0,70.83,16c.16.09.29.23.44.31.79.47,1.17,1.39,2,1.83.41.22.7.58,1.11.79.23.12.32.39.51.57.67.64,1.41,1.2,2.09,1.83.26.25.45.59.85.66a.22.22,0,0,1,.15.16,3.7,3.7,0,0,0,.36.68,7.06,7.06,0,0,1,1.08,1.38,1.48,1.48,0,0,1,.41.77c0,.14.11.22.19.32a2.34,2.34,0,0,1,.3.47c.1.23,0,.4-.12.48a7.64,7.64,0,0,1,0,3.43c0,.05,0,.09,0,.14,0,1-.07,2.06-.09,3.08,0,.24-.09.48-.11.72l-.39,4.87c0,.57-.14,1.14-.18,1.72-.07.84-.11,1.69-.17,2.53s.08,1.43,0,2.15a17.53,17.53,0,0,0,0,2A7.88,7.88,0,0,1,78.9,50a4.73,4.73,0,0,0-.2,1.59,5.53,5.53,0,0,1-.47,1.88c-.25.58-.37,1.2-.61,1.79-.11.26-.22.47-.56.39s-.35.08-.44.26a2.92,2.92,0,0,1-1.32,1.23L73.6,58a1.54,1.54,0,0,1-.37.09c-.19,0-.28,0-.27-.24a23.43,23.43,0,0,1,.15-2.78,1.66,1.66,0,0,0,0-.44,10.48,10.48,0,0,0-.72-3.53A7.08,7.08,0,0,1,72.09,50c-.27-1-.57-1.92-.79-2.9a10.47,10.47,0,0,0-.39-1.56,9.47,9.47,0,0,0-1.51-2.44c-.32-.39-.78-.66-1-1.18-.12-.31-.52-.41-.77-.63-.08-.07-.17,0-.24.06a.84.84,0,0,0-.29.51,2.35,2.35,0,0,1-.52-.76C66,40,65.39,38.83,64.69,37.77c-.54-.81-.87-1.71-1.41-2.51a6.29,6.29,0,0,1-.9-2.21,3.48,3.48,0,0,0-1.11-1.68,9.7,9.7,0,0,1-.77-.8c-.48-.6-1.08-1.06-1.59-1.63a6,6,0,0,1-1.26-1.81.73.73,0,0,0-.16-.23.62.62,0,0,0-.54-.23c-.2,0-.21.27-.27.45s.1.62,0,1a1.32,1.32,0,0,1-.65-.42,2.45,2.45,0,0,0-.75-.57,1.61,1.61,0,0,1-.79-.67c-.06-.12-.2-.15-.32-.2a.85.85,0,0,1-.38-.32,5.85,5.85,0,0,0-1-1,8.72,8.72,0,0,0-1.12-1c-.41-.32-.86-.59-1.26-.92a.44.44,0,0,1-.17-.57c.19-.55,0-.88-.65-.91a1.27,1.27,0,0,0-.39,0,1.44,1.44,0,0,1-1.33-.37,26.5,26.5,0,0,0-3.3-1.92,11.71,11.71,0,0,0-1.66-.6,3.39,3.39,0,0,1-1-.54,4.37,4.37,0,0,0-1.27-.55,39.5,39.5,0,0,1-4.24-2.19A6.17,6.17,0,0,0,34,14.49a.63.63,0,0,0-.65.18.63.63,0,0,1-.22.18,13.57,13.57,0,0,0-2.4,1.36c-.76.41-1.47.93-2.28,1.27A7.76,7.76,0,0,0,26,19.19c-.65.65-1.37,1.24-2,1.88s-1.12,1.13-1.67,1.71A26.52,26.52,0,0,1,20,25.07a16.77,16.77,0,0,0-2.93,3.08,21.06,21.06,0,0,1-1.44,1.69,1.84,1.84,0,0,0-.37.55,2.19,2.19,0,0,1-.61.92.37.37,0,0,0-.14.23c0,.46-.4.74-.61,1.11,0,.08-.1.18-.19.18-.39,0-.51.33-.69.58a21.05,21.05,0,0,0-1.82,2.93.91.91,0,0,1-.13.31Zm62.09,20.8a0,0,0,0,0,0,0,.32.32,0,0,1,.14,0,4.9,4.9,0,0,0,2-.54s.07,0,.19,0l-.1.12a1.61,1.61,0,0,1-.22.23l-.12.11a2.35,2.35,0,0,1-1.64.57c-.11,0-.25,0-.31-.08a.15.15,0,0,1,0-.1A.33.33,0,0,1,72.73,58.53Zm-.28-1.08a1.26,1.26,0,0,1,0,.33.16.16,0,0,1-.08.1.08.08,0,0,1-.08,0,.18.18,0,0,1-.08-.14c0-.26,0-.51.09-.77.14-.91.13-1.84.23-2.76a.2.2,0,0,1,.14-.22,1.38,1.38,0,0,1,.1.93A12,12,0,0,0,72.45,57.45ZM70.26,45.77l-.15-.07a2.39,2.39,0,0,1-.87-1.64,1.84,1.84,0,0,1,.81,1s0,.09,0,.14a1.79,1.79,0,0,1,.11.35Zm-4.2-3.51v0c-.06-.23-.1-.45-.14-.69,0-.09,0-.19,0-.29a.56.56,0,0,1,.45.42c.49,1.22.58,1.59.44,2-.05-.07-.11-.15-.15-.22a1,1,0,0,1-.12-.19l-.09-.15h0A4.11,4.11,0,0,1,66.06,42.26Zm-8.66-4c.21.19.19.29-.08.36a2.85,2.85,0,0,1-.65.11,14.9,14.9,0,0,1-4.37-.25,10.21,10.21,0,0,1-2.12-.65c-.43-.2-.86-.42-1.3-.6s-.41-.17-.68.18-.37.43-.6-.07a7.16,7.16,0,0,1-.6-3.74,5,5,0,0,1,1.18-2.71.67.67,0,0,1,.36-.29c.1.13.06.28.16.38s.35.25.54.08a13.61,13.61,0,0,1,1.4-1,3.31,3.31,0,0,1,.94-.47,8.55,8.55,0,0,1,4.86,0,1.91,1.91,0,0,1,.81.56c.14.13.26.34.52.17s.24,0,.33.13a6.82,6.82,0,0,1,1.32,1.55,7.54,7.54,0,0,1,.84,1.68,2.08,2.08,0,0,1,.11.54A9.42,9.42,0,0,1,60,37.56c-.22.59-.39.73-1,.72a2.56,2.56,0,0,1-.82-.13,4.94,4.94,0,0,0-.64-.15.21.21,0,0,0-.24.11C57.21,38.23,57.33,38.25,57.4,38.3Zm-.77,1.43c0,.16-.13.2-.23.25a6.87,6.87,0,0,1-6.27.13A2.65,2.65,0,0,1,49,39.24a3.68,3.68,0,0,0-.4-.39.82.82,0,0,1-.33-.65,19.68,19.68,0,0,1,2.34.85c.08,0,.14.07.21.07,1.07,0,2,.47,3.12.52a13.07,13.07,0,0,0,1.77,0A1.28,1.28,0,0,1,56.63,39.73ZM46.3,22c-.27.08-.54.13-.81.2a.41.41,0,0,1-.3-.12l-1.84-1.69c-.08-.07-.17-.17-.12-.29s.23-.06.34,0a3.31,3.31,0,0,1,.82.46,15.68,15.68,0,0,1,1.71.93,2.53,2.53,0,0,1,.27.18C46.53,21.75,46.51,21.91,46.3,22ZM12.53,55.12a39,39,0,0,1-1.09-4.48A24.81,24.81,0,0,1,11,45.27c0-1.52,0-3-.09-4.56a4.76,4.76,0,0,1,.67-2.54c.94-1.83,2.09-3.55,3.09-5.35a2.24,2.24,0,0,1,1.13-1c1.34-.59,2.66-1.23,4-1.87a18.57,18.57,0,0,1,3.68-1.39c1.66-.41,3.32-.81,5-1.1a8.24,8.24,0,0,1,1.22-.08c.21,0,.46,0,.55-.3s-.09-.42-.23-.59a.5.5,0,0,0-.44-.17,7.94,7.94,0,0,0-1.88.24,11.94,11.94,0,0,1-1.47.29c-.65.07-1.25.32-1.89.42s-1.49.46-2.24.65-1.16.49-1.79.6a.9.9,0,0,0-.39.22,1.65,1.65,0,0,1-.72.4,12.6,12.6,0,0,0-2.2,1,1.08,1.08,0,0,1-.66.2,2.28,2.28,0,0,1,.59-1c.83-.88,1.6-1.81,2.38-2.73a1,1,0,0,1,.27-.28,7.31,7.31,0,0,0,1.91-1.68c.69-.77,1.5-1.42,2.17-2.22a9.15,9.15,0,0,1,1.65-1.64,5.51,5.51,0,0,0,1-.9,7,7,0,0,1,2.44-1.82,7,7,0,0,0,1.7-1c.42-.33.83-.69,1.27-1a5.59,5.59,0,0,1,2.18-.78.61.61,0,0,1,.33,0,6.42,6.42,0,0,1,1.72.85,6.17,6.17,0,0,0,.87.48c.81.5,1.67.89,2.51,1.32a15.34,15.34,0,0,1,2.8,2c.41.34.84.67,1.26,1s.72.69,1.08,1,.24.43-.14.55c-.9.27-1.77.66-2.66,1-.22.08-.4.2-.6.29a.56.56,0,0,0-.3.5c0,.32.13.46.43.34.59-.23,1.18-.43,1.79-.62s1.37-.45,2-.71a1.1,1.1,0,0,1,1.32.28,2.28,2.28,0,0,0,.33.29.18.18,0,0,0,.25,0,.23.23,0,0,0,.05-.26.94.94,0,0,0-.3-.39c-.2-.2-.18-.31.06-.39a2.64,2.64,0,0,1,2.43.3,24,24,0,0,1,2.13,1.5c.42.36.8.76,1.24,1.11s.73.64,1.13.9c.66.42,1.16,1,1.83,1.44a.52.52,0,0,1,.19.2c.1.16.06.29-.14.32a3.35,3.35,0,0,1-1,0,5.93,5.93,0,0,0-2.37.14,1.44,1.44,0,0,0-.83.42,1.48,1.48,0,0,1-1,.48,1.6,1.6,0,0,0-.42.14c-.22.1-.38.12-.44-.2s-.24-.25-.43-.13a6.41,6.41,0,0,0-1.82,1.67,6,6,0,0,0-.9,2.29,4.87,4.87,0,0,0,0,2.37c.13.44.18.9.31,1.33a2.41,2.41,0,0,0,.63,1,3.11,3.11,0,0,1,.53.77,2.29,2.29,0,0,0,.51.65,3,3,0,0,1,.75.89.65.65,0,0,0,.41.35,22.9,22.9,0,0,0,2.78.76,6.66,6.66,0,0,0,4-.55c.95-.45,1.93-.86,2.84-1.4a5.87,5.87,0,0,0,1-.65,1.94,1.94,0,0,0,.62-.85,7.26,7.26,0,0,0,.49-2.44,1.31,1.31,0,0,1,0-.28,4.37,4.37,0,0,0-.49-2.68.14.14,0,0,1,0-.19,8.69,8.69,0,0,1,.63.95c.36.74.83,1.41,1.19,2.15.51,1,1,2.06,1.58,3.06a15.08,15.08,0,0,1,1.08,2.07c.43,1.1.78,2.24,1.29,3.31a1.92,1.92,0,0,1,.19.7,10.2,10.2,0,0,0,.56,1.86.55.55,0,0,0,.14.23.15.15,0,0,0,.24,0,.22.22,0,0,0,.06-.15c0-.83.52-1.57.4-2.43a3.39,3.39,0,0,1,.06-.83.17.17,0,0,1,.1-.18.19.19,0,0,1,.22.12,7.41,7.41,0,0,1,.4.86,4,4,0,0,0,1,1.48,4,4,0,0,1,1.08,2.09c.23,1.11.47,2.22.79,3.3A6.32,6.32,0,0,1,71.88,53c0,1.21,0,2.41-.08,3.62a16.12,16.12,0,0,1-.37,2c-.06.37-.19.72,0,1.08.08.11,0,.25,0,.37,0,.38.16.59.52.47A6.08,6.08,0,0,0,73.26,60a4.14,4.14,0,0,1,1.55-.6,1,1,0,0,0,.55-.25,1.06,1.06,0,0,1,.71-.24,16.51,16.51,0,0,1-.9,2.27,12.8,12.8,0,0,0-.59,1.44,6.06,6.06,0,0,1-1.24,2.16,22.52,22.52,0,0,0-2,2.49,9.37,9.37,0,0,1-1.08,1.2,4.38,4.38,0,0,0-.41.45,1.67,1.67,0,0,1-1.25.74,28.78,28.78,0,0,1-3.82.3A18.33,18.33,0,0,0,61.6,70a34.83,34.83,0,0,1-3.82.13c-1.39.07-2.78,0-4.17.13a13.91,13.91,0,0,1-2.88-.1c-1.07-.1-2.15-.18-3.22-.24a6,6,0,0,0-1.27.06,26,26,0,0,1-5.22.11,30.42,30.42,0,0,1-3.31-.34,12.84,12.84,0,0,1-1.94-.5,21.19,21.19,0,0,0-2.6-.58,10.7,10.7,0,0,1-2.08-.58,25,25,0,0,0-2.55-.78A37.73,37.73,0,0,1,23,65.44a33.13,33.13,0,0,1-3.81-1.8,11.15,11.15,0,0,1-3-2.27,33.23,33.23,0,0,1-2.23-3.12A13.06,13.06,0,0,1,12.53,55.12Zm55.89,28.7c-1.6.56-3.24,1-4.87,1.4-1,.29-2,.65-3.08,1-1.5.43-2.88,1.18-4.4,1.56-.86.22-1.73.4-2.58.64A24,24,0,0,1,49,89c-2,.15-3.92.29-5.87.52-1.08.12-2.18.1-3.27.17s-2,.14-3,.22l-2.49.23a2.45,2.45,0,0,0-.39,0,16.13,16.13,0,0,1-4.75.33,7.31,7.31,0,0,1-2-.32c-1.39-.4-2.79-.75-4.19-1.12-.45-.12-.87-.32-1.32-.45q-2.36-.73-4.76-1.3a23.79,23.79,0,0,1-2.77-.81c-.84-.31-1.61-.76-2.43-1.1-1.13-.48-2.21-1.05-3.31-1.58a2.14,2.14,0,0,1-.89-.63,1.22,1.22,0,0,0-.84-.52,1.58,1.58,0,0,1-1-.6,12.19,12.19,0,0,1-2.39-3.66c-.24-.6-.58-1.15-.84-1.74a3,3,0,0,1-.31-1,2,2,0,0,0-.08-.49A10,10,0,0,1,1.73,72a10.73,10.73,0,0,1,2-6.06,3.21,3.21,0,0,1,1-.88,1.22,1.22,0,0,1,1-.13l.58.18c.54.15.77,0,.79-.57a12,12,0,0,1,.18-1.2,6.23,6.23,0,0,1,.73-1.67,3.82,3.82,0,0,1,3.55-2.33c.22,0,.44-.07.66-.07a2.15,2.15,0,0,1,2.11,1.17,8,8,0,0,0,1.07,1.32,11.07,11.07,0,0,0,2.29,1.91,17.84,17.84,0,0,0,3.06,1.68c1.41.66,2.85,1.23,4.3,1.8.72.29,1.48.45,2.23.67l3.25,1a2,2,0,0,1,.26.08,9.22,9.22,0,0,0,3,.77,17.29,17.29,0,0,1,2.75.69c.41.11.83.18,1.25.27,1.43.32,2.9.25,4.35.43a10.08,10.08,0,0,0,1.23,0c1.09.08,2.17-.18,3.27-.18.74,0,1.48,0,2.22,0a43.78,43.78,0,0,0,6.17.1c1.1-.1,2.22,0,3.33,0a22.65,22.65,0,0,0,2.6-.08,27.34,27.34,0,0,1,3.84-.15,20.59,20.59,0,0,0,4.42-.44,1.89,1.89,0,0,0,1-.59,10.66,10.66,0,0,0,1-1.12,1.57,1.57,0,0,1,.62-.55,11.19,11.19,0,0,0,1.47-1,.62.62,0,0,1,.66-.1,5.34,5.34,0,0,1,3,2.63,3.93,3.93,0,0,1,.31,2.66,2.42,2.42,0,0,1-1.45,1.59c-.31.16-.64.29-1,.45s-.45.46-.1.78c.18.18.39.33.59.51A2.8,2.8,0,0,1,76.2,77a.64.64,0,0,1,0,.49,2.4,2.4,0,0,1-.23.38c-.52.65-1.06,1.28-1.56,2a12.32,12.32,0,0,1-3.22,2.71A12,12,0,0,1,68.42,83.82Zm.84,10a.75.75,0,0,0,0-.49,1.34,1.34,0,0,1-.09-1,4.28,4.28,0,0,0,0-1.71c-.26-1.39-.22-2.8-.35-4.21a6.52,6.52,0,0,0-.22-1.31c-.11-.34-.07-.42.25-.56s.7-.24,1-.36a1.9,1.9,0,0,0,.42-.15c.76-.48,1.56-.9,2.29-1.44a11.83,11.83,0,0,0,2.78-2.78c.23-.33.49-.65.74-1s.32-.2.41.11A9.41,9.41,0,0,1,77,81a6.68,6.68,0,0,0,.36,1.38,16.48,16.48,0,0,1,.48,1.7,4.31,4.31,0,0,1,.1.61c0,.3-.05.36-.36.31A1.38,1.38,0,0,1,77,84.8c-.18-.15-.36-.06-.48.1a5.82,5.82,0,0,0-1,1.85,32.73,32.73,0,0,1-1.17,3.46,16.8,16.8,0,0,0-.51,1.71,2.21,2.21,0,0,1-.47,1c-.17.16-.1.38-.1.58,0,.45-.08.55-.53.56H71.42c-.61.08-1.22,0-1.83.1C69.25,94.18,69.2,94.1,69.26,93.77Zm5.51-1.54c-.21.5-.17,1.09-.53,1.56,0-.06-.1-.08-.1-.1a8,8,0,0,1,.48-1.35S74.71,92.26,74.77,92.23Zm-5,3.22c-.16,0-.35.09-.39-.15s.17-.26.33-.27a16.32,16.32,0,0,1,1.71-.09c.18,0,.37,0,.65,0s.75,0,1.18-.06c.14,0,.37-.06.37.19s-.2.24-.37.26a12.52,12.52,0,0,1-2.37.12A5.15,5.15,0,0,0,69.78,95.45Zm-.12,27.74s0,0,0,0a.17.17,0,0,1-.1,0l-.13,0a.37.37,0,0,1-.15-.27.31.31,0,0,1,0-.1c0-.14,0-.26.21-.27a.35.35,0,0,1,.31.43.34.34,0,0,1-.05.14A.12.12,0,0,1,69.66,123.19Zm3.21,6.95a.26.26,0,0,1-.18,0,4.35,4.35,0,0,1-1-.63l-.12-.12-.06-.07h0a2.52,2.52,0,0,0-.49-.43.76.76,0,0,0-.19-.12.12.12,0,0,1-.06-.14,1,1,0,0,1,.22.09,4.62,4.62,0,0,1,.6.29l.06,0,0,0a1.76,1.76,0,0,1,.32.19,2.21,2.21,0,0,0,.88.53l0,.15a.53.53,0,0,1,0,.12A.12.12,0,0,1,72.87,130.14Zm4.75-3.62a6.69,6.69,0,0,0-.47,1.64.49.49,0,0,1-.15.23,2.37,2.37,0,0,0-.59,1.06c-.09.39-.32.51-.74.5a4.63,4.63,0,0,1-1.48-.23,2.14,2.14,0,0,0-1.3,0,3.86,3.86,0,0,0-1.26-1.12,12.23,12.23,0,0,0-1.43-1c-.32-.16-.33-.28,0-.51s.19-.35,0-.44c-.5-.22-.47-.59-.39-1,.12-.61.3-1.19.46-1.78a.32.32,0,0,1,.26-.24c.4-.14.46-.22.27-.6a1.49,1.49,0,0,1,.17-1.36,3.47,3.47,0,0,0,2,2.23c.57.31,1.09.69,1.63,1a7.77,7.77,0,0,0,2.83,1.1C77.68,126.15,77.71,126.19,77.62,126.52ZM78.75,124a9.38,9.38,0,0,0-.6,1.13c-.05.12-.13.12-.27.1a2.58,2.58,0,0,1-1-.33,3.44,3.44,0,0,0-2-.56c-.41,0-.54-.17-.34-.55s.09-.43-.18-.57a1.65,1.65,0,0,1-.41-.28,3.36,3.36,0,0,0-1.47-.74c-.34-.07-.65-.17-.75-.57a.46.46,0,0,0-.36-.31A.31.31,0,0,1,71,121c0-.19,0-.44.23-.53s.37,0,.54.19c.78.73,1.61,1.41,2.44,2.09a2.39,2.39,0,0,0,1.21.43c.09,0,.23,0,.29-.08.23-.24.47-.15.71-.06a7.55,7.55,0,0,0,2.12.65C78.8,123.67,78.84,123.88,78.75,124Zm3.06-6.18c-.32.61-.67,1.2-1,1.81-.5,1-1,1.94-1.47,2.92-.19.38-.21.45-.75.33s-1-.15-1.47-.27-.83-.16-1.23-.26a2.27,2.27,0,0,1-.72-.42c-.4-.31-.52-.28-.85.24-.07-.45,0-.86-.36-1.06-.14.07-.09.16-.09.25s0,.21-.12.19-.15-.09-.17-.19c-.07-.42-.07-.43-.48-.46a.77.77,0,0,1-.36-.12c-.31-.21-.62-.41-.92-.63a.69.69,0,0,1-.32-.86c.09-.25.12-.51.19-.76a.65.65,0,0,1,.69-.52c.34,0,.67,0,1,0,1.32-.1,2.59-.53,3.9-.57s2.82-.16,4.23-.08C81.91,117.39,82,117.51,81.81,117.86Zm2.88-10.24c0,.13.1.32-.07.4s-.27-.08-.37-.18a11.77,11.77,0,0,1-.86-.87,1,1,0,0,1,0-1,1.73,1.73,0,0,1,.88-.65c.41-.18.51-.11.5.25s-.06.58-.1.82A3.39,3.39,0,0,0,84.69,107.62Zm.22-6.48a7.1,7.1,0,0,1,0,1.66c0,.26,0,.52-.07.78,0,.56-.2.77-.76.84a.57.57,0,0,0-.5.36c-.09.16-.2.31-.3.47a1.7,1.7,0,0,0,0,2.31.76.76,0,0,1,.18.33.75.75,0,0,0,.48.57,1.21,1.21,0,0,1,.78,1.32,1.66,1.66,0,0,0,0,.44,2.37,2.37,0,0,1-.09,1.51.92.92,0,0,0,0,.71c.12.44.08.89.18,1.32a.74.74,0,0,1,0,.44,1.35,1.35,0,0,0-.06.77c.08.43-.06.85,0,1.27a.28.28,0,0,1-.31.32,7.61,7.61,0,0,1-.83,0,18,18,0,0,0-2.94,0c-.84,0-1.67,0-2.5,0s-1.93,0-2.9,0a19.61,19.61,0,0,0-3.16,0c-.6.06-.58,0-.66-.56-.13-1-.07-1.89-.13-2.84-.17-2.25-.22-4.52-.47-6.77a8.36,8.36,0,0,1,0-2,5.36,5.36,0,0,0-.16-1.32,7.23,7.23,0,0,1,0-1.61.91.91,0,0,0,0-.33,15.33,15.33,0,0,1-.26-3.1c0-.44,0-.88-.09-1.33,0-.26.07-.38.34-.37a7.68,7.68,0,0,1,1.27,0,8.18,8.18,0,0,0,1.1-.1c.15,0,.34-.07.44,0,.44.29.88.1,1.33,0a11.51,11.51,0,0,1,2.27.1,20.66,20.66,0,0,0,2.61,0c1.35-.08,2.69-.28,4-.42a10,10,0,0,0,1.09-.2c.3,0,.38,0,.38.31,0,.5,0,1-.08,1.49A16.66,16.66,0,0,0,84.91,101.14ZM86,108.45c-.26.06-.38,0-.39-.3s0-.52,0-.77h0v-1.77c0-.32.12-.39.41-.27a1.23,1.23,0,0,1,.56.52,6.17,6.17,0,0,1,.64,1.58.25.25,0,0,1-.2.33,1,1,0,0,0-.65.47A.58.58,0,0,1,86,108.45Zm1.07.88c-.11.09-.25.26-.37.14s.12-.21.19-.31a1.23,1.23,0,0,1,.41-.41A.56.56,0,0,1,87.09,109.33Z"/><path d="M78.35,129.64l-.07.06,0,0h0a.21.21,0,0,1-.26,0h0a.26.26,0,0,1-.05-.3,1.07,1.07,0,0,1,.07-.15l0-.06.23-.43,0,0,0,0,.08.12.06.12A.42.42,0,0,1,78.35,129.64Z"/><path d="M69.41,106.68c0,.16.14.28.3.28s.14-.18.14-.3,0-.22-.19-.2S69.41,106.52,69.41,106.68Z"/><path d="M68.06,123.26a.28.28,0,0,0,.22-.31.16.16,0,0,0-.14-.15c-.13,0-.27.2-.24.35A.13.13,0,0,0,68.06,123.26Z"/><path d="M58.06,29.19c-.09.07-.09.12-.08.17a.33.33,0,0,0,.27.3.09.09,0,0,0,.12-.07c0-.15-.1-.22-.18-.31A.43.43,0,0,0,58.06,29.19Z"/><path d="M76.68,57.42a.54.54,0,0,0,.23-.55A.73.73,0,0,0,76.68,57.42Z"/><path d="M80,42.71h0V42.2h0Z"/><path d="M61.37,32.67c.09.24.09.24.23.3C61.61,32.84,61.55,32.76,61.37,32.67Z"/><path d="M61.75,33.39a.18.18,0,0,0,0,.1c0,.06,0,.23.16.12S61.88,33.41,61.75,33.39Z"/><path d="M70.51,113.48h0v.21h0Z"/><path d="M72.13,58.62s.05,0,.05-.07,0-.12-.08-.08a.13.13,0,0,0,0,.09S72.1,58.6,72.13,58.62Z"/><path d="M4.16,114.63a22.57,22.57,0,0,0-.22-4.11,1.62,1.62,0,0,1,0-.22,13.15,13.15,0,0,0-.35-3.59,3.26,3.26,0,0,1-.06-.88,6.87,6.87,0,0,0-.21-2.26c-.07-.51-.13-1-.18-1.55-.07-.9-.09-1.81-.2-2.71s-.09-1.92-.16-2.88a6.49,6.49,0,0,0-.16-.88.89.89,0,0,1,.14-.74c.11-.14.25-.17.37,0a.91.91,0,0,1,.25.61,30.21,30.21,0,0,0,.39,4.14,17.52,17.52,0,0,0,.49,2.79.81.81,0,0,1-.06.65,1.56,1.56,0,0,0-.12,1.14c.23,1.29.38,2.6.55,3.9a3.55,3.55,0,0,0,.25,1,.83.83,0,0,1,0,.75,1.33,1.33,0,0,0,0,1,4.14,4.14,0,0,1,0,2.78,2.56,2.56,0,0,0-.13.82c0,.85,0,1.7,0,2.55a1.9,1.9,0,0,0,.37,1c.12.17.13.31,0,.44a.34.34,0,0,1-.5,0,1.14,1.14,0,0,1-.42-.81C4.17,116.52,4.13,115.57,4.16,114.63Z"/><path d="M32.57,35.72a5.3,5.3,0,0,0-2.11-2.29c-.77-.37-1.39-1-2.32-1.07-.09,0-.17-.08-.26-.11a4.83,4.83,0,0,0-1.65-.45,4.78,4.78,0,0,0-2.12.23,4.37,4.37,0,0,0-.46.18,1.5,1.5,0,0,1-1,.24,1.23,1.23,0,0,0-1.22.49,1.08,1.08,0,0,1-.73.47,1.29,1.29,0,0,0-.71.41,8.32,8.32,0,0,1-.78.79A4,4,0,0,0,18.06,36a3.79,3.79,0,0,0-.66,1.46,15.75,15.75,0,0,0-.2,2.35,2.47,2.47,0,0,0,.37,1.84,1.08,1.08,0,0,1,.11.42,3.18,3.18,0,0,0,.65,1.45c.47.56.86,1.19,1.34,1.75a4.5,4.5,0,0,0,2.21,1.58,7.91,7.91,0,0,0,3,.13,9.89,9.89,0,0,0,3.27-1,10.55,10.55,0,0,0,2.51-1.53,5.24,5.24,0,0,0,1.42-1.69,10.22,10.22,0,0,0,1-4.48A5.2,5.2,0,0,0,32.57,35.72ZM30.12,43.6a13.31,13.31,0,0,1-3.33,1.87,8,8,0,0,1-4.63.44,3.21,3.21,0,0,1-2.05-1.58c-.23-.36-.1-.55.33-.51s.59.07.89.12a7,7,0,0,0,2.1,0,11.14,11.14,0,0,1,2.38,0,6.22,6.22,0,0,0,1.61-.08c.36-.07.73-.1,1.09-.16a4,4,0,0,0,1.56-.56.58.58,0,0,1,.52-.11A1.18,1.18,0,0,1,30.12,43.6Zm2.07-4.88a5.72,5.72,0,0,1-.38,2.12,1.23,1.23,0,0,1-.49.6,10,10,0,0,1-1.67.84A8.51,8.51,0,0,1,27,43a11,11,0,0,1-2.43,0,2.09,2.09,0,0,0-.5,0,15.1,15.1,0,0,1-2.33.12,8.86,8.86,0,0,1-2.87-.6.55.55,0,0,1-.34-.34,7.58,7.58,0,0,1-.62-3,9.14,9.14,0,0,1,.5-2.34,3.45,3.45,0,0,1,.74-1,13.89,13.89,0,0,1,1.52-1.55,1.24,1.24,0,0,1,1.22-.34c.17.06.24,0,.31-.13a1.32,1.32,0,0,1,1.06-.62A9.81,9.81,0,0,0,25,32.76a3.24,3.24,0,0,1,1.9.09s.1,0,.15,0c1.11,0,1.92.78,2.86,1.2a3.72,3.72,0,0,1,1.38,1.35,5.76,5.76,0,0,1,.55.81A5.59,5.59,0,0,1,32.19,38.72Z"/><path d="M46.38,51a.71.71,0,0,1-.48-.1,2.13,2.13,0,0,0-1-.31,1.39,1.39,0,0,0-1.27.36,1.48,1.48,0,0,1-2.06.11A.39.39,0,0,0,41,51a1.32,1.32,0,0,0-.71.81.89.89,0,0,1-1,.68,9,9,0,0,0-1.64.25,3.18,3.18,0,0,1-3-.91,2.34,2.34,0,0,1-.27-2.54,1.3,1.3,0,0,1,.63-.53c.37-.17.75-.31,1.13-.47a.45.45,0,0,1,.57.2.36.36,0,0,1,0,.5c-.25.28-.43.6-.85.67a.5.5,0,0,0-.44.5c0,.28.28.37.52.44a1.63,1.63,0,0,0,1-.19c.16-.05.29-.18.46-.19a.51.51,0,0,0,.51-.35c0-.1.1-.22.22-.24a2.1,2.1,0,0,0,1.26-.85,1.93,1.93,0,0,1,2.38-.34.67.67,0,0,0,.87,0c.2-.16.44-.26.63-.44a2,2,0,0,1,1.91-.23c.25,0,.47.19.75.09a.46.46,0,0,1,.42.1c.4.3.77.1,1.14-.08.14-.07.24-.22.43-.24s.17-.13.18-.24-.1-.24-.23-.29a.76.76,0,0,0-.16,0c-.37-.06-.56-.21-.56-.45a.74.74,0,0,1,.67-.56,1.77,1.77,0,0,1,1.49.59.53.53,0,0,0,.59.2c.12,0,.27,0,.34.1s0,.25-.12.33a.47.47,0,0,0-.17.54.9.9,0,0,1-.13.64,4.27,4.27,0,0,1-2.19,2,.9.9,0,0,0-.28.18A1.24,1.24,0,0,1,46.38,51Z"/><path d="M51.15,54.13a.52.52,0,0,0-.57-.25,1.3,1.3,0,0,0-.3.13,5.27,5.27,0,0,1-.62.24,21.53,21.53,0,0,1-2.24.42,21.31,21.31,0,0,0-2.51.46c-.46.09-.85.36-1.3.47a12.61,12.61,0,0,1-2.87.25,10,10,0,0,1-2.44-.16c-.49-.1-1-.26-1.44-.4a1.51,1.51,0,0,0-.7-.13c-.19,0-.35.11-.4.33A.37.37,0,0,0,36,56,.85.85,0,0,1,36.45,57c-.16.64.06.92.6,1.26a9.46,9.46,0,0,1,1.47.95.85.85,0,0,0,.3.15,12.18,12.18,0,0,0,2.88.52,12,12,0,0,0,1.81-.25,10.44,10.44,0,0,0,3.1-.86,7.16,7.16,0,0,0,2.15-1.23,8.55,8.55,0,0,0,1.61-2.12,1.66,1.66,0,0,1,.6-.83A.37.37,0,0,0,51.15,54.13Zm-13,3.45a.39.39,0,0,1-.51-.36c0-.25-.18-.34-.41-.36a.18.18,0,0,1-.18-.23c0-.13.15-.15.27-.11.38.12.79.12,1.17.27.13.05.18.1.19.16A.67.67,0,0,1,38.16,57.58Zm10.58-1.3a7.25,7.25,0,0,1-1.26,1.09,5.94,5.94,0,0,1-2.26.87c-1,.17-1.92.37-2.86.63A4.36,4.36,0,0,1,40,58.68a7.41,7.41,0,0,1-1-.37c-.33-.13-.36-.24-.16-.53s.33-.45.49-.67a.75.75,0,0,1,.63-.3c1.69,0,3.37-.2,5.05-.22a5.87,5.87,0,0,0,1.64-.31,19.07,19.07,0,0,0,2.19-.79c.11-.05.22-.16.43-.05A2.23,2.23,0,0,1,48.74,56.28Z"/><path d="M41.94,45.83c0-.2,0-.4.07-.6a.34.34,0,0,1,.23-.34c.18-.06.27.08.38.17a.6.6,0,0,1,.23.42A11,11,0,0,0,43,46.63.83.83,0,0,1,43,47a.38.38,0,0,1-.26.32c-.19,0-.22-.14-.3-.26C42.19,46.69,41.83,46.36,41.94,45.83Z"/><path d="M40.37,46.07a.79.79,0,0,1,.06-.28c.1-.19.19-.43.47-.4s.29.24.33.45.17.64.25,1a.93.93,0,0,1,0,.44c-.07.25-.38.36-.51.14A2.53,2.53,0,0,1,40.37,46.07Z"/><path d="M54.27,33.32a2.78,2.78,0,0,0-2.17-1,5.32,5.32,0,0,1-.56-.06,2.08,2.08,0,0,0-2.17,1.29,3.68,3.68,0,0,0-.23.44,1.49,1.49,0,0,0,.13,1.62c.2.23.48.41.54.74a.21.21,0,0,0,.17.13c.54,0,1,.28,1.64.29a5.5,5.5,0,0,0,2.52-.93A1.52,1.52,0,0,0,54.27,33.32ZM54,34.7a1.23,1.23,0,0,1-.75.68,11,11,0,0,0-1.11.36,2.18,2.18,0,0,1-1.36,0c-.23,0-.34-.15-.13-.37s.09-.31-.14-.4c-.55-.22-.64-.49-.39-1.2l.13.31s.08,0,.08-.07,0-.18,0-.27c0-.43.11-.64.53-.7a3.71,3.71,0,0,1,2.23.24,2.7,2.7,0,0,1,.93.91A.42.42,0,0,1,54,34.7Z"/><path d="M59.41,34.82a5.44,5.44,0,0,0-.15-.54,1.67,1.67,0,0,0-2.3-1,.46.46,0,0,0-.15.16,1.82,1.82,0,0,0-.48,1.09c0,.54.1.76.49.88a3.4,3.4,0,0,1,.69.34,1.65,1.65,0,0,0,1,.24A1,1,0,0,0,59.41,34.82Zm-1.22.43-.21.09h-.16c-.36,0-.72,0-.86-.45a.76.76,0,0,1-.06-.16c0-.27.63-.91.89-.82a1.22,1.22,0,0,1,.75.62C58.71,34.91,58.61,35.11,58.19,35.25Z"/><path d="M24.36,36.42a3.43,3.43,0,0,0-1.78-1.15,1,1,0,0,0-.81,0,1.9,1.9,0,0,1-.42.15,1.31,1.31,0,0,0-.91.67c-.32.5-.6,1-.88,1.54a.94.94,0,0,0-.1.81c.25.59.18,1.43,1.09,1.57a.18.18,0,0,1,.09.06c.4.51,1,.37,1.46.51A6.41,6.41,0,0,0,24,40.2a1.77,1.77,0,0,0,1.11-1.53A4.24,4.24,0,0,0,24.36,36.42Zm-.78,2.89a4,4,0,0,1-2.76.23,1.08,1.08,0,0,1-.54-1.29,5.4,5.4,0,0,0,.4-1,3.26,3.26,0,0,1,.58-1c.2-.28.55-.13.82-.18a1.77,1.77,0,0,1,1.81,1.24,4,4,0,0,1,.23,1.08A.81.81,0,0,1,23.58,39.31Z"/><path d="M30.52,36.57a1.32,1.32,0,0,1-.18-.4A2.07,2.07,0,0,0,29,34.65a.65.65,0,0,0-.92.25c-.33.42-.63.87-1,1.29a1.26,1.26,0,0,0-.2,1.49,1.38,1.38,0,0,0,1.45.63,3,3,0,0,0,2-1A.62.62,0,0,0,30.52,36.57Zm-1.12.23a2,2,0,0,1-1.2.41,2.42,2.42,0,0,1-.26,0c-.19,0-.3-.17-.22-.36a10.08,10.08,0,0,1,.52-1.1c.15-.25.51-.25.8,0a1.87,1.87,0,0,1,.48.6A.37.37,0,0,1,29.4,36.8Z"/><path d="M72.52,54.18l-.19,2.34A9.5,9.5,0,0,1,72,58.9a.1.1,0,0,0,.07.12c.58.22,1-.28,1.52-.43s1.25.19,1.53-.45c0-.06,0-.16-.08-.15a3.74,3.74,0,0,0-1.78.57s-.07.11,0,.15a.79.79,0,0,0,1,0,.1.1,0,0,0-.07-.17h-.6s-1,0-.77-.27l-.16-.12a.51.51,0,0,0,.22.69c.43.27,1-.11,1.39-.26,1-.39,2.12-.62,2.72-1.61,0-.06,0-.14-.09-.15a.46.46,0,0,0-.49.28c-.06.12.11.22.17.1l.32-.18-.09-.15a3,3,0,0,1-1.69,1.2c-.3.11-.61.2-.91.32l-.35.14-.29.12c-.3.15-.54,0-.73-.4,0-.09-.08-.21-.16-.12a.33.33,0,0,0,0,.51c.33.26,1.09.1,1.47.1l-.07-.17a.56.56,0,0,1-.75,0l0,.16A3.51,3.51,0,0,1,75,58.19L74.94,58c-.24.53-1.08.22-1.54.4s-.82.56-1.29.39l.07.12a8.35,8.35,0,0,0,.33-2.23l.21-2.54c0-.13-.19-.13-.2,0Z"/><path d="M69.27,44.48a2.89,2.89,0,0,0,.63,1.05.1.1,0,0,0,.17-.08,1.57,1.57,0,0,0-.73-1.4.1.1,0,0,0-.14.14c.22.37,1.07.85.71,1.36-.07.1.1.2.18.1.45-.64-.45-1.1-.72-1.56l-.14.13a1.37,1.37,0,0,1,.64,1.23l.17-.07a2.34,2.34,0,0,1-.57-1c0-.12-.24-.06-.2.06Z"/><path d="M70.2,45.75l.18-.35c.05-.11-.12-.21-.18-.1l-.18.35c0,.11.12.22.18.1Z"/><path d="M65.9,41.35a14.2,14.2,0,0,1,.57,2.44c0,.09.17.09.19,0a2.82,2.82,0,0,0-.61-2.43.11.11,0,0,0-.16,0c-.41.66.47,1.13.41,1.77,0,.13.18.13.2,0,0-.56-.76-1.15-.43-1.66l-.16,0a2.59,2.59,0,0,1,.56,2.22h.19a12.9,12.9,0,0,0-.57-2.44.1.1,0,0,0-.19.06Z"/><path d="M61.44,32.49a1.74,1.74,0,0,0,.4,1.09c.09.1.23,0,.15-.15a1.48,1.48,0,0,1-.35-.94c0-.13-.21-.13-.2,0Z"/><path d="M57.86,29a.5.5,0,0,1,.09.29.12.12,0,0,0,0,.1l.15.22a.1.1,0,0,0,.18,0,.29.29,0,0,1,0-.09c0-.12-.15-.17-.19-.05a.24.24,0,0,0,0,.08l.18,0c-.11-.2-.13-.4-.24-.61s-.24,0-.17.1Z"/><path d="M86.8,109.36a.55.55,0,0,0,.52-.44.1.1,0,0,0-.17-.1,1.39,1.39,0,0,0-.43.56c-.06.12.12.22.17.1a1.45,1.45,0,0,1,.4-.52l-.17-.1-.32.3c-.13,0-.13.21,0,.2Z"/><path d="M69,123.23a5,5,0,0,0,.65-.57l-.16-.13a1.56,1.56,0,0,0-.19.79.1.1,0,0,0,.13.1.47.47,0,0,0,.09-.91c-.11-.05-.22.12-.1.18l0,.53.12.1a1.34,1.34,0,0,1,.16-.68c.06-.1-.07-.21-.15-.13a5.32,5.32,0,0,1-.61.55c-.1.08,0,.25.1.17Z"/><path d="M78,129.94a4.35,4.35,0,0,0,.39-1.22l-.19,0-.06,1.06c0,.13.19.13.2,0l.06-1.06c0-.11-.18-.14-.2,0a4.43,4.43,0,0,1-.37,1.17c-.06.12.12.22.17.1Z"/><path d="M78.1,129.76a1.81,1.81,0,0,0,.48-.94c0-.09-.1-.19-.17-.1a1.21,1.21,0,0,0-.23,1.22c0,.08.15.11.19,0a.55.55,0,0,0-.89-.65c-.09.09,0,.23.15.14l.56.41.19,0a1,1,0,0,1,.17-1l-.17-.1a1.51,1.51,0,0,1-.43.85c-.08.1.06.24.15.15Z"/><path d="M73.07,129.92c-1.09-.06-1.39-1.79-2.61-1.48a.1.1,0,0,0-.06.15,2.74,2.74,0,0,0,2,1.12c.09,0,.12-.11.07-.17a4.26,4.26,0,0,0-1.36-1c-.07,0-.16,0-.15.08a.75.75,0,0,0,.47.69,5.37,5.37,0,0,1,1.42.65c.09.08.24-.06.14-.14a2.24,2.24,0,0,0-.7-.44c-.39-.16-1.11-.16-1.13-.76l-.15.09a4.12,4.12,0,0,1,1.31,1l.08-.17a2.52,2.52,0,0,1-1.79-1l-.06.15c1.09-.28,1.5,1.42,2.56,1.48.13,0,.13-.19,0-.2Z"/><path d="M182.32,73.29a1.54,1.54,0,0,0,0-.37,27.87,27.87,0,0,0-.47-2.88,9.28,9.28,0,0,0-.08-1.07,4.57,4.57,0,0,1-.1-1.33,2.72,2.72,0,0,0,0-.49c-.09-.59-.13-1.2-.24-1.79a6.67,6.67,0,0,0-.19-1,5.36,5.36,0,0,1-.27-1.1,6.39,6.39,0,0,1-.21-1.21,4.33,4.33,0,0,0-.14-1.39c-.18-.79-.39-1.57-.52-2.37a6.43,6.43,0,0,0-.29-1.37c-.22-.55-.43-1.11-.62-1.67a12.51,12.51,0,0,1-.66-2.56,2,2,0,0,0-.24-.76,6.93,6.93,0,0,1-.5-1.31,7.41,7.41,0,0,0-.54-1.69,15,15,0,0,1-1.07-2.71c-.32-1-.82-1.84-1.07-2.82a1.17,1.17,0,0,0-.17-.28,11.73,11.73,0,0,1-1.3-2.22,6.26,6.26,0,0,0-1.36-2.17c-.69-.67-1.07-1.6-1.74-2.31A15.64,15.64,0,0,0,169.1,35a.37.37,0,0,0-.57.07c-.15.17-.2.34,0,.52s.33.32.51.47a12,12,0,0,1,2,2.17,7.38,7.38,0,0,0,1,1.39,3.37,3.37,0,0,1,.86,1.29,12.76,12.76,0,0,0,1.06,2,10.74,10.74,0,0,1,.74,1.43c.71,1.59,1.22,3.27,1.86,4.89A26.16,26.16,0,0,1,178,53.83a11.65,11.65,0,0,0,.44,1.5,20.64,20.64,0,0,1,.86,2.77c.08.35.11.71.19,1.06a16.58,16.58,0,0,1,.57,2.31,16.6,16.6,0,0,0,.6,3,5,5,0,0,1,.19,1c.11,1.12.16,2.25.33,3.37.21,1.35.22,2.73.51,4.06a1.15,1.15,0,0,1,0,.32,28.34,28.34,0,0,0-.11,3.19c0,1.15,0,2.3,0,3.45a9,9,0,0,1,0,2.2,4.17,4.17,0,0,0-.08.7,30.47,30.47,0,0,1-.45,3.69,26.83,26.83,0,0,0-.43,2.83c-.14,1.88-.21,3.77-.47,5.64a20.34,20.34,0,0,1-.83,3.79,16.68,16.68,0,0,0-.93,5.19,9.52,9.52,0,0,1-.28,2.19,33.86,33.86,0,0,1-2.6,6.79,18,18,0,0,1-3.72,4.86c-1.16,1.13-2.37,2.2-3.61,3.25a14.86,14.86,0,0,1-4.21,2.55,4.81,4.81,0,0,1-.81.27,24.91,24.91,0,0,1-4.39.5,15.45,15.45,0,0,1-4.59-.51,6.93,6.93,0,0,0-1.43-.26,5.7,5.7,0,0,1-.91-.13c-.38-.09-.42-.21-.19-.51s.32-.48.49-.71a6.62,6.62,0,0,1,.73-1.13,2.07,2.07,0,0,0,.46-.71,7.56,7.56,0,0,1,1.17-2,2,2,0,0,0,.51-.92c0-.15.1-.31.15-.46a17.79,17.79,0,0,0,1.11-4.49c.15-1.36.3-2.72.52-4.07a19.42,19.42,0,0,0,.21-5.11,21.88,21.88,0,0,1,.11-5.6c.2-1.33.34-2.68.57-4a2.22,2.22,0,0,0,0-1,17.06,17.06,0,0,1-.37-2.45c-.08-.66-.31-.76-.91-.51a6.93,6.93,0,0,1-2.77.64,5,5,0,0,0-1.28.14,9.35,9.35,0,0,1-2.36.16,2.2,2.2,0,0,1-.37-.06.28.28,0,0,1-.24-.4c0-.14.09-.28.14-.41a22,22,0,0,1,1.5-3,2.43,2.43,0,0,1,.43-.52c.42-.76,1.38-1.14,1.71-2-.05,0,0-.14,0-.27a8.16,8.16,0,0,1,.88-1.29,3.15,3.15,0,0,0,.62-1.06c.4-1.06.74-2.14,1.09-3.22a2.4,2.4,0,0,1,.17-.4,6.44,6.44,0,0,0,.83-2.55A36.93,36.93,0,0,1,157.82,71c.26-.9.44-1.82.69-2.72a10.11,10.11,0,0,1,.58-1.68,1.38,1.38,0,0,0,.15-.4c.08-.45-.12-.65-.56-.56l-2,.41a2.71,2.71,0,0,1-1.09.07c-.07-.06-.09-.12-.06-.16a5.12,5.12,0,0,0,.67-2.25c.23-1.51.55-3,.72-4.53.13-1.13.27-2.25.34-3.38s.18-2.08.17-3.13a3.07,3.07,0,0,1,.05-.53c.23-1,.15-2,.33-3.06a.73.73,0,0,0-.3-.81c-.23-.13-.23-.34-.23-.56,0-.7.08-1.4,0-2.1-.07-1.26,0-2.52-.06-3.78,0-.34-.06-.68-.11-1a7.19,7.19,0,0,1,0-1.67c0-.32.09-.37.41-.34s.47.07.69.12a12.81,12.81,0,0,0,3.95.36c.31,0,.48,0,.57.09a1.66,1.66,0,0,1,.91-.06.24.24,0,0,1,0-.13,1.65,1.65,0,0,1,1.21-.38c.24.1.37,0,.46-.2a.85.85,0,0,1,.54-.49.93.93,0,0,0,.38-.3,1.33,1.33,0,0,0,.29-.74.49.49,0,0,0-.25-.5c-.11-.08-.07-.19,0-.3a.9.9,0,0,1,.47-.56,1,1,0,0,0,.53-1,10.54,10.54,0,0,0-.09-1.13,2,2,0,0,1,.22-1.36.7.7,0,0,0,.13-.56,1.16,1.16,0,0,1,.07-.69,2.68,2.68,0,0,0,.13-.74,9.12,9.12,0,0,1,.33-2.07,3.21,3.21,0,0,0,0-.76c0-1.33-.31-2.63-.31-4v-.05a18.54,18.54,0,0,0-.9-4.1c-.44-1.46-1.1-2.85-1.66-4.27a1.18,1.18,0,0,0-.19-.32,11.15,11.15,0,0,1-1.4-2.47,3.44,3.44,0,0,0-1.07-1.59,2.73,2.73,0,0,1-.34-.34,3.46,3.46,0,0,0-.84-.57,4.5,4.5,0,0,0-1.39-.64c-.06,0-.1-.1-.15-.15a4.91,4.91,0,0,0-.84-.75,4.49,4.49,0,0,1-1.62-1.81,1.33,1.33,0,0,0-.47-.5c-.86-.55-1.83-.92-2.66-1.52a.46.46,0,0,0-.26-.07c-.38,0-.74-.15-1.11-.2a2.46,2.46,0,0,1-1.77-1,.52.52,0,0,0-.65-.19,5.09,5.09,0,0,1-1.65.21A2.87,2.87,0,0,1,146.79,2a.91.91,0,0,0-.66-.32,8.48,8.48,0,0,0-1.88-.1,1.09,1.09,0,0,1-.72-.17,1.5,1.5,0,0,0-1.11-.28A2.66,2.66,0,0,1,141.15,1a11.66,11.66,0,0,0-1.64-.54.85.85,0,0,0-.63,0,3.3,3.3,0,0,1-1.68.29A15.17,15.17,0,0,1,134,.51a.65.65,0,0,0-.51.1,2,2,0,0,1-1.34.3,5.33,5.33,0,0,1-1.58-.3,2.82,2.82,0,0,0-1-.15,4.31,4.31,0,0,1-1-.12,9.44,9.44,0,0,0-3.47-.28A19.64,19.64,0,0,0,122,.44a6.52,6.52,0,0,1-1.16.27,10.91,10.91,0,0,0-2.5.63,18.72,18.72,0,0,1-2.21.66,3.94,3.94,0,0,0-1.46.53c-.44.28-.92.48-1.38.72a9.91,9.91,0,0,0-3,1.93,1.73,1.73,0,0,1-.31.22A9.49,9.49,0,0,0,108,6.73a2.77,2.77,0,0,1-.48.34,15.44,15.44,0,0,0-1.4,1A4.66,4.66,0,0,0,105,9.64c-.2.44-.47.85-.71,1.28a17.6,17.6,0,0,0-1.93,4.61,3.66,3.66,0,0,1-.44,1,6.94,6.94,0,0,0-.71,1.51,22.63,22.63,0,0,0-.93,3.71c-.08.56-.17,1.11-.3,1.65a37.14,37.14,0,0,0-.84,5.93,9.09,9.09,0,0,0,0,2.15,1.48,1.48,0,0,1-.14.85,8.66,8.66,0,0,1-.71,1.26,12.65,12.65,0,0,0-1.33,2.65,1.25,1.25,0,0,0,0,1.1,2.25,2.25,0,0,1,.42,1.09.4.4,0,0,0,.25.33.48.48,0,0,1,.23.55c-.11.73-.17,1.48-.34,2.19a47.92,47.92,0,0,0-1,5.58,18.72,18.72,0,0,0-.14,2.9,34.86,34.86,0,0,1-.28,5.6,12.35,12.35,0,0,0-.14,2.1c0,1,0,2,0,2.92,0,.23,0,.47,0,.7.1,1.06.2,2.11.29,3.17a9.24,9.24,0,0,0,.11,1.18,23.79,23.79,0,0,1,.39,2.51c.1.89.23,1.78.33,2.67s.37,2,.49,3a1.62,1.62,0,0,1-.12.95,1.4,1.4,0,0,0-.08,1.1,6.07,6.07,0,0,1,.27,1.32c.3,2.63.32,5.28.47,7.93.07,1.2.18,2.4.29,3.6a20.79,20.79,0,0,0,1.1,4.66c.45,1.37,1,2.69,1.38,4.09.12.49.19,1,.31,1.48a19.32,19.32,0,0,1,.6,3.45,2.2,2.2,0,0,0,.1.58,11.87,11.87,0,0,1,.55,3.29,5.67,5.67,0,0,0,.15,1.23,13.93,13.93,0,0,1,.36,2.13,11.49,11.49,0,0,0,.39,2.17,14.77,14.77,0,0,1,.65,2.78c.13,1.17.29,2.32.41,3.49a9.09,9.09,0,0,1,.08,2.15,27.92,27.92,0,0,0,0,3.77,40.65,40.65,0,0,1-.36,6.14s0,.07,0,.11h.57c0-.23.08-.46.14-.68a3.41,3.41,0,0,0,.17-.9c0-1.18.07-2.37.05-3.56,0-1.87,0-3.74,0-5.61a5.29,5.29,0,0,0,0-.8c-.09-.61-.14-1.22-.19-1.83a32,32,0,0,0-.47-3.52c-.15-.7-.44-1.38-.56-2.08-.24-1.31-.41-2.63-.6-4a37.75,37.75,0,0,0-.6-4.21c-.44-1.69-.52-3.45-1.07-5.11a.78.78,0,0,1,0-.22,4.39,4.39,0,0,0-.51-2.06,32.42,32.42,0,0,1-1.08-3.1.62.62,0,0,1,0-.59c.15,0,.16.12.2.2.19.37.36.74.56,1.1a6.06,6.06,0,0,0,.75,1,.21.21,0,0,0,.29,0,.21.21,0,0,0,0-.25,1.89,1.89,0,0,0-.11-.25c-.19-.37-.34-.76-.56-1.1A11,11,0,0,1,99.94,90a2.78,2.78,0,0,1-.19-.89,7.86,7.86,0,0,0,0-.84,17,17,0,0,1-.57-3.69,27.4,27.4,0,0,1-.19-7.4,2.05,2.05,0,0,1-.07-.34,24.39,24.39,0,0,1-.59-3.92.5.5,0,0,1-.22-.44V71.8a4.64,4.64,0,0,1,0,.64c0-.25-.09-.49-.13-.73a1.51,1.51,0,0,0-.06-.37,6.57,6.57,0,0,1-.35-2.49,3.49,3.49,0,0,0-.12-.85,1.83,1.83,0,0,1-.07-.32c-.08-1.08-.31-2.13-.4-3.21-.11-1.36-.17-2.72-.36-4.08a1.3,1.3,0,0,1,0-.48,15.52,15.52,0,0,0,0-2.64,7,7,0,0,1,.17-1.71A9.71,9.71,0,0,0,97,53.79c.09-2.23.09-4.46.08-6.69a9.74,9.74,0,0,1,.29-1.7c.24-1.53.46-3.06.79-4.57.07-.33.11-.67.17-1,0-.13,0-.3.28-.33a.85.85,0,0,1,0,.17h.07a5.1,5.1,0,0,0,.78,0c.06-.12.2-.11.51-.08a24.75,24.75,0,0,0,3.65.12c.85,0,1.7,0,2.54-.07a10.46,10.46,0,0,0,1.77-.11l.21,0c.25,0,.34.12.28.34a6.32,6.32,0,0,1-.18.62c-.14.41-.29.81-.44,1.22a1,1,0,0,1-.58.74.42.42,0,0,0-.17.2s0,.09-.07.15c-.61,2.12-1.8,4-2.23,6.24a15.79,15.79,0,0,1-.85,3.17c-.58,1.34-.92,2.78-1.54,4.09a23.88,23.88,0,0,0-1.56,6.14c-.08.46-.14.93-.23,1.39a1.92,1.92,0,0,1-.43.91l-.09-.07c-.38.64-.68,1.33-1,2,0,.44,0,.87-.08,1.3,0,0,0,.08,0,.12.18,1.37.26,2.79.37,4.21.08.43.15.87.26,1.3.25,1,.64,1.88.94,2.8l0-.06a1.77,1.77,0,0,1,.36.53,10.06,10.06,0,0,0,1.13,1.89,12,12,0,0,1,1.39,1.7.5.5,0,0,0,.19.19c.52.32,1,.7,1.52,1A15.15,15.15,0,0,0,108,82.78c.62.2,1.26.25,1.89.39,1.11.25,2.24.36,3.35.54a1.51,1.51,0,0,1,.6.19,5.37,5.37,0,0,1,.7,0,.66.66,0,0,1,.35-.07,13.47,13.47,0,0,0,2.2,0,1.26,1.26,0,0,1,.27,0l2.3.25,4,.39.48,0,.59.06c.8.09,1.61.16,2.42.22,1.13.08,2.26.07,3.38.26.75.13,1.5.18,2.25.3a46.57,46.57,0,0,0,4.72.32c1.26.07,2.51.26,3.77.22h.35l.68,0A20,20,0,0,0,145,86a8.72,8.72,0,0,1,1-.06,17.25,17.25,0,0,0,2.69-.12,15.91,15.91,0,0,1,1.83-.1c.29,0,.37.11.21.35a17.29,17.29,0,0,0-1.67,3.26,4.8,4.8,0,0,1-.67,1.16c-.31.39-.2.76.22.83a8.52,8.52,0,0,0,1.33.19c1.41,0,2.78-.37,4.19-.33a1.09,1.09,0,0,0,.26-.05,13.65,13.65,0,0,0,1.77-.49c.43-.11.5-.07.58.37.13.65.23,1.31.33,2a2,2,0,0,1,0,.59c-.25,1.41-.33,2.83-.56,4.23a20.33,20.33,0,0,0-.09,5.17,16.72,16.72,0,0,1,0,4.47c-.32,1.74-.48,3.49-.68,5.25a13.38,13.38,0,0,1-1.54,4.8c-.82,1.52-1.79,3-2.68,4.43a5.44,5.44,0,0,1-.58.78,2.57,2.57,0,0,0-.5.76c-.1.32,0,.49.31.55a5.46,5.46,0,0,0,.69.1,26.68,26.68,0,0,1,3.35.6,8.15,8.15,0,0,0,2,.29c.47,0,.94,0,1.4,0a15.55,15.55,0,0,0,3.34-.22,3.32,3.32,0,0,1,.63-.11,10.12,10.12,0,0,0,4.5-1.69,18.55,18.55,0,0,0,2.71-2.13,50,50,0,0,0,3.95-3.76,16.66,16.66,0,0,0,2.53-3.48c.44-.81.81-1.65,1.2-2.48a27.63,27.63,0,0,0,1.9-5.72,26.17,26.17,0,0,0,.2-2.8,17.8,17.8,0,0,1,.3-1.94,4.69,4.69,0,0,1,.17-.72,4,4,0,0,1,.13-.46,27.64,27.64,0,0,0,1.1-4.39,37.87,37.87,0,0,0,.36-4.25,23.61,23.61,0,0,1,.35-3.65,30.5,30.5,0,0,0,.75-7.12c0-1.08,0-2.16,0-3.24a12.59,12.59,0,0,1,0-1.94C182.28,74.37,182.22,73.83,182.32,73.29ZM99,88.44a3.24,3.24,0,0,1-.14-1.36A2.64,2.64,0,0,1,99,88.44ZM164.46,34.6a.89.89,0,0,1,.15-1.16.28.28,0,0,1,.3,0,.26.26,0,0,1,.13.27,3.16,3.16,0,0,1-.25,1C164.68,34.65,164.57,34.73,164.46,34.6Zm1.54.28a.92.92,0,0,1-1,.29c-.26-.11-.21-.34-.19-.55a1.43,1.43,0,0,0,.52-1.11c0-.21,0-.43.08-.64s.2-.28.41-.21a.64.64,0,0,1,.42.45A2.53,2.53,0,0,1,166,34.88ZM99.87,29.13a25.66,25.66,0,0,1,.52-4.28c.37-1.32.44-2.7.76-4a15.1,15.1,0,0,1,.92-2.93.61.61,0,0,1,.07-.14,7.42,7.42,0,0,0,1.1-2.74,13.9,13.9,0,0,1,1.29-3c.33-.64.68-1.26,1-1.89a5.6,5.6,0,0,1,2-1.94c.71-.45,1.4-.94,2.08-1.43a28.63,28.63,0,0,1,3.26-2.2c.52-.28,1.1-.44,1.6-.76a5.33,5.33,0,0,1,1.9-.71A7.31,7.31,0,0,0,118,2.59,14.53,14.53,0,0,1,121,1.77c.26-.06.53-.11.78-.19A9.48,9.48,0,0,1,124,1.27c.67-.05,1.33-.15,1.81-.15a17.41,17.41,0,0,1,2.44.19c1.28.14,2.53.49,3.82.62a.71.71,0,0,1,.26.06.86.86,0,0,0,1.08-.15,1.29,1.29,0,0,1,1-.24c.86.12,1.72,0,2.58.15a4.82,4.82,0,0,0,1.92-.25,1.72,1.72,0,0,1,1.14,0,6.65,6.65,0,0,0,2.29.57,2.54,2.54,0,0,1,.93.23,3.81,3.81,0,0,0,1.71.14,4.35,4.35,0,0,1,1,.11,1.17,1.17,0,0,1,.81.58.82.82,0,0,0,.59.42A11.46,11.46,0,0,0,149,4a1.63,1.63,0,0,0,.58-.05c.73-.21.78-.25,1.37.25a3.6,3.6,0,0,0,2,.78A6.68,6.68,0,0,1,155.5,6a4.23,4.23,0,0,0,.47.25,3,3,0,0,1,.87.69,13.31,13.31,0,0,0,2.68,2.4A23.14,23.14,0,0,1,162,11a3.2,3.2,0,0,1,1.21,1.59,6.55,6.55,0,0,0,.77,1.6,23.24,23.24,0,0,1,1.26,2.49,45.63,45.63,0,0,1,1.55,4.53,11.92,11.92,0,0,1,.23,1.33c.28,1.25.23,2.54.49,3.79a3.27,3.27,0,0,1,0,1.08c-.07.75-.2,1.5-.23,2.25a3.86,3.86,0,0,1-.25,1,2.44,2.44,0,0,0-.25,1.14c0,.22-.12.32-.35.21-.07,0-.15,0-.21-.06-.75-.48-1.33,0-1.93.34a.79.79,0,0,0-.29.38c-.14.37-.4.7-.52,1.06s.11.72.15,1.09c.08.74-.05.66-.61.51-.78-.21-1.55-.45-2.32-.71s-1.81-.69-2.73-1c-.58-.19-1.12-.47-1.72-.61s-.91-.4-1.41-.51c-.19,0-.38-.13-.57-.15a15.5,15.5,0,0,1-2.41-.71,5.16,5.16,0,0,0-2.08-.46.52.52,0,0,1-.27,0c-.73-.29-1.49-.48-2.23-.76a7.94,7.94,0,0,0-1.81-.49,11.16,11.16,0,0,1-1.43-.44,27,27,0,0,0-2.95-.59c-.9-.14-1.82-.18-2.71-.4a6.9,6.9,0,0,0-2.79,0c-.71.11-1.43,0-2.15.16-.4.07-.81.06-1.22.17a6.09,6.09,0,0,1-1,0c-1.61.15-3.21.29-4.82.28a8.47,8.47,0,0,1-1.67-.09,2.45,2.45,0,0,0-.81,0,6.26,6.26,0,0,1-1.56,0,7.38,7.38,0,0,0-2.2.05,4.68,4.68,0,0,1-1.18-.06,19.44,19.44,0,0,0-3,.23,2,2,0,0,1-.69,0,4.72,4.72,0,0,0-2.39.13,4.68,4.68,0,0,1-.54.07.76.76,0,0,0-.6.31.61.61,0,0,1-.45.26c-.57.09-1.14.18-1.7.25-.31,0-.35,0-.33-.32a2.3,2.3,0,0,0,0-.26.14.14,0,0,0-.11-.17.17.17,0,0,0-.18.08l0,0c-.14.21-.22.47-.53.5a2.09,2.09,0,0,1-1.16-.13,4.36,4.36,0,0,0-1.48-.22c-.15,0-.27.1-.32.24a1,1,0,0,1-.85.59,6.69,6.69,0,0,1-2.14.14c-.31,0-.51,0-.6.36-.17.56-.69.58-1.14.65-1,.14-1.08.07-1.12-.95A10.93,10.93,0,0,1,99.87,29.13ZM105,37.89a12.15,12.15,0,0,0-2.24.28,5.88,5.88,0,0,1-1.4.06c-.51,0-1,0-1.56,0a.61.61,0,0,1-.48-.19c0-.06-.13-.15-.16-.13-.61.18-.69-.49-1.07-.68a.65.65,0,0,1-.19-.83,13.26,13.26,0,0,1,1.31-2.47c.09-.14.19-.29.39-.19s.35,0,.48-.19a1.86,1.86,0,0,0,.25-.6.18.18,0,0,1,.15-.14c.09,0,.13.07.14.14,0,.37.25.38.56.37a13.15,13.15,0,0,0,3.34-.75,18.31,18.31,0,0,1,4.24-1.19,5.1,5.1,0,0,0,1-.24c.77-.2,1.58-.15,2.35-.33s1.45-.27,2.16-.47a6.46,6.46,0,0,1,1.17-.15l3.55-.25a7.32,7.32,0,0,1,.81,0c1.16,0,2.33.08,3.5,0a15.77,15.77,0,0,1,3.22.15,3.25,3.25,0,0,0,.54,0,7.49,7.49,0,0,1,1.34.1,17.13,17.13,0,0,0,3.28.14,8.74,8.74,0,0,0,1.58-.34,12.75,12.75,0,0,1,2.61-.31,2.78,2.78,0,0,0,.86-.11,3.82,3.82,0,0,1,1.17,0,11.4,11.4,0,0,1,2.1.13c1.26.19,2.39.77,3.61,1.06a1.89,1.89,0,0,0,.74.12,4.37,4.37,0,0,1,1.68.28c.92.24,1.85.46,2.76.74A31.55,31.55,0,0,1,152.73,33a4.94,4.94,0,0,0,.78.19c1.11.24,2.14.71,3.25,1a19.71,19.71,0,0,1,2.46.82c.92.35,1.85.67,2.79,1,.69.23,1.38.49,2.07.72.21.07.32.18.23.39a5.3,5.3,0,0,0-.23.67.37.37,0,0,1-.34.3,14.15,14.15,0,0,1-1.66.3,21.49,21.49,0,0,0-2.49-.17,21.46,21.46,0,0,1-2.25-.49c-.75-.19-1.51-.33-2.26-.46a7.78,7.78,0,0,1-1.3-.36,14.17,14.17,0,0,0-2.78-.64c-.43-.07-.85-.15-1.27-.26-1.18-.31-2.38-.55-3.58-.78-.65-.13-1.31-.2-2-.32a3.13,3.13,0,0,0-.43,0c-1.71,0-3.4-.16-5.1-.28a1.74,1.74,0,0,1-.56-.11.25.25,0,0,1-.15,0,5.62,5.62,0,0,0-1-.15l-.6,0a10.26,10.26,0,0,0-1.23.13c-.05.12-.2.09-.32.09h-.65a28.41,28.41,0,0,0-3.91.24c-1.2.12-2.38.38-3.57.57-.67.11-1.32.35-2,.52a1.6,1.6,0,0,1-.42.1c-1.23,0-2.43.3-3.65.41a13.72,13.72,0,0,0-2.44.37,15.82,15.82,0,0,1-2.39.35,11.09,11.09,0,0,0-2.06.43,3.46,3.46,0,0,1-1,.12c-.4,0-.8.1-1.2.15a.22.22,0,0,1-.25,0,6.7,6.7,0,0,0-2.64-.17C107.46,37.63,106.22,37.7,105,37.89Zm34.56-2h0a1.21,1.21,0,0,1-.25.08c-1,0-1.92.28-2.88.32a8.47,8.47,0,0,1-1.13-.06,2.94,2.94,0,0,0-1.22.16l-.46.14h0a7.67,7.67,0,0,1-1.44.18l-.37.06a2.8,2.8,0,0,1-.75.09,9.59,9.59,0,0,0-2.62.11,2.44,2.44,0,0,1-.54,0,5.14,5.14,0,0,0-1.66.05,5.77,5.77,0,0,1-1,.08c-.09,0-.19,0-.22-.12s0-.21.12-.27a1.54,1.54,0,0,1,.35-.15c1.2-.28,2.4-.61,3.62-.8.29,0,.59-.09.88-.12.74-.09,1.49-.16,2.23-.21,1-.06,2,0,3.07-.06.78,0,1.55,0,2.33,0s1.29.09,1.93.13c.11,0,.23,0,.23.18S139.67,35.86,139.57,35.9Zm10.75,48.87a8.24,8.24,0,0,0-1.4.1c-1,.15-2.08.07-3.11.15a29.76,29.76,0,0,1-3.13,0c-1.45-.06-2.91-.06-4.36-.22-.8-.1-1.62-.08-2.42-.13a32.43,32.43,0,0,1-3.92-.35,13,13,0,0,0-2.77-.33c-.87,0-1.72-.12-2.58-.14s-1.43-.17-2.15-.23q-2.28-.23-4.56-.42a11,11,0,0,1-1.17-.17,5.48,5.48,0,0,0-1.93-.16,7.71,7.71,0,0,1-1.18,0,34.8,34.8,0,0,1-5.19-.59,24.87,24.87,0,0,1-3.49-.91,11.21,11.21,0,0,1-2.84-1.6,6,6,0,0,1-.88-1.08A9.71,9.71,0,0,1,101,74.46c-.3-1.43-.55-2.86-.79-4.3a22.14,22.14,0,0,1-.21-2.29,1.18,1.18,0,0,1,.23-.87,2.21,2.21,0,0,0,.3-.8c.48-1.62.75-3.3,1.09-5a3.43,3.43,0,0,1,.49-1.3,2.68,2.68,0,0,0,.4-1.17,35,35,0,0,1,1.43-4.92c1-1.68,1.23-3.63,1.86-5.44a1.4,1.4,0,0,0,0-1.2.48.48,0,0,1,0-.42,3.31,3.31,0,0,1,.43-.73c.13.15.07.4.31.38s.22-.16.28-.29a4.4,4.4,0,0,0,.18-.51,12.88,12.88,0,0,1,.58-1.57A4.59,4.59,0,0,0,108,43a5.88,5.88,0,0,1,.62-1.84c.27-.5.59-1,.9-1.46a1.24,1.24,0,0,1,.91-.44c1.24-.17,2.48-.36,3.74-.48,1.43-.14,2.86-.28,4.29-.37.73,0,1.44-.27,2.19-.3a23.24,23.24,0,0,1,3.44,0,6.33,6.33,0,0,0,2-.1,8.62,8.62,0,0,1,2.15-.06,3.06,3.06,0,0,0,.91,0,4.39,4.39,0,0,1,1.08-.1,15,15,0,0,0,4.37-.5,2.87,2.87,0,0,1,1,0,6.38,6.38,0,0,0,1.51,0l3.26-.4c.41,0,.81-.14,1.22-.21a13.15,13.15,0,0,1,3.49.06c.59.06,1.19.08,1.78.16.89.11,1.78.23,2.66.39a5.36,5.36,0,0,0,1.12.14,10.58,10.58,0,0,1,2.18.28c.58.12,1.15.3,1.73.4s.88.2,1.32.3.51.21.5.63a8.78,8.78,0,0,1-.09,1c0,.2-.05.39-.08.65.29-.23.19-.58.4-.79a.73.73,0,0,1,.1.47c.12,2.21.3,4.42.25,6.63,0,1.55,0,3.1-.18,4.64a.79.79,0,0,0,.18.75.63.63,0,0,1,.15.56c-.06,1.22-.11,2.44-.24,3.66s-.31,2.39-.44,3.59c-.16,1.45-.51,2.87-.74,4.31a4.56,4.56,0,0,1-.93,1.75c-.14.22-.44.42-.28.7s.52.11.79.08c.91-.11,1.81-.24,2.73-.33.42,0,.43,0,.33.41-.4,1.58-.75,3.18-1.2,4.76a24.48,24.48,0,0,0-.79,3.69,8.79,8.79,0,0,1-.73,2.13c-.5,1.2-.81,2.47-1.36,3.65a9.22,9.22,0,0,1-1.33,2.21,2.32,2.32,0,0,0-.46.73.72.72,0,0,1-.7.48A8.55,8.55,0,0,1,150.32,84.77Zm-35.65.7a7.31,7.31,0,0,1,.17,1.81c0,.92-.1,1.84-.06,2.76.07,1.8-.1,3.59-.2,5.39-.11,2.27-.65,4.48-1,6.73-.16,1.08-.43,2.15-.54,3.24-.08.79-.08,1.59-.2,2.37a17.3,17.3,0,0,0-.24,3c0,2.17-.06,4.35,0,6.53s.15,4.42.32,6.62a38.42,38.42,0,0,1,.19,4.15c0,.16,0,.32,0,.48a9.13,9.13,0,0,1,0,1.81h.67a.09.09,0,0,0,0,0,4,4,0,0,0,.06-1c-.15-1.56,0-3.13-.19-4.69-.1-1-.17-2.11-.26-3.17,0-.3-.08-.61-.1-.91-.13-1.85-.1-3.71-.11-5.56a55.7,55.7,0,0,1,.42-8.46c.07-.42,0-.86.1-1.29.31-2,.67-4,1-6a54.66,54.66,0,0,0,.71-7c0-1-.06-2.09,0-3.13a7.8,7.8,0,0,0-.67-4.35A.68.68,0,0,0,114.67,85.47Zm-7.25,44.74a.52.52,0,0,1-.1.11h1C108,129.72,107.78,129.77,107.42,130.21Z"/><path d="M98.08,71.68v.12s0,0,0-.07A.09.09,0,0,0,98.08,71.68Z"/><path d="M181.85,105c0,.84.23,1.66.21,2.51a12.39,12.39,0,0,1,0,2.51,1.23,1.23,0,0,0,0,.54,2.48,2.48,0,0,1,0,.86,17.48,17.48,0,0,0,.11,2.29,2.15,2.15,0,0,1,0,.8,1.38,1.38,0,0,0-.07.64,7.52,7.52,0,0,1,0,1.5c0,.25-.05.5,0,.75,0,1.19-.08,2.37-.08,3.56a21.23,21.23,0,0,0,.14,2.25,7.66,7.66,0,0,1,.21,1,18.94,18.94,0,0,0,0,2.26,17.16,17.16,0,0,1-.29,3.2c0,.16,0,.32,0,.49a5,5,0,0,1,.67,0,4.91,4.91,0,0,0,.17-.63l.42-2.77a10.19,10.19,0,0,0-.32-3.52,5,5,0,0,1-.13-1c0-.76,0-1.51,0-2.27a9.64,9.64,0,0,1,.13-1.93,3.26,3.26,0,0,0,.05-1.08,13.29,13.29,0,0,1,0-2.36c0-1,.06-1.9.07-2.86a21.65,21.65,0,0,1,.12-3,2.6,2.6,0,0,0-.15-1.58,3,3,0,0,1-.16-.73c-.21-1.17-.19-2.36-.47-3.51a1.56,1.56,0,0,0-.36-.82,2.19,2.19,0,0,1-.31-.44,3.17,3.17,0,0,0-.74-.85,5.19,5.19,0,0,0-1.18-.74,1.24,1.24,0,0,1-.2-.1,1.12,1.12,0,0,1-.33-.22l-.12.79.05,0a1,1,0,0,0,.23.13,7.68,7.68,0,0,1,1.2.73c.23.2.56.43.58.68a3.53,3.53,0,0,0,.41,1.18A4.74,4.74,0,0,1,181.85,105Z"/><path d="M145.7,93.22a3.73,3.73,0,0,1,.36-.32,4.26,4.26,0,0,1,2.07-1c.15,0,.38,0,.35-.23s-.24-.25-.43-.24A4,4,0,0,0,146,92c-.25.15-.49.3-.74.43s-.23.07-.28,0a.31.31,0,0,1-.3-.11,2.28,2.28,0,0,1-.38-.84c-.16-.14-.24-.37-.5-.4-.11,0-.15-.19-.2-.3a11.28,11.28,0,0,1-.29-1.25,5.85,5.85,0,0,0-.62-2.14,3.68,3.68,0,0,1-.34-1.18,4.53,4.53,0,0,0-.25-.87v0l-.21,0a.24.24,0,0,1-.21.15c-.15,0-.13.16-.11.26a1.46,1.46,0,0,0,.15.46,12.74,12.74,0,0,1,.5,2.2c.29.89.58,1.77.84,2.67a5.2,5.2,0,0,0,.92,1.38c.31.48.32.58-.15.9a11.71,11.71,0,0,1-2.62,1.38,6.39,6.39,0,0,1-1.85.3,25,25,0,0,1-3.34.18c-1.33-.1-2.65,0-4,0a31.31,31.31,0,0,1-5.45-.65,1.19,1.19,0,0,1-.51-.17,3.27,3.27,0,0,0-1.37-.58,7.81,7.81,0,0,1-1.9-.88,6.3,6.3,0,0,0-.84-.37,2.55,2.55,0,0,1-.84-.57,1.1,1.1,0,0,1-.11-.14,5.37,5.37,0,0,0-.65.29,2.58,2.58,0,0,1,.42,1l.87.26c.07-.1.19,0,.49.09a7.11,7.11,0,0,1,2,1.07.47.47,0,0,0,.23.12,1.26,1.26,0,0,1,.64.27.74.74,0,0,0,.4.14,9,9,0,0,1,2,.37c1.08.24,2.18.2,3.26.37,1.57.24,3.16,0,4.73.13a14,14,0,0,0,1.94,0,20.23,20.23,0,0,0,2.58-.2,3.89,3.89,0,0,1,1.27-.16.76.76,0,0,0,.46-.12A14.86,14.86,0,0,0,144,94.23a5.12,5.12,0,0,1,.52-.27.41.41,0,0,1,.37,0c.25-.16.48-.33.72-.49A.51.51,0,0,1,145.7,93.22Z"/><path d="M124.59,85.43a16.16,16.16,0,0,0-.5,2.51c-.29,1-.59,2-.84,3.06a6.18,6.18,0,0,1-.92,1.58,1.36,1.36,0,0,0-.22.56,3.47,3.47,0,0,0-.45-.06l-.09,0a2,2,0,0,1-.31-.49.14.14,0,0,0,.06-.07.26.26,0,0,0,.3-.12,3.06,3.06,0,0,0,.38-1c.16-.17.24-.42.5-.46.11,0,.15-.21.19-.35a11.72,11.72,0,0,0,.3-1.43,7.43,7.43,0,0,1,.62-2.45,4.69,4.69,0,0,0,.34-1.35,5,5,0,0,1,.25-1v0l.21,0c0,.09.08.15.21.18s.13.18.11.3A2.46,2.46,0,0,1,124.59,85.43Z"/><path d="M122.58,93.3a6.6,6.6,0,0,1,0-.77c-.28,0-.56-.11-.83-.18a1.19,1.19,0,0,1-.51-.17,3.27,3.27,0,0,0-1.37-.58,7.81,7.81,0,0,1-1.9-.88,6.3,6.3,0,0,0-.84-.37,2.55,2.55,0,0,1-.84-.57,1.1,1.1,0,0,1-.11-.14,5.37,5.37,0,0,0-.65.29,2.58,2.58,0,0,1,.42,1l.87.26c.07-.1.19,0,.49.09a7.54,7.54,0,0,1,2,1.07.43.43,0,0,0,.23.12,1.26,1.26,0,0,1,.64.27.72.72,0,0,0,.4.14,9.13,9.13,0,0,1,2,.37Z"/><path d="M96.59,93.21a2.41,2.41,0,0,0,0,.38l.74-.44a.44.44,0,0,1,.28-.55c.32-.16.31-.24,0-.52,0,0-.14-.08-.13-.11a1.61,1.61,0,0,0-.08-.48l-1,.13a3.26,3.26,0,0,0-1,1.28,3.14,3.14,0,0,1-.49.77,1.12,1.12,0,0,0-.35.69,6.55,6.55,0,0,1-.44,1.51c0,.12-.08.23-.11.35a.42.42,0,0,0,.24.55.4.4,0,0,0,.52-.17,2.16,2.16,0,0,0,.33-.78,6.07,6.07,0,0,1,1.09-2.41C96.34,93.3,96.37,93.13,96.59,93.21Z"/><path d="M123.86,52.94l-.51-2.37a.85.85,0,0,0-.13-.31,7.94,7.94,0,0,1-.82-1,11.62,11.62,0,0,0-.87-1,1.41,1.41,0,0,1-.23-1.55.55.55,0,0,0,.07-.28.41.41,0,0,0-.23-.37.36.36,0,0,0-.41.13.59.59,0,0,0-.17.42c0,.24,0,.47,0,.71a1,1,0,0,0,.16.63c.06.1.17.19.1.35-.25,0-.43-.09-.49-.37s-.15-.42-.22-.63a1,1,0,0,1,.17-1.19,1.13,1.13,0,0,0,.1-.13.29.29,0,0,0-.2-.45.4.4,0,0,0-.32.05,1,1,0,0,0-.51.68c0,.5-.25,1,.07,1.49,0,0,0,0,0,.1a2,2,0,0,1-.62-.84.67.67,0,0,1-.11-.67.67.67,0,0,0,0-.37.25.25,0,0,0-.44-.15.57.57,0,0,0-.25.55,1.79,1.79,0,0,0,.41,1.06c.1.11.18.25.29.36a.13.13,0,0,1,0,.21c-.16.07-.33.13-.45,0a.46.46,0,0,0-.38-.22.31.31,0,0,1-.26-.19,1.59,1.59,0,0,1-.27-.69c0-.18,0-.37,0-.55s-.29-.41-.44-.38-.2.21-.22.37a.67.67,0,0,0,0,.2,2.17,2.17,0,0,0,.57,1.45s.13.1.09.21c-.65.16-.73.13-1.08-.43a2.69,2.69,0,0,1-.16-.29,2.66,2.66,0,0,1-.26-.75.26.26,0,0,0-.29-.23c-.15,0-.34.22-.32.33a1.94,1.94,0,0,0,.65,1.27,1.64,1.64,0,0,1,.28.31.3.3,0,0,1,0,.31,2.66,2.66,0,0,1-.39.43s-.1,0-.14,0a2.8,2.8,0,0,1-1.3-2c0-.12,0-.22-.19-.24a.26.26,0,0,0-.3.23,1.26,1.26,0,0,0,.33,1.18c.09.09.24.15.27.25a2.28,2.28,0,0,0,.67.89c.16.17.15.27,0,.42a1.54,1.54,0,0,0-.49.94.15.15,0,0,1-.07.14c-.2.14-.19.36-.23.56s0,.2-.07.28a.54.54,0,0,0,0,.63.91.91,0,0,1,.07.64,3.81,3.81,0,0,0,0,.83c0,.25,0,.5.06.75a3.7,3.7,0,0,0,.19,1.15,1.76,1.76,0,0,1,.17.55.57.57,0,0,0,.08.23,7.25,7.25,0,0,0,.58.76,3.47,3.47,0,0,0,1.08.9,3.21,3.21,0,0,0,2.11.37c.52-.09,1-.22,1.54-.36a4,4,0,0,0,1.47-.68c.22-.19.44-.38.67-.56a4.78,4.78,0,0,0,1.71-4S123.86,53,123.86,52.94Zm-1.48,2.92a5.19,5.19,0,0,1-2,1.6,9.61,9.61,0,0,1-1.77.47,3.67,3.67,0,0,1-1.28,0,2.65,2.65,0,0,1-1.54-.94,2.54,2.54,0,0,1-.73-1.12c.07-.09.12,0,.16,0a6.8,6.8,0,0,0,2.17.82,2.71,2.71,0,0,0,1.23.18,9.88,9.88,0,0,0,1.5-.35,2.11,2.11,0,0,1,.56-.15,2.94,2.94,0,0,0,1-.41c.27-.14.53-.3.79-.45l.06,0A1.69,1.69,0,0,1,122.38,55.86Zm.83-2.31-.06.45c0,.2,0,.42-.33.37-.12,0-.28.16-.41.27a5.07,5.07,0,0,1-1.37.92,1.11,1.11,0,0,1-.16.07c-.66.19-1.33.38-2,.55a3.36,3.36,0,0,1-1.8-.2,9.85,9.85,0,0,1-1.39-.56.6.6,0,0,1-.34-.3.46.46,0,0,0-.36-.36c-.11,0-.14-.09-.14-.18,0-.61-.21-1.2-.2-2a4,4,0,0,1,.22-1.53,2.17,2.17,0,0,1,.38-.64,4.24,4.24,0,0,1,1.36-1.27.55.55,0,0,1,.15-.08c.42,0,.74-.33,1.13-.44a4.2,4.2,0,0,1,1.69-.09,6.26,6.26,0,0,1,1.64.46,1.2,1.2,0,0,1,.46.34c.3.38.65.72.93,1.12a2,2,0,0,1,.29.94,3.69,3.69,0,0,0,.2.81A2.69,2.69,0,0,1,123.21,53.55Z"/><path d="M147.31,50a.37.37,0,0,0,.14-.38,1.63,1.63,0,0,0-.27-.6.63.63,0,0,0-.55-.24.21.21,0,0,0-.23.24c0,.13,0,.25.16.31a.31.31,0,0,1,.2.34,1.71,1.71,0,0,1-.52,1,.28.28,0,0,1-.11-.26.25.25,0,0,0-.09-.22c-.11-.1-.32-.14-.31-.31a1.4,1.4,0,0,1,.21-.4,1.74,1.74,0,0,0,.11-.18.92.92,0,0,0,0-.88c-.07-.12-.12-.29-.29-.26a.42.42,0,0,0-.33.34.67.67,0,0,0,0,.2c.14.51-.27.71-.54,1,0-.19.08-.32.15-.46a1,1,0,0,0,0-1.16c-.09-.1-.1-.29-.29-.24s-.19.22-.2.38,0,.11,0,.17a2.82,2.82,0,0,1-.38,1c-.08.15-.24.11-.37,0s0-.19,0-.28.26-.39.38-.6a.83.83,0,0,0-.24-1.13c-.13-.09-.23,0-.34,0a.16.16,0,0,0,0,.25c.2.31,0,.55-.12.8s-.57.46-.69.82a.15.15,0,0,1-.22.06.14.14,0,0,1,0-.22,2.7,2.7,0,0,1,.28-.31,1.09,1.09,0,0,0,.25-1.31.42.42,0,0,0-.49-.29c-.15.06-.2.26-.12.51a1.59,1.59,0,0,1,.07.2,1.16,1.16,0,0,1,0,.37c0,.2-.34.48-.45.41s-.17-.29-.14-.48a.7.7,0,0,0-.35-.73.22.22,0,0,0-.34.17,1.06,1.06,0,0,0,0,.25,2.36,2.36,0,0,1-.47,1.46c-.08-.07-.06-.11-.05-.15a.61.61,0,0,0-.4-.78c-.08,0-.17-.07-.24,0a.2.2,0,0,0,0,.23.75.75,0,0,1,0,.57.82.82,0,0,0-.07.33c.07.27-.1.41-.27.55l-.34.25a1.88,1.88,0,0,0-.53.52A11,11,0,0,0,138,53c-.15.57-.3,1.13-.46,1.69a.39.39,0,0,0,0,.32,1.19,1.19,0,0,1,.13.48c.05.3-.06.7.16.88s.41.57.74.74a5.36,5.36,0,0,0,1.29.46,8.93,8.93,0,0,0,2.77.3,4.82,4.82,0,0,0,1.83-.37,7.45,7.45,0,0,0,2-1.42,2,2,0,0,0,.69-1.91,1.29,1.29,0,0,1,0-.34,3.76,3.76,0,0,0-.47-2.25l-.06-.12c0-.08-.11-.18,0-.27s.18-.07.3,0,.21,0,.13-.15-.07-.35,0-.53A1.41,1.41,0,0,1,147.31,50ZM141.8,49s0,.07,0,.09,0,.13-.07.14a.07.07,0,0,1-.08-.07C141.7,49.11,141.71,49,141.8,49Zm3.64,7.09a4.77,4.77,0,0,1-3.12,1.11,13.31,13.31,0,0,1-2.83-.39.75.75,0,0,1-.58-.38.35.35,0,0,0-.17-.17.76.76,0,0,1-.4-.6c0-.15-.14-.24-.18-.38.14-.09.24,0,.35,0a10.68,10.68,0,0,0,1.84.51,18.19,18.19,0,0,0,3.13.06,10.92,10.92,0,0,0,2.4-.51.8.8,0,0,1,.21,0s0,0,.08,0A2.9,2.9,0,0,1,145.44,56.11Zm1.12-3.21a1.16,1.16,0,0,1,0,.37,3,3,0,0,0,0,.67c.06.44,0,.56-.45.71a10,10,0,0,1-3.46.69,19.22,19.22,0,0,1-2.83-.19,1.89,1.89,0,0,1-.51-.16,1.35,1.35,0,0,0-.69-.12c-.35,0-.48-.11-.46-.47a4.31,4.31,0,0,1,.25-1.06c.19-.56.41-1.12.63-1.68a2.9,2.9,0,0,1,1-1.17.25.25,0,0,1,.12,0,2.73,2.73,0,0,0,1.18-.31l.08,0c.73.07,1.41-.31,2.13-.22.06,0,.13,0,.17,0,.47.31,1.09.17,1.56.5a1.1,1.1,0,0,1,.34.3A7.35,7.35,0,0,1,146.56,52.9Z"/><path d="M136.33,70.86c-.35.18-.62,0-.93,0a.66.66,0,0,0-.55.06c.28.12.51.21.73.32s.24.24,0,.38-.38.19-.58.28a19.17,19.17,0,0,1-3.16.86,7.51,7.51,0,0,1-1.17.19c-.73.06-1.47.08-2.2.12A9.3,9.3,0,0,1,127,73c-1.06-.14-2.09-.36-3.13-.56a3.7,3.7,0,0,1-1.69-.67c-.34-.28-.74-.47-1.09-.72s-.51,0-.49.31a.83.83,0,0,0,.34.59,1.3,1.3,0,0,1,.51,1.12,3.06,3.06,0,0,0,.44,1.5,3.88,3.88,0,0,0,.72,1.21c.38.4.62.93,1.26,1a.69.69,0,0,1,.27.16,4.51,4.51,0,0,0,2.45.86,8.18,8.18,0,0,0,4-.55,12.17,12.17,0,0,0,1.45-.58,8.91,8.91,0,0,0,1.7-1.3c.52-.5,1-1,1.5-1.55A3.75,3.75,0,0,0,136,72.7a1.49,1.49,0,0,1,.69-.73,2.05,2.05,0,0,0,.36-.24.25.25,0,0,0,.11-.27C137.08,71.09,136.64,70.7,136.33,70.86Zm-5.07,5.21a9.1,9.1,0,0,1-4.91.89,5.65,5.65,0,0,1-2-.69,3.79,3.79,0,0,1-1.76-1.8,4.15,4.15,0,0,1-.44-1.24c.31,0,.61.25.82-.14,0-.1.2,0,.3,0a30.23,30.23,0,0,0,4.13.72,16.43,16.43,0,0,0,1.72,0,20.82,20.82,0,0,0,5.14-.83c.21-.06.4-.24.7-.18A13.12,13.12,0,0,1,131.26,76.07Z"/><path d="M128.76,65.77c-.32.07-.52-.12-.68-.38s-.12-.44.17-.62a2.33,2.33,0,0,1,.52-.27.68.68,0,0,1,.93.44.71.71,0,0,1-.6.8A1.72,1.72,0,0,1,128.76,65.77Z"/><path d="M94.85,40.11s0,.08,0,.08a.09.09,0,0,1-.11-.08.11.11,0,0,1,0-.08C94.82,40,94.84,40.05,94.85,40.11Z"/><path d="M118.53,51.64a1.72,1.72,0,0,0-.83-.85,2.55,2.55,0,0,0-1.47-.07c-.23.05-.45.17-.68.22a.51.51,0,0,0-.44.48c0,.37,0,.72,0,1.08,0,.18.2.27.27.41a1.81,1.81,0,0,0,1.15.94,1.37,1.37,0,0,0,1.4-.27,8.11,8.11,0,0,1,.59-.58c.11-.07.12-.21.13-.34s0-.25,0-.37A1,1,0,0,0,118.53,51.64Zm-2.29,1.63a1.81,1.81,0,0,1,1,.2A1.24,1.24,0,0,1,116.24,53.27Zm1.72-.46c-.28.35-.35.46-.68.13a1.42,1.42,0,0,0-.57-.26,2.59,2.59,0,0,1-.78-.39.56.56,0,0,1-.19-.64.45.45,0,0,1,.51-.34c.18,0,.28-.09.42-.11a1.2,1.2,0,0,1,1.4,1.06A.77.77,0,0,1,118,52.81Z"/><path d="M122.27,51.35a5.61,5.61,0,0,0-.54-1c-.11-.2-.23-.35-.47-.25H121c-.11,0-.22,0-.33.06a1.26,1.26,0,0,0-1,1.67,1.06,1.06,0,0,0,.41.65,1.63,1.63,0,0,0,1.74,0A1,1,0,0,0,122.27,51.35Zm-.62.46a.89.89,0,0,1-1.19.33.39.39,0,0,1-.21-.3,1.88,1.88,0,0,1,0-.58c0-.22.09-.26.31-.19s.18.13.24,0-.07-.16-.15-.21-.1-.05-.1-.15a.78.78,0,0,1,.61-.1.53.53,0,0,1,.12,0A1.22,1.22,0,0,1,121.65,51.81Z"/><path d="M142.77,53a2.13,2.13,0,0,0-1.14-1.2.48.48,0,0,0-.29,0,.93.93,0,0,1-.52-.07.69.69,0,0,0-.68,0,1.22,1.22,0,0,0-.63.79c0,.24,0,.49-.07.74a.5.5,0,0,0,.1.44,1.51,1.51,0,0,0,1.39.65,2.32,2.32,0,0,0,1.67-.71A.55.55,0,0,0,142.77,53Zm-.81.36a2,2,0,0,1-1.7.31.38.38,0,0,1-.25-.2,1.34,1.34,0,0,1,.26-1.38c0,.36.08.42.34.32a1.49,1.49,0,0,1,1.32.26A.39.39,0,0,1,142,53.33Z"/><path d="M145.35,52.49c-.07-.4-.28-.59-.67-.55a6.32,6.32,0,0,1-.75.06.79.79,0,0,0-.4.13.62.62,0,0,0-.15.88c.23.2.4.46.62.67a1.44,1.44,0,0,0,.8.32c.45.06.74-.24.74-.77A4.25,4.25,0,0,0,145.35,52.49Zm-.28,1a.27.27,0,0,1-.3,0,2,2,0,0,1-.84-.51c-.15-.16-.12-.26.09-.31a2.12,2.12,0,0,1,.33,0,.68.68,0,0,1,.76.51C145.14,53.26,145.17,53.38,145.07,53.47Z"/><path d="M116.57,51.83s-.06-.06-.07-.1,0-.08.06-.06.06,0,.06.09Z"/><path d="M125.42,37.36c2.38-.32,4.94-.1,7.35-.25s4.67-.34,7-.53a.51.51,0,0,0,.25-.94c-1.58-1-4.34-.62-6.15-.61a35.31,35.31,0,0,0-7.34.48c-.63.14-.36,1.1.27,1a31.31,31.31,0,0,1,6.12-.45c1.66,0,5.18-.46,6.59.48l.26-.93c-2.65.21-5.29.43-7.94.58-2.21.13-4.48-.06-6.67.24-.64.09-.37,1.05.26,1Z"/></g></g></svg>