<svg xmlns="http://www.w3.org/2000/svg" viewBox="0 0 152.49 131.92"><title>simon-kathi</title><g id="Lager_2" data-name="Lager 2"><g id="invitation_2" data-name="invitation 2"><path d="M9.87,47.3A3.09,3.09,0,0,0,12,46.45a3.27,3.27,0,0,0,1-2.2c0-.19-.05-.27-.28-.28a7.64,7.64,0,0,1-3.34-.87c-.18-.09-.47,0-.45-.35s-.06-.44.43-.43a2.11,2.11,0,0,0,2-.88,5.88,5.88,0,0,0,.92-2.09A13.84,13.84,0,0,0,12.49,36c-.05-.83-.06-1.66-.12-2.5,0-.52.09-1.08,0-1.62-.11-.88,0-1.76-.13-2.65a16.7,16.7,0,0,1,0-2.74A8.91,8.91,0,0,1,12.53,25c.16-.75.13-1.53.26-2.3.23-1.35.33-2.72.53-4.08a5.83,5.83,0,0,1,.49-1.6c.53-1.1.6-2.35,1.16-3.43a13.56,13.56,0,0,1,2.53-4A16.36,16.36,0,0,0,19,7.93a6.39,6.39,0,0,1,2.12-1.48,8.56,8.56,0,0,1,1-.58c.55-.2,1.21,0,1.69-.43,0,0,.2.08.3.11s.63.15.69,0c.24-.5.78-.63,1.07-1,.09-.13.22-.31.13-.48s.09-.52.05-.93c.28.38.2.71.34,1a6.67,6.67,0,0,0,1.9-1.6c.16-.18.28-.37.57-.41s.64-.36.93-.57A9.49,9.49,0,0,1,33.62.14c2-.41,3.85.2,5.77.28a7.7,7.7,0,0,1,2.33.35,25.51,25.51,0,0,0,2.43.79c1.37.37,2.75.67,4.11,1,.94.26,1.9.5,2.83.82.72.25,1.48.37,2.19.62a4.94,4.94,0,0,1,1.76,1,6,6,0,0,0,1.06.75A4.42,4.42,0,0,1,57.31,7a4.59,4.59,0,0,0,.84.74c.22.17.49.31.58.58a19.62,19.62,0,0,0,1.5,2.29,12.57,12.57,0,0,0,1.13,1.82c.35.45.65.94,1,1.39a8.78,8.78,0,0,1,1.74,2.85,4.14,4.14,0,0,0,.74,1.11,14.5,14.5,0,0,1,1.24,2.12c.11.23.29.41.42.64a9.62,9.62,0,0,1,.58,2.29c.33,1.23.44,2.5.73,3.74a3.78,3.78,0,0,1,.08,1.05,13.87,13.87,0,0,0,.34,2.25,9.42,9.42,0,0,1,.06,1.06c0,.94,0,1.87,0,2.8a15.78,15.78,0,0,0-.06,2.17,12.18,12.18,0,0,1-.19,2.41c0,.46-.38.86-.32,1.36a4.77,4.77,0,0,1-.24,1.39,7.19,7.19,0,0,1-.76,1.79c-.36.75-1.07,1.3-1.32,2.1-.31,1-1.17,1.58-1.56,2.47-.21.49-.37,1-.54,1.5a8.31,8.31,0,0,0-.48,4.33c0,.26.28.48,0,.83-.1.15.21.6.36.9s.15.39.24.57a.84.84,0,0,1-.08.73c-.33-.06,0-.34-.17-.44-.19.1,0,.3-.14.47-.89-.37-1.78-.74-2.68-1.09A2.47,2.47,0,0,1,59,54.28a.38.38,0,0,0-.31-.1c-.16,0-.06.19-.09.29s.1.41-.19.49a.05.05,0,0,0,0,.1c.37.11.26.44.32.68a2.34,2.34,0,0,0,.78,1.4c.26.2.18.31.1.5s-.46.26-.73.26a21.84,21.84,0,0,1-3.28-.64c-.15,0-.28-.12-.18-.31a.45.45,0,0,0,0-.36c-.93.66-1.37,1.74-2.22,2.44-.2.17-.11.7-.57.48-.28.51-.37,1.14-1.07,1.31a.15.15,0,0,0-.07.1,1.78,1.78,0,0,1-1,1.23,3.67,3.67,0,0,0-1.41,1.46,1.19,1.19,0,0,1-.75.67.37.37,0,0,0-.31.4,12,12,0,0,1-.28,2.39c-.1.66-.09,1.32-.16,2,0,.38.37,0,.4.25,0,0,.29-.16.32.1a.45.45,0,0,1-.3.5c-.7.08-.32.61-.42.94,0,.07.1.19.08.26a.88.88,0,0,0,.18,1,2.85,2.85,0,0,0,1.41.87,11.68,11.68,0,0,1,2.06.64,11.12,11.12,0,0,1,2,.93c.66.42,1.34.85,2,1.32.39.28.93.39,1.32.7A19,19,0,0,0,59.17,78a12.49,12.49,0,0,1,1.86,1c.5.39,1.16.56,1.56,1.09.18.25.56.22.74.52.05.09.44,0,.16.29,0,0,.07.08.1.07a1.09,1.09,0,0,1,1,.66c.11.2.27.12.39.21.65.51,1.31,1,2,1.5a7.44,7.44,0,0,0,.79.42,10.23,10.23,0,0,1,2.85,2.3c.45.47.92.91,1.34,1.41A5.17,5.17,0,0,1,73,89.35c0,.2.35.43.52.67a4.14,4.14,0,0,1,.67,1.91,15.43,15.43,0,0,0,.58,1.74,18.52,18.52,0,0,1,.41,2.67c0,.3.15.6.17.9s.22.4-.08.54a.12.12,0,0,0,0,.2c.38.21.21.61.25.9,0,.12.13.09.13.21,0,.86.16,1.72.22,2.58a20.8,20.8,0,0,1,.1,2.23c0,.86.06,1.74-.05,2.57-.07.56,0,1.11-.09,1.63a1.84,1.84,0,0,1-.2.77c-.13.18.15.3.14.51,0,.41-.33.75-.25,1.16,0,.25.07.62,0,.69-.44.27.14.87-.39,1.06.3.45-.08.85-.08,1.28,0,.22-.1.43-.1.66s.07.29-.17.27-.15.14-.09.19.13.32,0,.45c-.31.42,0,.9-.18,1.36s-.23,1.11-.4,1.65c-.12.35-.4.66-.3,1s-.08.78,0,1.17-.21.81-.2,1.26a3.53,3.53,0,0,1-.2,1.33,9.33,9.33,0,0,1-.4,1.34,2,2,0,0,0,0,.71,5.41,5.41,0,0,1-.27,1.2,14.54,14.54,0,0,0-.39,1.83c0,.18,0,.47-.3.5,0,0,0,.08,0,.09.38.42-.14.8,0,1.31-.23-.19-.07-.31-.12-.42a3.7,3.7,0,0,1-.11-1.08c.15-1,.48-2,.68-3,.08-.36.11-.73.19-1.1.19-.93.36-1.86.52-2.79s.23-1.62.41-2.43.23-1.65.41-2.48c.21-1,.35-2,.51-3a12.46,12.46,0,0,1,.61-2.71,7.51,7.51,0,0,0,.23-1.88c.12-1.14.09-2.3.13-3.44a28.45,28.45,0,0,0-.11-3.57c-.06-.77-.07-1.57-.17-2.33a16,16,0,0,0-.51-2.55A4.83,4.83,0,0,1,74.56,96a13.21,13.21,0,0,0-.68-3.35,11.89,11.89,0,0,0-1-2.74A10.07,10.07,0,0,0,71,87.37c-.44-.42-.79-.94-1.24-1.35a7.21,7.21,0,0,0-1.87-1.37l-.05,0c-.79-.93-2-1.16-2.94-2a13.09,13.09,0,0,0-1.8-1.51,28.59,28.59,0,0,0-4-2.52,9.35,9.35,0,0,1-2.83-1.81,3.75,3.75,0,0,0-1-.54c-.45-.22-.89-.49-1.36-.67a3.23,3.23,0,0,1-.74-.53,9,9,0,0,0-1.81-1,11.06,11.06,0,0,1-1.87-.75,3,3,0,0,0-1.06-.24,1.22,1.22,0,0,1-.81-.37c-.09-.12-.19-.13-.28,0a.14.14,0,0,0,0,.22c.66.3.2.71.1,1.08a1.86,1.86,0,0,1-.24.46c-.14-.33-.21-.38-.48-.08a7.21,7.21,0,0,1-2.22,1.4,4.2,4.2,0,0,1-2.12.66c-1.06,0-2.1.09-3.16.11-.22,0-.3.08-.28.28.06.52-.3,1-.11,1.54,0,.15-.05.3-.14.47-.41-.68.16-1.49-.31-2.13-.27.08,0,.27-.12.36a.27.27,0,0,1-.28-.22c-.09-.45-.45-.48-.8-.6a18,18,0,0,1-2.69-1.09c-.66-.37-1.31-.8-2-1.22a6.29,6.29,0,0,0-1.93-.88,1.06,1.06,0,0,1-.52-.23,1.1,1.1,0,0,0-1.35-.2c-1.1.5-2.26.83-3.37,1.31-.84.37-1.62.87-2.49,1.18-.67.24-1.3.65-2,.86s-1.09.64-1.66.81-1.17.79-1.84,1c-.44.15-.86.38-1.3.54-.13,0-.38.08-.43-.11a.37.37,0,0,1,.26-.41,39.87,39.87,0,0,0,4.09-2c1-.53,2.09-1,3.12-1.47a31,31,0,0,1,4.29-1.78,4.61,4.61,0,0,0,1.71-1,.53.53,0,0,0,.16-.44c-.08-.5.25-1,.08-1.47a.49.49,0,0,1,0-.24c.18-.67.19-.68-.46-.93-.23-.09-.48-.19-.33-.45a.48.48,0,0,1,.6-.23c.4.22.38,0,.43-.32.09-.5-.07-1,.33-1.5a.64.64,0,0,0,.07-.51,17.31,17.31,0,0,1,.07-2c0-.67,0-1.31-.72-1.72s-.93-1-1.62-1.18c-.19,0-.34-.33-.45-.5-.54-.83-1.47-1.26-2-2.08a4.76,4.76,0,0,0-.5-.79,3.36,3.36,0,0,1-.68-.77c-.18-.39-.43-.34-.82-.13a5.75,5.75,0,0,1-2.73.65,5.13,5.13,0,0,1-2.5-.6c-.14-.07-.32-.06-.33-.25a.41.41,0,0,1,.28-.35c.62-.14.64-.74.85-1.15s.41-.58.36-.92a4.58,4.58,0,0,0-.64-1.68c-.11-.19-.23-.27-.39,0s-.46.32-.46.65c0,0-.15.15-.18.13-.42-.22-.61.17-.79.36a4.55,4.55,0,0,1-2,1,.7.7,0,0,1-.66-.22c-.12-.1-.12-.23,0-.29.26-.13.29-.42.46-.59a3.12,3.12,0,0,0,.83-2.15c0-.59.16-1.17.15-1.77,0-.32,0-.34-.42-.29-.6.1-1.09.57-1.78.43a7.63,7.63,0,0,1-2.73-1C10.26,47.94,9.85,47.83,9.87,47.3ZM23.71,19.5c-.31.11-.38.39-.49.64a.2.2,0,0,0,0,.18.1.1,0,0,0,.16,0c.08-.27.42-.45.27-.8a1.08,1.08,0,0,0,.57-.89c.62-.84,1.09-1.76,1.63-2.65.07-.13.22-.26.05-.37s-.25.07-.34.2a12.82,12.82,0,0,0-1.08,1.82c-.13.27-.35.51-.31.85-.22.08-.29.31-.38.47S23.45,19.25,23.71,19.5Zm-1.3,36.24c.28-.05.45-.3.71-.39s.17-.12.1-.28-.24-.1-.32,0a1.69,1.69,0,0,0-.48.7c-.29-.19-.65-.12-1-.27s-.37.11-.45.33-.07.32.21.23S22,55.84,22.41,55.74Zm12.14-29c.16-.06.26,0,.39.11a2.69,2.69,0,0,0,1.21.38,22.13,22.13,0,0,0-3.09-1.52,2.44,2.44,0,0,0,.59.42c.31.19.7.28.91.63A16.83,16.83,0,0,1,33,26a9.62,9.62,0,0,1-2.6-2.19c-.59-.61-1.16-1.23-1.74-1.84a13.52,13.52,0,0,0-1.18,1.76c-.55,1-1.21,1.89-1.82,2.82a23,23,0,0,0-1.74,2.84c-.36.77-1,1.41-.94,2.35a5.47,5.47,0,0,1-.18,1.39c-.53,2.21-.78,4.47-1.12,6.7a17.62,17.62,0,0,0-.15,3.7c.1,1.59.24,3.17.45,4.75a14.49,14.49,0,0,0,1,4.3c.29.65.56,1.31.85,2a.79.79,0,0,0,.6.49c.46.1-.17.43.14.67s.35.64.59.91a21.16,21.16,0,0,0,1.83,2.1,23.93,23.93,0,0,0,2.2,2.07,8.13,8.13,0,0,0,1,.83c.16.07.41.12.46.25.23.63.85.82,1.3,1.21.3.25.62.47.92.71a3.44,3.44,0,0,0,.9.68c.3.1.36.4.61.57a22.43,22.43,0,0,0,2.35,1.29,4.83,4.83,0,0,0,2.25.35,18.19,18.19,0,0,1,1.95.23,8,8,0,0,0,3-.43A3.21,3.21,0,0,0,45,65.89a11.3,11.3,0,0,1,1.66-1.3,11.66,11.66,0,0,0,2.67-2.16c.64-.71,1.45-1.22,2-2,1.11-1.36,2.3-2.65,3.4-4A12.84,12.84,0,0,0,57,52.67a11.27,11.27,0,0,0,.62-2.76,41.42,41.42,0,0,0,.16-4.59,22,22,0,0,1,0-2.43c.11-1.06,0-2.11.08-3.17a6.26,6.26,0,0,0-.11-2.15,5,5,0,0,1-.21-1.22c0-.66,0-1.32-.07-2A10.56,10.56,0,0,0,57,32.14a1.64,1.64,0,0,0-1.46-1.28,26.18,26.18,0,0,0-4.6.06c-.08,0-.23,0-.2.18.07.39-.1.44-.4.23a1.19,1.19,0,0,0-1-.25c-.45.1-.88.22-1.32.34a2,2,0,0,0-.81.39c-.21.18-.43.47-.8.38-.13,0-.24-.09-.24-.26s0-.16.06-.17c.51-.09.64-.77,1.21-.79.08,0,.12-.11.08-.2s-.14-.07-.22,0l-.28.1a.52.52,0,0,1-.57-.18c-.17-.22,0-.34.18-.48.25-.31.64-.23.94-.38a5.78,5.78,0,0,1,2-.59l3-.32a7.29,7.29,0,0,1-1.14-.46,21.11,21.11,0,0,0-2.57-1.37c-.8-.39-1.65-.71-2.45-1.13a16.77,16.77,0,0,1-3.17-2A5.48,5.48,0,0,0,42,23c.2.17-.1.6.27.59s.29.12.39.23a9.23,9.23,0,0,0,1.56,1.36,7,7,0,0,1,1.52,1.19,5.07,5.07,0,0,0,1.28,1.16c.51.32,1.05.59,1.64.93-.41.12-.68.33-1,.07a.56.56,0,0,1-.74.52c-.39-.1-.69-.46-1.11-.4a1.8,1.8,0,0,1-1-.15,14.54,14.54,0,0,1-3.19-1.63c-.66-.45-1.34-.86-2-1.33a9,9,0,0,0-1.8-1.1,3.89,3.89,0,0,1-1.72-1.61,1.67,1.67,0,0,0-.86-.78c.56.89.63,1.89,1.47,2.59a34,34,0,0,0,3.67,2.78A5.1,5.1,0,0,1,42,28.52c-.12.15-.37.09-.44.33.37.11.72.2,1.07.33s.51.16.45.46-.48.27-.61.2c-.45-.27-1,0-1.46-.37-.16-.13-.52-.22-.71-.38s-.56.25-.66-.17A13.28,13.28,0,0,1,37.1,28,11.6,11.6,0,0,1,34.55,26.76Zm-3.8,36c-.26.79-.13,1.61-.31,2.38s.06,1.42-.16,2.14-.07.85.67,1.09a12.91,12.91,0,0,1,2.38,1c.67.38,1.27.84,1.91,1.27a5.87,5.87,0,0,1,1.67,1.58,9,9,0,0,1,1.33,2.42c0,.08,0,.15.16.15s.15,0,.15-.13,0-.18.11-.25c.6-.39.59-1.34,1.42-1.51.27-.59.86-.88,1.25-1.36a5.56,5.56,0,0,1,2-1.32,10.8,10.8,0,0,1,1.43-.75,12.19,12.19,0,0,1,2-.38c.29,0,.28-.13.28-.36a22.55,22.55,0,0,1,.13-2.32,5.33,5.33,0,0,1,.1-1.41,15,15,0,0,1-2.63,1.82,4.52,4.52,0,0,1-2.63.66,4.17,4.17,0,0,0-1.46-.13,4.54,4.54,0,0,1-1.6-.07,8.09,8.09,0,0,0-1.34-.21,3.56,3.56,0,0,1-1.39-.4,6.88,6.88,0,0,1-.77-.38c-.39-.22-.75-.49-1.14-.7s-.54-.58-.89-.73A5.36,5.36,0,0,1,32.28,64a4.12,4.12,0,0,0-.79-.6A1.47,1.47,0,0,1,30.75,62.8ZM47,69.62c-.12.07-.18.13-.25.13a5.53,5.53,0,0,0-3,.89,11,11,0,0,0-2.68,2.07c-.37.5-1,.66-1.29,1.3s-.54,1-.77,1.5c-.14.31-.05.4.3.43.64,0,1.28-.08,1.92-.06a4.52,4.52,0,0,0,2.21-.27,9.51,9.51,0,0,0,3.18-2,1.61,1.61,0,0,0,.53-1.4A16.82,16.82,0,0,1,47,69.62Zm-9.11,6.23a5.08,5.08,0,0,0-.68-2.16A7.51,7.51,0,0,0,35.8,72a13.14,13.14,0,0,0-2.24-1.84A11.76,11.76,0,0,0,30.7,69a.56.56,0,0,0-.7.7,1.7,1.7,0,0,1,0,.71c0,.21-.24.54.26.54.14,0,.11.16.06.27a2.24,2.24,0,0,1-.27.66c-.06.07-.15.16,0,.24a8.07,8.07,0,0,0,1.55,1c.38.13.74.28,1.1.43a4.5,4.5,0,0,1,.79.52,13.75,13.75,0,0,0,2.38,1.3C36.47,75.54,37.18,75.57,37.86,75.85Zm26.07-56c.34-.32,0-.42,0-.64,0-.39-.25-.72-.4-1.07-.3-.68-.94-1.27-.65-2.14a.49.49,0,0,0-.06-.33,11.73,11.73,0,0,0-1.59-2.23c-.1-.09-.14-.34-.3-.18a.35.35,0,0,0,0,.54c.33.29.6.63.94.9a.52.52,0,0,1,.22.63,1.15,1.15,0,0,0,.31,1.29.87.87,0,0,1,.16.3,2.68,2.68,0,0,0,.76,1.48c.08.07.18.2.17.28C63.38,19.17,63.85,19.38,63.93,19.85ZM52.5,6.33a7.63,7.63,0,0,0-2.4-1.1A31,31,0,0,0,43.74,3.5c-.11,0-.29-.13-.29.09s.18.19.3.17a1,1,0,0,1,.62,0c.42.16.79.54,1.31.35a.17.17,0,0,1,.1,0c1.06.55,2.41.41,3.27,1.42,0,0,.09,0,.14,0a7,7,0,0,1,2.41.61c.08.05.27-.18.35,0S52.26,6.33,52.5,6.33ZM39,13.94c1,.55,2,1.08,3,1.58.39.19.67.57,1.12.67.11,0,.23.13.3,0s-.09-.15-.17-.22A6.81,6.81,0,0,0,42,15C41,14.56,40.25,13.76,39,13.94Zm25.48,25.7c.39-.45.21-1,.25-1.41a6.31,6.31,0,0,0,0-1.68.35.35,0,0,0-.39-.34c-.25,0-.13.21-.16.36A6,6,0,0,0,64.25,38,15.48,15.48,0,0,0,64.51,39.64ZM44.38,9.58a.55.55,0,0,0,.28.41c.57.26,1.14.51,1.71.79.25.12.55.15.71.49.08.18.44.23.67.34.13-.41.38,0,.6-.06A13.9,13.9,0,0,0,44.38,9.58ZM28.18,5.93c1.29.73,2.41,1.73,3.83,2.43,0-.19,0-.3-.06-.34a3.1,3.1,0,0,0-1.46-.9c-.1,0-.28,0-.28-.11,0-.3-.25-.3-.41-.4a7.29,7.29,0,0,1-.94-.56A.61.61,0,0,0,28.18,5.93ZM43.27,17.07a10.36,10.36,0,0,0-3.55-1.87A10.18,10.18,0,0,0,43.27,17.07ZM19.92,30a24.84,24.84,0,0,0,.61-2.7c0-.18-.12-.25-.26-.29s-.15.12-.17.23c-.15.68-.3,1.35-.47,2A.65.65,0,0,0,19.92,30ZM43.65,14a.32.32,0,0,0-.08-.35c-.19-.26-.49-.28-.74-.4a8.26,8.26,0,0,0-2-.82.23.23,0,0,0-.28.12c0,.07,0,.11.08.14a6.8,6.8,0,0,0,1.21.6C42.47,13.5,43,13.86,43.65,14Zm20,8.69-2.09-3.8C61.44,19.49,62.92,22.21,63.68,22.72Zm-1.92,13.2c0,.37-.26.71-.07,1.08a24.45,24.45,0,0,1,.77,2.38.25.25,0,0,0,.31.18C62.59,38.3,62,37.17,61.76,35.92Zm-2.93,4.55a3.05,3.05,0,0,0-.1,1.16c0,.4.44.73.23,1.18,0,.07-.13.25,0,.26a.3.3,0,0,0,.34-.13.81.81,0,0,0,0-.51C59.29,41.76,58.94,41.15,58.83,40.47ZM49.11,14.66c-.37-1.05-.77-1.23-1.7-.77C48,14.17,48.41,14.69,49.11,14.66Zm-5.57,6.82c-.37-.7-1.13-.76-1.67-1.18-.07-.05-.29-.05-.33.1a.36.36,0,0,0,.23.44Zm16.63,3-.11.07c.29.68.57,1.36.88,2,0,.07.16.28.34.15a.3.3,0,0,0,0-.4,4,4,0,0,0-.3-.49A4.77,4.77,0,0,0,60.17,24.52Zm6.62,11.92c-.06.35-.49.06-.54.37a1.91,1.91,0,0,1-.47,1c-.16.2,0,.61,0,.65a.2.2,0,0,0,.06.37c.21,0,.24-.14.28-.29.12-.46.25-.92.38-1.37C66.52,36.9,66.86,36.8,66.79,36.44Zm-45.92-1,.47-2.55c-.21.07-.28.28-.49.2s-.2.07-.17.17C20.9,34,20.59,34.71,20.87,35.43ZM43.72,15A18.58,18.58,0,0,0,46,16.2c.09,0,.23.1.27-.08s0-.16-.15-.2A11,11,0,0,0,45,15.35C44.6,15.23,44.25,14.91,43.72,15ZM27.65,11.09c-.19.5.09,1,.67,1.25.21.1.42.09.52-.08s-.06-.31-.19-.43A5.16,5.16,0,0,1,27.65,11.09ZM65.39,40.15l-.17.15c-.58.65-.28,1.5-.48,2.23,0,0,.05.09.08.09a.13.13,0,0,0,.12,0,1.28,1.28,0,0,0,.24-.59A12.38,12.38,0,0,1,65.39,40.15ZM13.1,48.46a4.14,4.14,0,0,0,2.07-.41c.13-.06.11-.2,0-.29s-.16,0-.22.06-.44.4-.67.25C13.74,47.72,13.45,48.14,13.1,48.46Zm53.27-7.91c0-.15,0-.33-.17-.36s-.14.17-.19.27c-.25.52-.15,1.12-.38,1.64a.13.13,0,0,0,.08.16.11.11,0,0,0,.15-.07A9.18,9.18,0,0,0,66.37,40.55ZM13.22,37.43a3.68,3.68,0,0,0,0-2.73C13.09,35.6,13.31,36.52,13.22,37.43ZM16,42.22l-.13,0c0,.37-.14.75-.16,1.12a.35.35,0,0,0,.25.33c.14,0,.22-.16.25-.26.09-.34.6-.74-.11-1C16,42.4,16,42.29,16,42.22ZM37.63,16.48c.15,0,.24.06.29,0a.14.14,0,0,0,0-.13,13.84,13.84,0,0,0-1.5-.73.21.21,0,0,0-.16.05c-.05.08,0,.16.08.2C36.77,16.1,37,16.71,37.63,16.48ZM14,29.11a4.7,4.7,0,0,0,.12,2.67A8.85,8.85,0,0,0,14,29.11Zm44.81,2.32a1.7,1.7,0,0,0,.42,1.86C59.51,32.58,59,32,58.82,31.43ZM36,4.45c-.41-.74-1.26-.63-1.83-1a.31.31,0,0,0,.15.45A11.93,11.93,0,0,0,36,4.45Zm-1.75,1.3c.23.41.72.53,1,.9.1.12.37.23.5.06s0-.34-.19-.41C35.18,6.07,34.81,5.68,34.28,5.75Zm20.15,8.43c.15.72.71,1,1.29,1.41A2.14,2.14,0,0,0,54.43,14.18ZM18.84,49a3.49,3.49,0,0,0,.09-1.87A2.13,2.13,0,0,0,18.84,49ZM52.32,8c-.35-.62-1-.52-1.6-.72A2.36,2.36,0,0,0,52.32,8ZM36.58,6.52c.11.6.64.56,1,.71.08,0,.2.08.25-.05a.2.2,0,0,0-.1-.25C37.39,6.77,37.09,6.41,36.58,6.52ZM14.18,38.66c.09-.16-.06-.33,0-.52s0-.18-.06-.2-.17.07-.18.18a4.53,4.53,0,0,1-.18.89c-.06.18,0,.38.23.39s.27-.13.21-.33S14.27,38.83,14.18,38.66Zm3.57-3.76a4.58,4.58,0,0,0-.15-2.08A4.08,4.08,0,0,0,17.75,34.9ZM20.65,42a6.26,6.26,0,0,0-.12,2.28A5.49,5.49,0,0,0,20.65,42ZM58.77,15.66a2.25,2.25,0,0,0,1.24,1c.09,0,.19.22.26,0s-.1-.16-.21-.21-.17-.14-.26-.2ZM49.2,10.53a2,2,0,0,0-1.36-.71A1.34,1.34,0,0,0,49.2,10.53ZM60.94,34.06a3.8,3.8,0,0,0,.66,1.63A2.25,2.25,0,0,0,60.94,34.06ZM46.21,7.59c.51.43,1.13.36,1.54.75a.22.22,0,0,0,.3-.08c.05-.12,0-.18-.14-.21A5.11,5.11,0,0,0,46.21,7.59ZM47,13a3.81,3.81,0,0,0-1.5-.65A1.36,1.36,0,0,0,47,13ZM31.91,8.88c.33.54.85.67,1.15,1.13C33.17,9.13,32.56,9.06,31.91,8.88ZM51.64,24.13c-.15-.25-.06-.64-.56-.53-.15,0-.47-.16-.38-.33s-.05-.17-.1-.2-.23,0-.31.12-.07.17.06.22C50.8,23.58,51.09,24,51.64,24.13ZM37.79,13.48c.42.24.42.24,1.52.24C38.77,13.51,38.38,13.09,37.79,13.48ZM65.38,30.73a2.23,2.23,0,0,0-.2.24c-.07.1,0,.13.09.17a.42.42,0,0,1,.22.44.72.72,0,0,0,.2.47c.06.08.14.16.25.1s.07-.17,0-.26a4.53,4.53,0,0,0-.5-1Zm-49,15c-.32.3-.36.69-.56,1a.2.2,0,0,0,0,.27A.17.17,0,0,0,16,47,1.08,1.08,0,0,0,16.34,45.7Zm45-1.44a2.19,2.19,0,0,0,.16-1.16c0-.15,0-.4-.18-.38s-.15.24-.16.42C61.1,43.52,61.41,43.85,61.31,44.26ZM46.26,14.62c.15.5.65.42.92.69.07.06.22.28.34,0s-.06-.25-.21-.35A5.43,5.43,0,0,0,46.26,14.62ZM38.19,26.94l.09-.1c-.28-.21-.55-.45-.84-.63-.11-.06-.22-.34-.38-.13s0,.36.19.44A8.92,8.92,0,0,0,38.19,26.94ZM17.39,47.68a3.26,3.26,0,0,0,.15-1.75A3.35,3.35,0,0,0,17.39,47.68ZM44.93,5.62a3.75,3.75,0,0,0-1.65-.43A2,2,0,0,0,44.93,5.62ZM13.64,42.84c.61-.05.32-.67.65-.89.09-.05.24-.2.09-.31a.24.24,0,0,0-.38.15C13.88,42.14,13.76,42.48,13.64,42.84ZM40.06,1.62c.35.14.53.57.95.55a2.23,2.23,0,0,0,.23,0c0-.08,0-.19-.06-.23A1.3,1.3,0,0,0,40.06,1.62Zm-5.2-.22a.92.92,0,0,0,1,.53c.09,0,.17,0,.19-.11s-.09-.17-.17-.19C35.6,1.55,35.26,1.49,34.86,1.4Zm2.06-.21a2.4,2.4,0,0,0,1.91.54ZM39.11,12c.31.33.75.37,1.1.57.08,0,.16,0,.18-.11s0-.3-.11-.31A2.25,2.25,0,0,1,39.11,12Zm-5.39,8.18c.44-.74.44-.74.06-1C33.49,19.83,33.49,19.83,33.72,20.13ZM14.45,47.57c.35-.23.69-.34.79-.71,0-.1.06-.25-.05-.31s-.19.07-.24.16C14.81,47,14.51,47.14,14.45,47.57ZM45.7,14.83c-.21-.37-.44-.71-1-.71C44.88,14.65,45.34,14.68,45.7,14.83Zm7-7.89c.42,0,.77.66,1.25.16C53.5,7.1,53.15,6.67,52.68,6.94ZM19.49,15.23a1,1,0,0,0,.15-.16c.14-.23.37-.44.31-.76a.09.09,0,0,0-.15,0,.82.82,0,0,0-.37.87S19.45,15.17,19.49,15.23ZM18.3,50.37c.26-.22.37-.41.24-.61s-.07-.22.05-.31.25,0,.16-.22-.16-.1-.25-.11-.19.15-.19.26C18.29,49.67,18.3,50,18.3,50.37ZM67.69,31.42a1.27,1.27,0,0,0,.09-1s0-.13-.11-.11a.18.18,0,0,0-.1.09C67.54,30.72,67.3,31.08,67.69,31.42Zm-4.25,5.8a2.26,2.26,0,0,0,.05-1.2.18.18,0,0,0-.18-.18c-.1,0-.14.06-.12.17C63.27,36.37,63.34,36.74,63.44,37.22ZM38.81,6.48c-.06-.54-.15-.58-.9-.39C38.17,6.33,38.5,6.32,38.81,6.48ZM37,2.44l.38.29c.09-.32.4,0,.51-.17,0,0,0-.17,0-.17-.22,0-.34-.12-.5-.21S37.08,2.24,37,2.44ZM66.27,25.27a3.11,3.11,0,0,0-.23.28c-.17.2.07.3.13.43a.24.24,0,0,0,.34.08c.14-.1,0-.23,0-.34S66.45,25.39,66.27,25.27ZM23.87,6.53c.35.14.64-.14.92.06.06,0,.14-.06.16-.14s-.05-.18-.16-.2A1,1,0,0,0,23.87,6.53ZM60.26,36.36c-.14.39,0,.7.2,1.15C60.67,37,60.4,36.69,60.26,36.36Zm-34-30.89c.05.07.12,0,.17,0,.36.14.4-.28.63-.37.07,0,0-.09-.06-.12-.31-.18-.38.17-.57.26S26.24,5.35,26.25,5.47Zm33,40.71-.11,0V47c0,.08,0,.17.12.18s.17-.08.15-.19C59.37,46.72,59.31,46.45,59.25,46.18Zm.63-32.35a.75.75,0,0,0-.74-.77C59.29,13.4,59.64,13.5,59.88,13.83ZM13,39.67a2.93,2.93,0,0,0,.24-1.46A4,4,0,0,0,13,39.67ZM38.58,7.28c0,.2.09.28.23.3s.22-.17.23-.3A.22.22,0,0,0,38.83,7C38.67,7,38.54,7.08,38.58,7.28ZM66.41,35a1.05,1.05,0,0,0,.38.43s.17-.17.11-.21.1-.48-.22-.51A.29.29,0,0,0,66.41,35ZM60.13,51.44c0-.33.13-.59-.11-.77a.21.21,0,0,0-.28.12C59.64,51.1,59.93,51.19,60.13,51.44Zm-16.28-42c-.15-.07-.35,0-.35.09s.28.2.45.25a.23.23,0,0,0,.29-.21C44.21,9.3,44,9.43,43.85,9.41ZM13.68,45.11a2.31,2.31,0,0,0,.29-1A1,1,0,0,0,13.68,45.11ZM31.92,3.41a1.28,1.28,0,0,0-.59-.27c-.09,0-.17.08-.11.16a.72.72,0,0,0,.45.32A.22.22,0,0,0,31.92,3.41ZM17.24,24.25c0,.38-.24.74-.27,1.28A1.53,1.53,0,0,0,17.24,24.25ZM50,13.51c-.13.17-.46.17-.41.48,0,.11.19.16.29.11C50.14,14,50,13.71,50,13.51ZM37.46,8.09,36.89,8c-.1,0-.21,0-.22.1s.09.19.14.16c.32-.17.22.28.44.26C37.31,8.37,37.29,8.21,37.46,8.09Zm-16,6.5a1.75,1.75,0,0,0,.57-.75C21.71,14,21.45,14.14,21.46,14.59Zm-6.1,5.31c0,.34-.17.66-.07,1A1.21,1.21,0,0,0,15.36,19.9ZM59.55,50.64c-.08-.26.17-.52,0-.79,0-.07-.07-.16-.17-.14a.13.13,0,0,0-.09.19C59.42,50.14,59.34,50.42,59.55,50.64ZM36.74,13c.1.37.46.32.7.46.06,0,0-.09,0-.13s0-.11-.09-.12A1.07,1.07,0,0,1,36.74,13ZM20,56.17l-.08-.65c-.23.06-.4.21-.39.37S19.85,56,20,56.17Zm.87-9.47c.06-.4.13-.71-.11-1C20.84,46,20.61,46.34,20.88,46.7Zm24.53-33c-.33-.12-.45-.33-.7-.29,0,0-.07.13,0,.16C44.82,13.75,45,13.81,45.41,13.68Zm-2.62.85a.57.57,0,0,0,.58.33c.1,0,.09-.07.07-.13-.1-.3-.36-.18-.57-.22C42.86,14.5,42.84,14.51,42.79,14.53ZM62.14,54.7c0,.28-.32.38,0,.58.09.06.19.2.27.07S62.28,55,62.14,54.7Zm-43.06-21c.2-.25,0-.52.13-.74s-.05-.15-.12-.17-.12.1-.13.17A1.8,1.8,0,0,0,19.08,33.73ZM58.29,52.36c.07.23-.14.43.13.52.09,0,.24.06.28-.09S58.52,52.5,58.29,52.36Zm0-1.76c-.06.21.09.2.22.22s.21-.07.21-.19-.15-.24-.28-.26S58.36,50.51,58.33,50.6Z"/><path d="M2.26,118.4c0-1-.3-1.92-.38-2.89s-.2-1.7-.3-2.55-.25-1.82-.3-2.73A36.91,36.91,0,0,0,.61,106c-.32-1.76-.32-3.53-.53-5.28A37.15,37.15,0,0,1,.1,96c0-.32.16-.63.2-.94.1-.67-.06-1.35,0-2a8.49,8.49,0,0,1,.27-1.35c.31-1.08.74-2.13,1.11-3.19A6.44,6.44,0,0,1,3.57,86c.65-.61,1.1-1.44,1.89-1.86S6.82,83,7.59,82.54c1.09-.64,2.12-1.38,3.18-2.06a14.33,14.33,0,0,1,1.75-1c.66-.32,1.23-.78,1.88-1.1a2,2,0,0,1,.71-.27c.14,0,.27-.18.39,0s-.08.28-.12.43-.17.14-.27.19c-1.26.58-2.42,1.36-3.62,2s-2.14,1.24-3.16,1.93a25.17,25.17,0,0,0-2,1.7,10.44,10.44,0,0,1-.83.66,9.26,9.26,0,0,0-2,1.87,11,11,0,0,0-2.23,4.65A22.06,22.06,0,0,0,1,94.55c-.1.86-.19,1.71-.25,2.56A10.39,10.39,0,0,0,.67,99c.09.75-.07,1.49,0,2.24s.1,1.47.15,2.21a6.12,6.12,0,0,0,0,1c.26,1.47.57,2.93.82,4.41.12.74.1,1.5.23,2.24.17.92.15,1.87.34,2.79a27,27,0,0,1,.36,2.83c.09,1,.27,1.92.39,2.88.17,1.24.55,2.43.79,3.65,0,.1,0,.21.13.23.68.11.22.55.22.83a1.4,1.4,0,0,1-.17.39c-.06.1,0,.29-.18.31s-.27-.14-.36-.28a2.43,2.43,0,0,1-.22-.88c-.15-.73-.35-1.45-.53-2.18a15.07,15.07,0,0,0-.42-2.4A2.29,2.29,0,0,1,2.26,118.4Z"/><path d="M38.68,81.69c0,.5,0,1,0,1.49,0,.2.18.4-.17.54-.19.08.19.06.17.22a10.37,10.37,0,0,1-.23,2.66.9.9,0,0,0,0,.68,1.94,1.94,0,0,1,0,1.3s-.07.1-.06.14c.24.56,0,1.16.11,1.73.06.26-.21.46-.17.76a12.55,12.55,0,0,1,0,2.74,6.06,6.06,0,0,1-.16,1.91A4.39,4.39,0,0,0,38,97.62c-.06,1.46-.14,2.92-.15,4.39a19,19,0,0,0,.2,2.6,4,4,0,0,1,0,1.1,29.3,29.3,0,0,0,0,3.63c0,1.47-.16,2.94-.21,4.42,0,1.1,0,2.2,0,3.31,0,1.34,0,2.69,0,4s0,2.81,0,4.22a10.22,10.22,0,0,0,.11,1.83c0,.12,0,.26,0,.38s-.21.46.18.61c.2.07.1.39,0,.58s-.16.39-.22.59-.15.36-.36.31a.39.39,0,0,1-.34-.41,12.55,12.55,0,0,0,0-1.84,10,10,0,0,0-.14-2.3,4.13,4.13,0,0,1,0-1.21,13.15,13.15,0,0,0,.06-2.34c-.07-.68.24-1.38-.1-2-.06-.11.09-.29.08-.39a15.26,15.26,0,0,0-.05-2.7c-.08-.3.12-.64.06-1a12.57,12.57,0,0,1,.16-3.3c.06-.53,0-1,0-1.58.07-1.21-.1-2.43,0-3.62.07-.84.2-1.67.19-2.51s-.1-1.44-.14-2.16c-.08-1.38.07-2.77.07-4.16a5.84,5.84,0,0,1,.22-2c.32-.87,0-1.74.22-2.6A10.33,10.33,0,0,0,38,90.31c-.09-1.08.09-2.15,0-3.23a4.2,4.2,0,0,1,.13-1.21,9.79,9.79,0,0,0,0-1.1c0-.59,0-1.19,0-1.79a1.09,1.09,0,0,1,.11-.67c.21-.31-.24-.54-.06-.84s0-.5.25-.46.11.35.14.54a.34.34,0,0,1,0,.14Z"/><path d="M38.44,79.19a6.27,6.27,0,0,1,.2,1.58c-.34,0-.45-.08-.41-.42A2.83,2.83,0,0,1,38.44,79.19Z"/><path d="M71.46,130.66c-.15.35.36.61.1,1-.09.11-.12.35-.31.28a.36.36,0,0,1-.16-.49C71.28,131.18,71.27,130.88,71.46,130.66Z"/><path d="M71.67,129.79c.13.24.42.37.15.63,0,.05-.14.22-.21.1A.64.64,0,0,1,71.67,129.79Z"/><path d="M33.89,34.2a1.94,1.94,0,0,1-.83,2,2.42,2.42,0,0,1-1.67.56,4.7,4.7,0,0,1-3.52-1.34.49.49,0,0,1-.19-.39c0-.41-.19-.37-.39-.18s-.81.33-1,.79c-.06.13-.43.25-.5.12s-.49,0-.32-.26-.2-.48.28-.58A2.9,2.9,0,0,0,27,34.24c.47-.41,1.08-.45,1.58-.77a7,7,0,0,1,4.1-.75c.4,0,.54.38.87.48,1,.28,1.42,1.11,1.92,1.88.09.14.22.36.05.54a.41.41,0,0,1-.49.07c-.27-.16-.66-.28-.6-.67S34.12,34.45,33.89,34.2Zm-4.11,1.48a1.83,1.83,0,0,1,0-1.85,3.62,3.62,0,0,0-.93.27c-.2.15,0,.33,0,.49a.25.25,0,0,1-.19.25c-.1,0-.11.09-.09.18A1.63,1.63,0,0,0,29.78,35.68Z"/><path d="M49.36,34.86c-.52.33-1.07.62-1.56,1a.43.43,0,0,1-.63,0c-.18-.16,0-.32.06-.5a2,2,0,0,1,1.06-.74c.84-.38,1.7-.69,2.53-1.06a4.11,4.11,0,0,1,4.16.62c.59.39,1.13.84,1.7,1.27s.41.89.67,1.31c.06.1-.09.27-.24.33a.27.27,0,0,1-.35-.07c-.18-.23-.44-.39-.43-.76s-.4-.42-.55-.68l-.08-.06c-.55-.41-.53-.39-.93.18a2,2,0,0,1-1,.8,3.89,3.89,0,0,1-2.72.3A2.65,2.65,0,0,1,49.36,34.86Zm4.91,0a.43.43,0,0,0-.44-.55c-.28,0-.17.29-.16.48s0,.23,0,.34-.18.4,0,.47.3-.19.45-.3S54.24,35,54.27,34.88Z"/><path d="M28.71,27.75a16.24,16.24,0,0,1,2.31,0,2,2,0,0,1,.61.15,13,13,0,0,1,1.8.58,15.6,15.6,0,0,0,1.59.78c.07,0,.17.12.16.17,0,.53.42.54.73.71s.43.16.3.41-.32.19-.58.13A20.94,20.94,0,0,1,33.16,30a22.93,22.93,0,0,0-2.58-.72,6.19,6.19,0,0,0-1.29,0,5.21,5.21,0,0,0-2,.2,3,3,0,0,0-1.32.64.29.29,0,0,1-.36,0c-.33-.16-.35-.93-.08-1.19.74-.72,1.82-.62,2.65-1.13C28.32,27.68,28.56,27.75,28.71,27.75Z"/><path d="M45.89,40.7a20,20,0,0,0,.18,2A8.41,8.41,0,0,1,46,45.54c-.25,1.05-1,1.35-1.9.8-.3-.17-.38-.1-.46.17a4.75,4.75,0,0,0-.23.63c-.07.44-.31.79-.72.81s-.66-.35-.86-.68c-.38-.66-.36-.67-.89-.12A1,1,0,0,1,39.25,47a1.84,1.84,0,0,1-.3-1.8c0-.07,0-.2.07-.22s.23-.43.48-.26.15.36.08.55a1.07,1.07,0,0,0,.48,1.53c.18.13.26.1.39,0,.27-.31.56-.62.85-.92s.3-.28.51-.2.26.26.27.47a8.15,8.15,0,0,0,.29,1,.28.28,0,0,0,.24.22c.09,0,.12-.14.18-.2.25-.29.18-.66.27-1a1,1,0,0,1,.78-.73.39.39,0,0,1,.52.28.45.45,0,0,0,.52.35c.23,0,.27-.21.36-.39a6.25,6.25,0,0,0,.41-3.4,6.1,6.1,0,0,1-.08-2.69c.06-.14-.15-.36,0-.54s.1-.14.2-.1a.15.15,0,0,1,.09.2C45.64,39.64,46,40.21,45.89,40.7Z"/><path d="M34.66,52.71a6.9,6.9,0,0,0,2.41,1.46c.47.16.85.56,1.38.55,1.18,0,2.34.13,3.52.11,1,0,2,0,3,0a2.29,2.29,0,0,0,1.39-.32.45.45,0,0,1,.68.15c.12.26,0,.44-.34.55a2.21,2.21,0,0,1-1.17.09c-.28-.06-.57.15-.88.15-1.12,0-2.25,0-3.37,0a15.75,15.75,0,0,1-3.3-.18,5.6,5.6,0,0,1-2.91-1.63A1.22,1.22,0,0,1,34.66,52.71Z"/><path d="M40.53,57.14a6.27,6.27,0,0,1,2.77.45c.31.15.53.25.41.61s-.59.15-.64.1c-.29-.32-.89-.06-1-.6,0,0,0,0-.08,0-.09.55-.47.08-.71.18a2,2,0,0,1-.85.1,1.12,1.12,0,0,0-.5.11c-.26.12-.47.18-.7,0-.06-.06-.21-.14-.12-.22s.26-.57.63-.6Z"/><path d="M45.64,33c.3.17.45.37.36.68-.15.49,0,1-.27,1.52a.18.18,0,0,0,0,.14c.18.51-.1,1-.1,1.5,0,.33-.14.68.2.94a.17.17,0,0,1,0,.14c0,.22.22.54-.09.62s-.22-.32-.25-.47a10.64,10.64,0,0,1,0-3.56A8.21,8.21,0,0,0,45.64,33Z"/><path d="M126.32,114.71a1.51,1.51,0,0,0-.24,1.2c0,.11.11.27,0,.33s-.25,0-.39-.11c-.29-.17-.41-.56-.8-.61-.1,0-.08-.19-.08-.29s-.09-.21-.23-.22-.17.11-.18.21a3,3,0,0,1-.14.75c-.19.38-.07.77-.13,1.15a6.92,6.92,0,0,0,0,1.36,1.08,1.08,0,0,1-.19.68,4.91,4.91,0,0,0-.94-.48c-.42-.13-.52-.51-.77-.76-.08-.08.09-.42-.28-.23-.13.06-.1-.29-.16-.42-.13-.3-.63-.39-.48-.83-.42-.12-.25-.55-.42-.8,0-.06-.09-.08-.14,0s-.18,0-.23-.07c-.35-.71-.59-1.46-.91-2.17a12.69,12.69,0,0,1-.51-1.77,19.59,19.59,0,0,1-.68-2.94c-.1-.79-.19-1.58-.32-2.37-.24-1.47-.21-3-.42-4.45a20.08,20.08,0,0,1,0-2.69c0-1.11-.06-2.23,0-3.33.14-1.38.18-2.77.38-4.15a32.51,32.51,0,0,1,1.39-5.62c.61-1.86,1.1-3.76,1.85-5.58s1.49-3.81,2.33-5.67a36.49,36.49,0,0,1,1.6-3.48c.09-.16-.26-.46-.51-.42s-.17.07-.13-.09v0c-.3-.22-.58-.48-1-.39,0-.44-.41-.58-.69-.8-.09-.07-.12,0-.15.09s-.25.35-.46.26a.51.51,0,0,1-.36-.52,1.45,1.45,0,0,0-.32-1c-.19-.26-.36-.33-.56,0a5,5,0,0,0-.76,2.16c0,.2,0,.39-.3.37s-.41,0-.46-.34a4.83,4.83,0,0,0-.67-1.82c-.23-.35-.37-.37-.59,0A2,2,0,0,0,117.9,70c0,.28-.1.52-.4.52s-.36-.23-.39-.48a3.12,3.12,0,0,0-.5-1.35c-.23-.37-.5-.38-.75,0a4.88,4.88,0,0,0-.88,1.53.59.59,0,0,1-.64.51c-.19,0-.22-.09-.23-.25a4.39,4.39,0,0,0-.28-1.34c-.33-.81-.57-.93-1.4-.38A4.37,4.37,0,0,0,110.9,71a.53.53,0,0,1-.27.33c-.32.19-.52.09-.53-.28a6.15,6.15,0,0,0-.23-1.35,2,2,0,0,0-.43-.79c-.22-.26-.45-.26-.67,0a5.61,5.61,0,0,0-.89,2,5.61,5.61,0,0,1-1.7,2.79,6.69,6.69,0,0,1-1,.51,8.18,8.18,0,0,1-2.51.8c-.23,0-.32.11-.28.35.45,2.9.6,5.83.8,8.76.16,2.22.42,4.45.42,6.67,0,1.77.07,3.54-.09,5.3s-.37,3.49-.66,5.23c-.26,1.53-.51,3.07-.9,4.56-.32,1.18-.53,2.39-.9,3.55a22.71,22.71,0,0,1-2.6,5.36,23,23,0,0,0-1.28,2.46c-.1.22-.3.39-.31.65a.42.42,0,0,1-.47.39c-.22,0-.23-.31-.26-.51a16.86,16.86,0,0,0-.38-2,11.47,11.47,0,0,0-.62-2.07c-.07-.15-.11-.35-.34-.31s-.24.13-.26.34-.25.5-.47.49c-.58,0-.77.4-1,.76l-.48.81c-.06.09,0,.32-.23.24s-.31-.11-.35-.35a18.57,18.57,0,0,1-.53-2.92c-.26.2-.52.31-.59.63,0,.17-.22.19-.38.16s-.23,0-.22-.18,0-.31.21-.37c.52-.16.5-.66.66-1a.16.16,0,0,0-.06-.2c-.1-.07-.13,0-.21,0a6.61,6.61,0,0,0-2.49,2.46,5.18,5.18,0,0,1-.59.74c-.1.11-.19.34-.37.24a.46.46,0,0,1-.25-.54,5,5,0,0,0,.28-1.83,4.32,4.32,0,0,0,0-1.68c0-.1,0-.23-.18-.22s-.14.11-.17.19a4.57,4.57,0,0,0-.28.6c-.08.38-.48.23-.61.47,0,0-.08,0-.1,0s0-.13,0-.2a1.28,1.28,0,0,0,.19-1c-.42.17-.53.68-1,.65-.18,0,.2.11,0,.34-.33.48-.85.75-1.19,1.2a1.38,1.38,0,0,1-.5.35c-.11,0-.3.15-.42,0s-.21-.41-.12-.5.18-.51.24-.72c.16-.62.42-1.21.61-1.83.11-.37.25-.73.37-1.09a14.82,14.82,0,0,0,.67-1.8,13.51,13.51,0,0,1,.47-1.54A10.35,10.35,0,0,0,86,104.7a5.1,5.1,0,0,1,.39-1.46c.13-.27.07-.63.21-.94a7.59,7.59,0,0,0,.36-1.26A14.33,14.33,0,0,1,87.39,99,13.58,13.58,0,0,0,88,97.1a23.33,23.33,0,0,0,.53-2.89c0-.32-.05-.69.31-.95.15-.11-.15-.24-.11-.43A15.08,15.08,0,0,0,89,90.42,9.2,9.2,0,0,0,89,88a3.84,3.84,0,0,1,0-1.51,12.38,12.38,0,0,0,.05-1.92c0-1.17-.13-2.34-.19-3.51,0-.32-.28-.48-.48-.39a2.79,2.79,0,0,1-.84.14c-.62.09-1.15.42-1.75.56a4.89,4.89,0,0,0-2,.93c-.25.21-.6.29-.76.7s-.5.48-.69.81a3.21,3.21,0,0,0-.6,1.25c0,.26-.24.28-.29.49-.26,1.09-.5,2.18-.68,3.29-.12.81-.31,1.62-.42,2.43-.08.58,0,1.17-.11,1.75-.11.94-.32,1.87-.38,2.81-.08,1.18-.21,2.37-.25,3.56,0,1.34,0,2.69-.15,4a14.8,14.8,0,0,0-.18,2.13c0,1.1,0,2.21,0,3.32,0,1.69,0,3.38,0,5.07,0,.38.07.77.09,1.16.07,1.26.13,2.53.22,3.79a31.87,31.87,0,0,0,.49,4.13,2.77,2.77,0,0,1,0,.49c0,.21.08.49-.21.53s-.42-.36-.42-.49c0-.92-.2-1.82-.17-2.73s-.2-2-.21-3-.2-2.32-.28-3.48c-.06-.78-.07-1.56-.09-2.34,0-.58-.07-1.17-.06-1.76a3.33,3.33,0,0,0-.1-1.63c.4-.56,0-1.19.18-1.81a15.35,15.35,0,0,0,0-1.81A2,2,0,0,1,79,104c.15-.24,0-.48,0-.73.1-1.07.11-2.16.13-3.25s.15-2.07.21-3.1a17.16,17.16,0,0,1,.18-2.16c.14-.79.22-1.59.36-2.38.07-.39,0-.77,0-1.17a21.25,21.25,0,0,0,.38-2.37,18.76,18.76,0,0,1,.56-2.68.61.61,0,0,1,.16-.31c.25-.16.4-.25.13-.58-.14-.16.16-.44.25-.67a6.76,6.76,0,0,1,1.44-2.11,5,5,0,0,1,1.85-1.24,10.33,10.33,0,0,1,3.86-1c.29,0,.32-.23.3-.5-.12-1.1-.18-2.21-.32-3.31s-.24-2-.3-3.08-.1-2.34-.21-3.5-.08-2.39-.28-3.57a24.38,24.38,0,0,1-.21-2.95c-.07-1.58-.16-3.16-.24-4.74s0-2.92-.14-4.38c-.07-.94-.15-1.89-.17-2.85s.08-2.21,0-3.32a33.48,33.48,0,0,1,.39-6.78c.22-1.46.28-2.94.52-4.4.13-.83.31-1.66.41-2.5.16-1.34.46-2.64.73-4,.19-.88.41-1.76.64-2.63.16-.62.39-1.25.6-1.87s.49-1.51.7-2.28a10.49,10.49,0,0,1,.92-2.18,7.32,7.32,0,0,0,.54-1.22,12.76,12.76,0,0,1,.86-1.83,6.47,6.47,0,0,0,.52-1.25,10.34,10.34,0,0,1,1.47-2.48,19.44,19.44,0,0,1,2-2.58c1-1.06,2-2.13,3-3.16a16.76,16.76,0,0,1,3.06-2.46,31.52,31.52,0,0,1,4.51-2.59c1.5-.62,8.11-2.73,10.79-2.7.06.13-.08-.11,0,0a10.5,10.5,0,0,1-1.69.29,18.43,18.43,0,0,1,2.68,0c-.65.13-6.75,1.32-7.38,1.5a26.39,26.39,0,0,0-7.42,3.39,22.14,22.14,0,0,0-2.93,2c-.63.59-1.24,1.2-1.85,1.8a32.46,32.46,0,0,0-4,4.56,15.09,15.09,0,0,0-1.73,3c-.71,1.68-1.62,3.28-2.33,5-.58,1.39-1,2.84-1.48,4.27a43.43,43.43,0,0,0-1.45,5.57c-.33,1.77-.57,3.56-.83,5.35-.12.79-.14,1.6-.26,2.39A21.08,21.08,0,0,0,87.75,43a36.32,36.32,0,0,0-.18,4.78c.17,1.52-.09,3,.06,4.55.25,2.78.15,5.57.32,8.35.11,1.75.09,3.5.32,5.24.26,1.94.28,3.89.39,5.84,0,.83.12,1.67.11,2.5s.13,1.77.2,2.65a3.74,3.74,0,0,0,.2,1.17,1.06,1.06,0,0,1,0,.5c0,.18-.21.39.11.52.08,0,0,.15,0,.23-.06.24-.13.51.29.48a.26.26,0,0,1,.26.21.32.32,0,0,1-.17.35c-.3.15-.29.39-.29.65,0,.67.09,1.33.14,2a1.8,1.8,0,0,1-.13,1c-.1.16.24.13.15.35s-.29.37,0,.51c-.36.33.17.65,0,1a3.57,3.57,0,0,0-.12,1.27c0,.1,0,.16-.13.15s-.14.23-.07.34a1.21,1.21,0,0,1,.08,1.24c0,.06-.09.12,0,.16.49.4.23.87.13,1.31,0,.19-.1.33,0,.49s0,.18,0,.28-.07-.24-.23-.25c-.07.29-.24.57-.06.88.19,0,0-.24.18-.29s0,0,0,.06a33.76,33.76,0,0,1-.83,5.92c-.43,1.41-.83,2.83-1.17,4.28-.21.89-.52,1.78-.74,2.67a20.13,20.13,0,0,1-.56,2,23.47,23.47,0,0,1-1.24,3.53c-.07.12,0,.3-.08.44a13.82,13.82,0,0,0-.63,1.66c0,.14-.2.32,0,.38a.43.43,0,0,0,.45-.23c.09-.28.51-.34.44-.7.65-.33,1-1.11,1.71-1.31,0,0,.06,0,.09,0,.39.08.54-.05.64-.47a10.18,10.18,0,0,0,.44-1.55,16.56,16.56,0,0,1,.57-1.94,4.27,4.27,0,0,0,.27-1.48,2.31,2.31,0,0,1,.3-.92,16.36,16.36,0,0,0,.71-2.92,4.14,4.14,0,0,1,.26-.82,6.67,6.67,0,0,0,.45-1.85,16.55,16.55,0,0,1,.38-1.91c.14-.46.14-.92.26-1.38a9.64,9.64,0,0,0,.25-1.52,20.42,20.42,0,0,1,.3-2.08c.09-.35.2-.78.25-1.11a3.36,3.36,0,0,0,.06-1.55A1.3,1.3,0,0,1,92,88a7.44,7.44,0,0,0,.1-2,10.73,10.73,0,0,0,0-2,13.83,13.83,0,0,1,0-1.43C92,81.27,92.06,80,92,78.72a17.6,17.6,0,0,0-.28-2.91,4.79,4.79,0,0,1-.1-1.16c0-.57-.21-1.08-.2-1.62a12.4,12.4,0,0,0-.19-1.72,6.59,6.59,0,0,1,0-.89c0-1.65-.4-3.26-.52-4.9-.07-.93-.14-1.87-.16-2.81a30.55,30.55,0,0,0-.26-3.3,14.81,14.81,0,0,1-.19-4.36,22,22,0,0,0,.07-2.44,18.83,18.83,0,0,0,0-2,47.3,47.3,0,0,1-.07-5.19c0-1.7,0-3.4.12-5.1.07-.78.17-1.56.26-2.34.11-1.06.2-2.13.34-3.19a19.57,19.57,0,0,1,.56-2.38c.26-1,.57-2,.91-2.94.46-1.28.78-2.61,1.19-3.91A44.48,44.48,0,0,1,96.09,20c.13-.28.55-.25.52-.51s.15-.44.26-.66A24.69,24.69,0,0,1,98.79,16a26.39,26.39,0,0,1,2.31-3c.26-.29.45-.63.74-.9.64-.58,1.28-1.16,2-1.69.92-.71,1.86-1.39,2.78-2.1.74-.56,1.61-.89,2.34-1.46a32.84,32.84,0,0,1,4.2-2.3,10.2,10.2,0,0,1,3.32-1.29,6.19,6.19,0,0,1,1.83-.06,11.48,11.48,0,0,0,1.17-.07c.28,0,.37-.39.55-.6s.14-.33.3-.25.07.29,0,.44l-.47.88c-.07.13-.09.19.1.25a11.26,11.26,0,0,1,3.88,2.54c1,.93,2,1.84,2.89,2.86.58.65,1,1.44,1.52,2.09a13.63,13.63,0,0,1,1.91,3c.72,1.46,1.59,2.83,2.32,4.28a26.06,26.06,0,0,1,1.3,3.08c.43,1.22.8,2.47,1.12,3.72a42,42,0,0,1,.93,4.26,7.84,7.84,0,0,1,.25,2.16c0,.18.33.42-.09.55a.94.94,0,0,0,0,.16c.29,0,.25.25.22.35a4.82,4.82,0,0,0,0,.93,2,2,0,0,0,0,.78,16.2,16.2,0,0,1,.53,3.37c.09,1.14.22,2.27.26,3.41s0,2.42,0,3.63c0,.78-.1,1.57-.17,2.35-.09,1.07-.23,2.14-.24,3.22a9.41,9.41,0,0,1-.35,1.69,5.4,5.4,0,0,1-.49,1.45c-.1.19.2.31.11.57a10,10,0,0,1-.47,1.55,7.36,7.36,0,0,0-.34,1.11c-.15.43-.27.87-.43,1.3a10.18,10.18,0,0,0-.42,1.43c0,.17-.32.29-.07.54.19-.27.16-.6.28-.88.39-.93.78-1.86,1.08-2.82A35.6,35.6,0,0,0,137,51.29c.26-1.63.79-3.21,1.08-4.83a24.13,24.13,0,0,0,.45-3c0-.31.22-.53.2-.89a11.51,11.51,0,0,1,.27-2.24c.16-1,.41-2.08.52-3.13,0-.08,0-.15,0-.23,0-1.17.2-2.33.22-3.51s0-2.37.08-3.54a9.48,9.48,0,0,0-.17-2.21c-.08-.65-.29-1.33-.43-2s-.38-1.4-.51-2.12c-.05-.3-.3-.62-.36-.94-.09-.49-.41-.89-.4-1.41,0-.21-.25-.42-.29-.68a18.1,18.1,0,0,0-1.51-4.35,10.79,10.79,0,0,0-1.17-1.84,7.08,7.08,0,0,1-.77-1.43,15.08,15.08,0,0,0-1.19-2,5,5,0,0,0-1-1.35c-.11-.1-.19-.24-.37-.24-.35,0,0-.32-.22-.49a7.3,7.3,0,0,1-.84-.83,18,18,0,0,0-5.33-4.21,18.73,18.73,0,0,0-3.61-1.58c-.24-.07-.51-.2-.39-.51s.42-.33.7-.21c.67.31,1.37.59,2,.94a37.36,37.36,0,0,1,4.75,2.92A19.88,19.88,0,0,1,131.38,8,20.92,20.92,0,0,1,133,9.7c.39.54.74,1.1,1.09,1.67.88,1.42,1.56,3,2.5,4.37a8,8,0,0,1,.79,2,16.08,16.08,0,0,1,.75,2.32c.12.61.54,1.15.42,1.82.38.23.33.66.47,1s.27.37.08.61c-.05.06,0,.13.1.18a.85.85,0,0,1,.33.79,8.42,8.42,0,0,0,.09,1,4.57,4.57,0,0,0,.35.86c0,.13.17.21,0,.32s0,.16.06.21a.34.34,0,0,1,.17.35c-.11,0-.18-.2-.29-.06s0,.21.1.29.36.37.14.64a.15.15,0,0,0,0,.13c.45.57.19,1.23.27,1.85,0,.23-.33.45,0,.69a.21.21,0,0,1,0,.17c-.41.3-.22.75-.24,1.12a10.07,10.07,0,0,0,0,2.74A7.68,7.68,0,0,1,140,38c-.17.81-.24,1.63-.43,2.43s-.24,1.71-.36,2.57c0,.32-.14.64-.21,1-.11.47-.07.95-.18,1.4-.23.94-.33,1.91-.61,2.85-.17.58-.32,1.21-.47,1.82a9.1,9.1,0,0,1-.37,1.91,2.82,2.82,0,0,0-.17,1.09c0,.22-.26.31-.31.58a8.48,8.48,0,0,1-.77,2,12.25,12.25,0,0,0-.67,1.68c-.09.31.1.59,0,.86s-.25.72-.39,1.08c-.44,1.13-.9,2.25-1.34,3.37a43.51,43.51,0,0,1-2,4.54c-.48.91-.78,1.9-1.21,2.82s-.72,1.57-1.11,2.33-.59,1.33-.89,2a7.21,7.21,0,0,0-.55,1.24c0,.06,0,.11-.12.07s-.06-.32-.23-.09.07.18.15.23,0,.18,0,.25c-.66,1.41-1.33,2.81-2,4.22-.24.52-.4,1.08-.59,1.62a20.82,20.82,0,0,1-1.09,2.35,15.37,15.37,0,0,0-.83,2.48c-.28,1-.59,1.94-.88,2.91a39.87,39.87,0,0,0-1.14,5.4,22.31,22.31,0,0,0-.35,2.71,13.21,13.21,0,0,0,.11,2c.12,1.1.17,2.22.37,3.31.12.62.36,1.23.42,1.86.07.79.46,1.49.46,2.32,0,.45.38.93.56,1.41.31.85.59,1.7.92,2.53.22.55.5,1.08.74,1.63.35.81.8,1.56,1.26,2.42.08-.38.24-.55.57-.4ZM116,12.79c-.69.43-1.39.6-2,1-1.28.73-2.47,1.6-3.68,2.45a27.75,27.75,0,0,0-2.33,1.7c-1.41,1.23-2.82,2.44-4.26,3.62-.57.47-1.11,1-1.68,1.45s-.8,1.19-1.4,1.66a2.23,2.23,0,0,0-.5,1.07c-.19.9-.45,1.79-.61,2.7a31.67,31.67,0,0,0-.43,3.37c-.06.82-.09.83.69.59a21.44,21.44,0,0,1,4.91-.62,5.88,5.88,0,0,1,2.84.5,3.53,3.53,0,0,1,1.87,1.37,10.78,10.78,0,0,1,.58,1.24,7,7,0,0,1,.7,2.82c-.06,1.22-.14,2.43-.1,3.65a1.22,1.22,0,0,1,0,.27c-.25,1.2-.58,2.37-.93,3.53a3.81,3.81,0,0,0-.1,2.58c.2.49.34.55.82.38a3.94,3.94,0,0,1,.73-.25,1.19,1.19,0,0,1,1.49,1c.1.35.31.67.72.67s.83,0,1-.52a4.43,4.43,0,0,1,.29-.46c.28-.51.45-.59,1-.42a2.08,2.08,0,0,0,1.55-.14,1,1,0,0,0,.59-.83.76.76,0,0,1,.38-.74.33.33,0,0,1,.38-.1.34.34,0,0,1,.15.4c-.24.68-.41,1.44-1.11,1.8a2.5,2.5,0,0,1-1.89.29c-.37-.1-.54.06-.66.36a1.53,1.53,0,0,1-.11.27,1.66,1.66,0,0,1-1.67.69c-.64,0-1-.56-1.21-1s-.45-.69-1.09-.44c-.18.08-.37.15-.55.21a.63.63,0,0,1-.61,0,2.48,2.48,0,0,1-1-1.61,4.47,4.47,0,0,1,.3-2.17c.22-.67.46-1.33.62-2a11.66,11.66,0,0,0,.31-2.57c0-1.47.3-3-.22-4.42-.28-.77-.39-1.64-1.45-1.86a22.16,22.16,0,0,0-2.81-.69,17.58,17.58,0,0,0-3.83.44c-.06,0-.14,0-.16.07-.2.33-.53.37-.86.44s-.92.2-1.37.31c-.17,0-.29.08-.33.31-.2,1.32,0,2.71-.55,4,.28.39,0,.79,0,1.19,0,1.45-.1,2.9,0,4.36,0,.22,0,.58.1.65.42.22.3.57.34.9a10.07,10.07,0,0,0,.5,2.81,16,16,0,0,1,.66,1.53,19.15,19.15,0,0,0,1.49,3.41,43.55,43.55,0,0,0,3.38,4.94,9.18,9.18,0,0,0,1.14,1.58c.37.35.54.9,1,1.17a6.1,6.1,0,0,1,1,.85c.19-.28.35-.3.61,0a2.06,2.06,0,0,0,.63.48,23.91,23.91,0,0,0,2.44.79,6.87,6.87,0,0,0,2.55.38,19.54,19.54,0,0,0,5.42-1.37A14.46,14.46,0,0,0,122,61.42c.45-.27.61-1,1.32-.84,0,0,.1-.07.15-.1.36-.27.71-.56,1.1-.8a14.76,14.76,0,0,0,3.16-2.39c.86-.91,1.87-1.64,2.67-2.61a13.06,13.06,0,0,0,1.5-2,5.86,5.86,0,0,0,.58-1c.23-.68.4-1.38.68-2a4.8,4.8,0,0,0,.41-1.44,9.72,9.72,0,0,1,.36-1.89c.26-1.07.48-2.14.7-3.22.08-.41.23-.81.27-1.22.19-2,.33-4,.32-6,0-.57.08-1.14,0-1.7s-.26-1.06-.32-1.59a1,1,0,0,0-.45-.75,22.32,22.32,0,0,0-2.25-1.35A23.89,23.89,0,0,1,129.86,29c-.89-.66-1.8-1.3-2.68-2a38.43,38.43,0,0,1-3.46-2.92c-.9-.86-1.77-1.75-2.74-2.55A10.53,10.53,0,0,1,118.66,19c-.59-1-1.17-1.92-1.78-2.86a12.62,12.62,0,0,0-.9-1.71.58.58,0,0,1-.15-.53C115.88,13.55,115.93,13.24,116,12.79Zm2.65-8a1.3,1.3,0,0,0-.15,0c-1.5.64-3,1.37-4.48,2a20.52,20.52,0,0,0-3.78,2.23l-4.25,3a8.36,8.36,0,0,0-1,1,35.9,35.9,0,0,0-3.26,3.6,14.52,14.52,0,0,0-2.41,4.2c-.36,1-.6,2.06-.92,3.09a28.22,28.22,0,0,0-1.13,7.35c-.08,2.22-.22,4.43-.31,6.65-.1,2.65-.37,5.29-.32,7.95,0,2.49,0,5,.05,7.48,0,1.58.27,3.15.36,4.73.07,1.38.26,2.75.44,4.12.21,1.67.49,3.34.71,5,.17,1.19.23,2.39.3,3.59.15,2.59.4,5.18.6,7.77.14,1.84.18,3.68.31,5.52a43.81,43.81,0,0,1-.07,4.72c-.08,1.77,0,3.54-.23,5.31-.14,1.39,0,2.79-.19,4.18a17.72,17.72,0,0,1-.24,1.94c-.31,1.29-.66,2.58-1.08,3.84s-.57,2.52-1,3.73c-.27.71-.45,1.45-.65,2.18a8.85,8.85,0,0,0-.38,1.06,2.15,2.15,0,0,1-.39,1.06c-.29.32-.2.63.13.94a1.12,1.12,0,0,1,.38.5q.36,1.32.69,2.64c.07.27,0,.71.26.75s.46-.41.55-.68a19.54,19.54,0,0,1,1.41-2.58c.34-.64.76-1.22,1-1.9a29.15,29.15,0,0,0,1.1-3.09c.3-1,.56-2,.78-3a25.27,25.27,0,0,0,.65-3.45c.06-.75.19-1.5.3-2.25a24.59,24.59,0,0,0,.33-3.43c0-1.53.11-3.06.16-4.59.08-2.17-.19-4.33-.27-6.49,0-1.47-.28-2.93-.33-4.39-.08-2.09-.33-4.15-.57-6.22-.27-2.41-.47-4.83-.62-7.25-.11-1.67-.3-3.32-.55-5-.15-1-.32-2-.39-3-.05-.81-.17-1.62-.28-2.42s-.24-1.37-.34-2.06c-.12-.9-.2-1.81-.34-2.71s-.32-1.88-.53-2.81-.13-1.91-.43-2.85a8.25,8.25,0,0,1-.46-2.79,7.17,7.17,0,0,1-.09-.81,10,10,0,0,0,.23-1.88A5.63,5.63,0,0,1,98,40.08a21.2,21.2,0,0,0,.36-2.5c.13-1.22.15-2.45.22-3.67,0-.18,0-.29-.2-.38s-.27-.37,0-.59.24-.11.25-.29c.09-.9.14-1.8.29-2.7s.21-1.55.39-2.31a12.88,12.88,0,0,0,.54-2.33,9.14,9.14,0,0,1,.38-1.9,27.15,27.15,0,0,1,1.12-2.66,17.42,17.42,0,0,1,2-3.64c.4-.56.92-1,1.28-1.59a17.88,17.88,0,0,1,2.61-2.94,25.82,25.82,0,0,1,2.42-1.77,33.84,33.84,0,0,1,4.67-3A14.85,14.85,0,0,1,118,6.13a.24.24,0,0,0,.18-.12A7.89,7.89,0,0,0,118.66,4.83ZM87.93,114c.18,0,.19-.16.25-.24.22-.29.37-.7.65-.83.57-.27.9-.8,1.41-1.13.3-.18.5-.52.92-.4.13,0,.12-.09.16-.17.18-.38.25-.81.43-1.18.38-.79.68-1.6,1-2.41s.5-1.47.7-2.22a5.15,5.15,0,0,0,.32-1,17.35,17.35,0,0,1,.56-2.67,14.21,14.21,0,0,0,.36-2.07,17.88,17.88,0,0,1,.23-2.08,24.15,24.15,0,0,0,.51-4.32,13.18,13.18,0,0,0,.06-1.67c-.06-.52,0-1.05,0-1.58-.05-1,0-2-.07-3-.07-.81-.08-1.64-.14-2.47a16.48,16.48,0,0,0-.31-1.82c-.12-.82,0-1.67-.23-2.49-.23-1.11-.19-2.26-.45-3.37-.18-.73-.23-1.48-.37-2.21-.25-1.29-.3-2.62-.58-3.9-.4-1.87-.34-3.78-.58-5.66-.2-1.61-.25-3.24-.3-4.86s0-3,0-4.51a16.56,16.56,0,0,1,.1-1.73c.2-1.35.31-2.71.42-4.07.18-2.07.08-4.15.36-6.22.25-1.79.1-3.61.45-5.39.25-1.31.41-2.64.65-3.95s.66-2.49.91-3.75c.46-2.34,1.35-4.55,1.93-6.85a19.09,19.09,0,0,1,1.91-4.19,26.42,26.42,0,0,1,2.23-3.52,36.82,36.82,0,0,1,2.49-2.94c.46-.49.9-1,1.38-1.52,0,.18-.12.28,0,.41.32-.41.89-.45,1.23-.86a4,4,0,0,1,.59-.49c1-.82,2.09-1.49,3.15-2.22a25.14,25.14,0,0,1,3.43-2c1.25-.59,2.46-1.24,3.67-1.91.14-.08.27-.24.44-.21.43.06.77-.2,1.16-.28a.22.22,0,0,0,.19-.22c0-.15-.12-.17-.22-.17a6.49,6.49,0,0,0-3.51.46c-.66.34-1.35.59-2,1a28.66,28.66,0,0,1-2.81,1.45c-.81.35-1.44,1-2.21,1.41a12,12,0,0,0-1.63,1c-.8.65-1.68,1.19-2.44,1.88-.53.47-1.15.83-1.64,1.34a35.82,35.82,0,0,0-2.36,2.86c-.68.87-1.34,1.76-1.94,2.69s-1.11,1.54-1.58,2.37c-.56,1-1.1,2-1.62,3a18.78,18.78,0,0,0-1,2.15c-.27.79-.41,1.62-.65,2.41-.33,1-.71,2.09-1,3.13-.26.79-.52,1.59-.71,2.4a36.68,36.68,0,0,0-.74,5,67.77,67.77,0,0,0-.34,8.31c0,1.5,0,3,0,4.51,0,1,0,1.91,0,2.87a30,30,0,0,0,0,3.91c.09,1.15.33,2.28.34,3.44s.08,2.09.14,3.14a16.69,16.69,0,0,0,.35,3.06,11.57,11.57,0,0,1,.22,2.13c.08,1.38.11,2.77.28,4.14.11.83,0,1.66.13,2.49s.12,1.71.21,2.56a2.79,2.79,0,0,1,0,.58c0,.32.19.66-.14.94.42.24.11.62.18.93s-.17.83.16,1.19c0,0,0,.06,0,.09A7.34,7.34,0,0,0,92.5,84c0,.29.2.58-.06.89s.18.54,0,.84.13.4,0,.54c-.36.32-.06.38.24.49-.37,0-.35.24-.28.38a1,1,0,0,1,.06.69c-.06.32.13.7-.12.94s-.15.5-.23.78c.07,0,.11,0,.12-.07s.06-.28.1-.44A2.22,2.22,0,0,1,92,90.48c0,.07,0,.12,0,.16.23.13.15.35.13.53-.17,1.08-.23,2.17-.45,3.24-.14.66-.28,1.33-.41,2-.21,1.11-.37,2.24-.68,3.33a8.48,8.48,0,0,0-.47,1.74c0,.46-.32.76-.38,1.2s-.42.89-.31,1.42c0,.08,0,.18-.13.17s-.25.08-.19.16c.21.27,0,.5,0,.75s.18.4-.19.37c0,0,0,.11,0,.11.37.1,0,.22,0,.31s-.49.31-.09.55c0,.07,0,.24-.08.22-.41-.08-.22.32-.21.35a.61.61,0,0,1-.1.67.34.34,0,0,0,0,.26c.08.45-.45.76-.31,1.23a.09.09,0,0,1-.06.06c-.3,0-.27.25-.19.43s.06.16,0,.19c-.36.2-.12.42,0,.64A3.91,3.91,0,0,1,88,112,13.27,13.27,0,0,0,87.93,114Zm9.21-87.94c-.24.73-.53,1.44-.71,2.18-.6,2.49-1.39,4.93-1.75,7.47-.15,1.16-.44,2.29-.57,3.46C94,40.58,94,42,93.86,43.4c-.16,1.2-.15,2.42-.21,3.63-.09,1.83-.21,3.67-.35,5.5-.09,1.3-.09,2.61-.24,3.89A43.17,43.17,0,0,0,93,61a32.41,32.41,0,0,0,.41,5.11c.12.84,0,1.67.17,2.5s.28,1.55.36,2.33c.14,1.58.39,3.15.63,4.73.22,1.43.48,2.86.59,4.3,0,.4.16.78.18,1.18,0,.57.07,1.15.14,1.72.11.85.29,1.69.39,2.54.18,1.67.26,3.35.28,5a34.67,34.67,0,0,1-.33,5.67c-.12.84-.29,1.68-.39,2.52A14.88,14.88,0,0,1,94.07,104a.24.24,0,0,0,0,.12c.34.07.08.25.08.39,0,.29-.2.51-.26.78s.18.79-.41.83c-.08,0-.07.15,0,.19s0,.26,0,.39c0,.3-.38.4-.3.67a.67.67,0,0,1-.23.69c-.29.24,0,.78-.48.87.12.43-.15.77-.27,1.15,0,.13,0,.3-.16.34s0-.26-.23-.25a.16.16,0,0,0,0,.21.47.47,0,0,1,0,.62c-.07.11-.27.34-.16.56.52,1,.34,2.07.67,3.07,0,.11-.06.3.13.33s.23-.13.29-.26a3.44,3.44,0,0,1,.49-.69,9.91,9.91,0,0,0,1.16-1.48,17.48,17.48,0,0,0,1-2.74,3.36,3.36,0,0,0,.37-1.46c0-.08.08-.12.15-.15a.31.31,0,0,0,.14-.32,1.39,1.39,0,0,1,.22-.87,2.27,2.27,0,0,0,.34-1.06,5.61,5.61,0,0,1,.2-1.38c.18-.82.43-1.62.63-2.44a25.6,25.6,0,0,0,.76-3.64c.12-1.24.2-2.48.24-3.73.06-1.93.22-3.87.31-5.8.05-1.1,0-2.19.07-3.28a13.39,13.39,0,0,0,.07-2.46c-.21-1.56-.14-3.15-.31-4.72-.12-1.18-.14-2.36-.23-3.54-.19-2.23-.37-4.47-.6-6.71-.16-1.61-.35-3.22-.59-4.83-.16-1.09-.3-2.19-.41-3.29s-.22-2.35-.32-3.52c-.12-1.38-.25-2.77-.33-4.15,0-.73.12-1.45.09-2.18-.07-1.79-.07-3.57-.06-5.36,0-2,.21-4.06.29-6.08s.25-4.22.33-6.33c0-.7,0-1.4.08-2.1C96.87,29,97,27.53,97.14,26.06Zm38.92,11h-.15a11.51,11.51,0,0,1-.12,2.75,11.52,11.52,0,0,1-.31,2.39c-.26,1.16-.39,2.35-.73,3.5-.4,1.32-.59,2.68-.92,4a5.09,5.09,0,0,0-.26.89,12.46,12.46,0,0,1-.3,2,39.24,39.24,0,0,1-1.49,5.29c-.55,1.39-.88,2.86-1.46,4.24-.47,1.11-1.06,2.17-1.45,3.32-.44.11-.21.53-.36.78-.33.54-.59,1.12-.87,1.69-.64,1.31-1.22,2.66-1.83,4-.78,1.68-1.65,3.32-2.3,5.06-.53,1.39-1.12,2.76-1.65,4.15-.43,1.14-.81,2.3-1.18,3.46-.29.92-.49,1.87-.83,2.77a19.27,19.27,0,0,0-1.16,5.17,43,43,0,0,0-.36,5.56c0,1,0,2.06,0,3.09,0,1.3.21,2.6.32,3.9a30.45,30.45,0,0,0,1.28,7.07,11.73,11.73,0,0,0,1.28,3.12,27.6,27.6,0,0,0,1.57,2.31,2,2,0,0,0,.95.69.61.61,0,0,0-.09-.16c-.23-.32-.2-.3,0-.65,0-.06.22-.44.06-.44-.33,0-.14-.14-.13-.24a.75.75,0,0,1,0-.31c.26-.45-.19-1.08.39-1.44a.13.13,0,0,0,0-.12c-.12-.28-.11-.5.13-.67a.46.46,0,0,0,.14-.67c-.28-.51-.41-1.08-.65-1.61-.41-.94-.72-1.93-1.1-2.88a27.66,27.66,0,0,1-1-3.33,26.45,26.45,0,0,1-.8-3.76c-.14-1.27-.36-2.54-.41-3.83a21.13,21.13,0,0,1,.32-3.37,44.52,44.52,0,0,1,1.84-7.66c.47-1.54,1-3,1.66-4.54.77-1.81,1.54-3.61,2.35-5.4A17.19,17.19,0,0,0,128,73.79a.45.45,0,0,1,.06-.12c.6-1.06,1.11-2.17,1.66-3.25,1-1.85,1.72-3.79,2.6-5.67.63-1.33,1.09-2.71,1.7-4.07-.55.12-.59.08-.44-.43.26-.89.51-1.77.77-2.65.35-1.17.76-2.32,1-3.5a18.66,18.66,0,0,0,.5-2.58c.06-.72.31-1.43.34-2.15s.06-1.62.13-2.42c.12-1.37,0-2.73.11-4.1a32.05,32.05,0,0,0-.14-3.53C136.25,38.57,136.14,37.83,136.06,37.08Zm-2.38-8.44c-.16-.69-.39-1.28-.54-1.88A18.75,18.75,0,0,0,131.73,23c-.16-.31-.19-.68-.35-1-.54-1-1.19-1.95-1.68-3-.41-.87-1-1.62-1.53-2.44a30.1,30.1,0,0,0-3.14-4c-.58-.68-1.27-1.23-1.87-1.89a10.68,10.68,0,0,0-2.56-2.21,9.24,9.24,0,0,1-2.17-1.45.31.31,0,0,0-.44.1A1.17,1.17,0,0,0,118.44,9c.15.08.28.19.19.36s0,.31.09.45a16.1,16.1,0,0,0,2.14,2.66c.82,1,1.68,2,2.41,3.08.85,1.25,1.84,2.4,2.72,3.63a30.14,30.14,0,0,0,2.12,2.66c1.1,1.26,1.95,2.71,3,4A15.89,15.89,0,0,0,133.68,28.64ZM110.63,69.69c.12-.17.23-.32.33-.49a3,3,0,0,1,2-1.42,1,1,0,0,1,.86.15,3.1,3.1,0,0,1,.82,1.18c.26-.35.47-.66.72-.94a1,1,0,0,1,1.62-.13c.22.18.27.47.49.67l.2-.37c.44-.74,1-.8,1.57-.18a2.73,2.73,0,0,1,.45.62c.07.13.06.31.25.35.14-.32.27-.64.42-.95.44-.87.85-1,1.65-.4a.6.6,0,0,0,.16,0c0-2,.31-3.88.15-5.86a13.5,13.5,0,0,1-2.59,1.27,35.45,35.45,0,0,1-4.17,1.2,11.42,11.42,0,0,1-6-.94c-.28-.1-.58-.14-.86-.25s-.2,0-.21.2a29.36,29.36,0,0,1-.14,4.68C109.32,67.69,109.63,67.91,110.63,69.69Zm24.59-39.5a.39.39,0,0,0,0-.14c-.21-1-.49-2-.64-3a7,7,0,0,0-.15-1.2c-.21-.69-.36-1.39-.63-2.06s-.41-1.72-.78-2.49c-.67-1.39-1.24-2.83-2-4.18-1-1.65-1.73-3.41-2.85-5-.51-.71-1-1.44-1.52-2.13-.41-.53-.87-1-1.33-1.51A15.39,15.39,0,0,0,120,4.54a.51.51,0,0,0-.75.27,9.58,9.58,0,0,1-.62,1.29c-.17.29,0,.35.23.45s.31-.09.34.1c.06.35.35.45.59.64.55.45,1.17.79,1.74,1.21A31.41,31.41,0,0,1,125.09,12a23.44,23.44,0,0,1,3.08,3.71c.64,1,1.35,1.9,2,2.9s1,1.84,1.52,2.77,1,1.94,1.37,2.94c.55,1.38.9,2.83,1.37,4.24C134.56,29.16,134.63,29.81,135.22,30.19Zm-2.64-1.77a28.09,28.09,0,0,1-2.11-2.61c-.48-.59-.85-1.24-1.28-1.86-1.12-1.62-2.45-3.07-3.63-4.64-1.33-1.77-2.55-3.62-4-5.31a20.28,20.28,0,0,0-1.77-2.12c-.61-.53-1-1.19-1.59-1.76a.65.65,0,0,0-1-.09.53.53,0,0,0-.13.75,9.9,9.9,0,0,1,.66,1.09,15.55,15.55,0,0,0,1.45,2.7,48,48,0,0,0,3.29,4.37,32,32,0,0,0,2.52,3.16c.92.89,1.79,1.82,2.62,2.8A7.42,7.42,0,0,0,128.75,26a21.47,21.47,0,0,0,3.17,2.18A3,3,0,0,0,132.58,28.42Zm-15.8-17a7.17,7.17,0,0,0-.19.89c0,.45-.3,1-.11,1.34a30.89,30.89,0,0,0,1.58,3.15,16,16,0,0,0,2,3c.38.37.71.77,1.13,1.11.67.56,1.33,1.14,2,1.76s1.14,1.13,1.73,1.68a9.37,9.37,0,0,0,1.25,1.11,14.57,14.57,0,0,1,1.22.94,33.2,33.2,0,0,0,2.9,2.13c1.33.87,2.75,1.59,4.2,2.42-.15-.42-.11-.83-.49-1.06a18.85,18.85,0,0,0-1.68-1,16,16,0,0,1-3.32-2.17A24,24,0,0,1,126.19,24a34.43,34.43,0,0,1-3.7-4.12c-.1-.14-.28-.24-.13-.46s-.07-.19-.14-.26a28.09,28.09,0,0,1-3.4-4.21,14.75,14.75,0,0,0-.72-1.36A10.16,10.16,0,0,0,116.78,11.45ZM104.36,73.82a2.63,2.63,0,0,0,.73-.3c.22-.18.6-.22.58-.66,0-1,0-2,0-3-.09-1.47,0-2.94-.07-4.41a7.22,7.22,0,0,1,.05-1.67c.07-.3-.17-.72-.18-1.09,0-.66-.37-1.3-.12-2a.59.59,0,0,0-.14-.62c-.88-1.18-1.75-2.38-2.63-3.57-.19-.26-.29-.61-.68-.75C103.09,61.7,103.72,67.75,104.36,73.82ZM99.75,51.5a12.94,12.94,0,0,0,.28,2.24c.21,1.43.35,2.86.51,4.29s.26,2.63.5,3.93c.2,1.14.38,2.28.47,3.42.21,2.79.37,5.58.67,8.37.1.84.16.9,1,.62l.13,0c.37,0,.49-.24.45-.62-.11-1-.18-2-.28-3s-.22-2.21-.33-3.31-.19-2-.31-3-.21-1.74-.35-2.6-.4-2-.56-2.95-.32-2-.56-3c-.08-.33-.43-.6-.17-1.07l.26.84a.72.72,0,0,0,0-.59C100.94,53.81,100.26,52.7,99.75,51.5Zm28.44,6.3a21.27,21.27,0,0,1-3,2.28c-.15.09-.21.23-.15.34.17.34,0,.64-.16.88a10.89,10.89,0,0,0-.56,2.14,9.84,9.84,0,0,0-.21,2.82c0,.78-.05,1.57-.06,2.35a1.61,1.61,0,0,0,.22,1.13,2.25,2.25,0,0,0,1.11.61c.18,0,.33.05.4-.16.21-.65.81-1.16.64-1.93a.17.17,0,0,1,0-.17,1.35,1.35,0,0,0,.23-1,5.94,5.94,0,0,1,.15-1.26,16,16,0,0,0,.35-1.61C127.42,62.11,127.77,60,128.19,57.8ZM116.46,10.38a6.09,6.09,0,0,0-1.14.48,8.07,8.07,0,0,1-1.76.83A8.75,8.75,0,0,0,111,13c-.77.49-1.44,1.11-2.23,1.57a9.08,9.08,0,0,0-1.44,1c-.48.42-1,.81-1.43,1.24a25,25,0,0,0-3.28,3.31c-.16.2-.23.5-.43.64-.72.52-.67,1.43-1.13,2.08a.61.61,0,0,0,.3-.15,16,16,0,0,1,2-1.69c1.32-1,2.58-2,3.81-3.1a63,63,0,0,1,5.54-4.06c.75-.54,1.59-1,2.38-1.46.25-.15.45-.43.81-.26.16.07.13-.1.18-.18C116.37,11.48,116.24,10.9,116.46,10.38Zm1.08-3.31a.81.81,0,0,0-.53.09c-.82.32-1.57.77-2.35,1.15A58.64,58.64,0,0,0,108.92,12a14.58,14.58,0,0,0-2.67,2.42.61.61,0,0,1-.5.25c-.25,0-.5.12-.37.46a.36.36,0,0,1-.1.41,26.12,26.12,0,0,0-2,2.72c0,.09-.16.16,0,.32.45-.45.95-.84,1.39-1.27.68-.67,1.42-1.27,2.15-1.87s1.67-1.22,2.52-1.81a19.3,19.3,0,0,1,3.31-2.1c1.27-.56,2.48-1.26,3.73-1.85a.9.9,0,0,0,.54-.59A17.31,17.31,0,0,1,117.54,7.07Zm9.66,60.06a67.69,67.69,0,0,0,5.4-14c-.12.06-.16.06-.18.08a15.91,15.91,0,0,1-2.2,2.71c-.5.54-1.18.92-1.36,1.73a6.92,6.92,0,0,0-.34,1.12c0,.26-.34.56-.32.59.32.36,0,.69-.06,1-.19,1.46-.54,2.91-.65,4.38C127.42,65.53,127.24,66.31,127.2,67.13Zm-21,5.45a1.26,1.26,0,0,0,.58-1.31c0-.13-.08-.31.08-.37s.3-.37.36-.59a15.63,15.63,0,0,0,.57-3.11,23.83,23.83,0,0,0,.08-4.05c0-.12,0-.24-.09-.34-.66-.57-1.35-1.12-2-1.76C106,64.87,106.3,68.67,106.19,72.58Zm18-11.81a5,5,0,0,1-.55.4A1.07,1.07,0,0,0,123,62.3c0,.59,0,1.18,0,1.77a27.56,27.56,0,0,0-.08,4,1.2,1.2,0,0,0,.52,1,23.42,23.42,0,0,1,.11-2.4,8.6,8.6,0,0,0,.19-2.32,1.88,1.88,0,0,1,.06-.31A31.7,31.7,0,0,0,124.17,60.77ZM135.3,30.31a1,1,0,0,0,.15,1.28A3.67,3.67,0,0,0,135.3,30.31ZM99,33.86a.21.21,0,0,0,.27.15c.17,0,.4,0,.43-.27a.11.11,0,0,0-.16-.1C99.37,33.7,99.19,33.78,99,33.86Z"/><path d="M124.53,1.19a7.46,7.46,0,0,0,1.53,1.09,4.32,4.32,0,0,1,.42.27c.18.14.27.23.52,0s.65,0,.93.21a32.26,32.26,0,0,0,2.76,1.77c.88.44,1.79.85,2.68,1.3A5.07,5.07,0,0,1,135,7.11c.14.18.35.22.52.33A14.51,14.51,0,0,1,137.22,9c.68.65,1.31,1.38,1.94,2.09a11.88,11.88,0,0,1,2.08,2.62,8.6,8.6,0,0,1,.9,2.11A5.4,5.4,0,0,0,143,17.4a15.38,15.38,0,0,1,1.24,2.82c.39,1,.51,2.12.81,3.17.21.75.57,1.45.78,2.2a8.09,8.09,0,0,1,.32,2.73,5.2,5.2,0,0,0,.25,1.33,15.29,15.29,0,0,1,.18,4.82,16.1,16.1,0,0,0-.06,2.41c0,1-.06,2.11-.06,3.17s0,1.89-.05,2.83a14.18,14.18,0,0,1-.29,3,3.94,3.94,0,0,0,0,.77c-.05,1.4-.24,2.78-.33,4.18s-.5,2.64-.69,4c0,.25-.36.44-.15.73-.41.41,0,1-.26,1.45s-.09,1.15-.59,1.57c-.17.14.1.31,0,.45a3.44,3.44,0,0,0-.49,1.42c0,.08-.27.26-.31.43a5.89,5.89,0,0,1-.68,1.73c-.18.33-.11.66-.24,1A41.4,41.4,0,0,1,140.71,68c-.28.52-.34,1.12-.58,1.65A33.8,33.8,0,0,0,139,73c-.26.73-.47,1.48-.77,2.19-.21.48-.3,1-.52,1.44-.46.9-.43,1.93-.85,2.82a38.91,38.91,0,0,0-1.54,4.19c-.38,1.1-.7,2.22-1,3.34s-.64,2-1,3a14.26,14.26,0,0,0-.62,2.56c-.25,1.3-.59,2.58-.81,3.89a26.12,26.12,0,0,0-.45,3.84c0,1.21-.14,2.42-.17,3.63a23.93,23.93,0,0,0,.07,3.39,17.36,17.36,0,0,0,.43,2.58,1.8,1.8,0,0,0,.33.59c.13.17.35.29.15.59,0,.08.08.43.35.24s.2-.06.23.07c.1.48.55.68.79,1a4,4,0,0,0,.08-1.7c.23.54.57-.06.8.14s.61-.2.9.06c.05-.19,0-.37.12-.57.09.38.49.61.24,1.08-.07.12.16.44.31.62s.15.45.09.79c-.18-1-.94-1.07-1.56-1.35-.32-.15-.21.18-.19.28a3.23,3.23,0,0,1,.12,1.07.44.44,0,0,1-.13.31c-.34.35-.24.8-.26,1.25a4.75,4.75,0,0,1-.5-.76,11.53,11.53,0,0,0-.88-1.31.42.42,0,0,0-.48-.25c-.34.06-.48-.3-.7-.53,0,.59.4,1,.6,1.45-.19.09-.16-.14-.28-.12-.09.22.1.54-.27.67-.15,0,0,.25,0,.39a1.7,1.7,0,0,1-1.6-.94c0-.06,0-.16-.1-.2s-.19-.29-.38-.3-.09.07-.09.13-.09.4.13.53c.06,0,.1.08.15.11a.26.26,0,0,1,.17.33.29.29,0,0,1-.37.19c-.34-.08-.37,0-.32.34a2.66,2.66,0,0,1-.19,1.38c-.1.27-.29.32-.54.17-.55-.33-.67-.69-.39-1.14,0-.06,0-.16.11-.06.32.35.28,0,.32-.17s-.07-.57.27-.77c.05,0-.08-.44-.18-.65-.35-.73-.71-1.46-1.09-2.17a8.22,8.22,0,0,1-.62-2.32c-.18-.88-.33-1.77-.48-2.66a14.76,14.76,0,0,1-.24-2.65c0-.64-.08-1.27-.12-1.9a10.05,10.05,0,0,1,.11-2.26c.17-1.08.29-2.17.46-3.25.06-.34,0-.72.34-1a.53.53,0,0,0,.09-.6,1,1,0,0,1,0-.82c.42-2.6.8-5.2,1.47-7.76.48-1.86.87-3.74,1.36-5.6.27-1,.65-1.95,1-2.92.46-1.29,1-2.57,1.55-3.81,1-2.14,1.91-4.31,2.74-6.51.11-.3.28-.63-.27-.66,0,0,0-.06-.08-.13a1.93,1.93,0,0,1,.23,0,.51.51,0,0,0,.65-.46,7.31,7.31,0,0,1,1.2-2.38c0-.08.12-.16.09-.24-.21-.66.28-1.15.44-1.71.12-.38.32-.73.51-1.18a1.06,1.06,0,0,1-.1.9,6.36,6.36,0,0,0-.49,1.64,18.85,18.85,0,0,1-.94,2.54c-.51,1.17-1,2.33-1.52,3.49-.33.79-.58,1.63-.94,2.41-.49,1.08-.94,2.18-1.44,3.27a29.61,29.61,0,0,0-1.39,3.68c-.23.76-.47,1.53-.73,2.28-.37,1.06-.59,2.16-.85,3.24-.31,1.28-.63,2.56-.89,3.85s-.49,2.68-.73,4c-.32,1.82-.51,3.66-.86,5.47-.09.49-.08,1-.13,1.49a16.82,16.82,0,0,0-.17,2.66c.09,1.58.06,3.16.27,4.73a27.53,27.53,0,0,0,.73,3.81,10.5,10.5,0,0,0,1.08,2.45c.06.11.06.24.23.07.34-.33.68-.19,1,.09a5.71,5.71,0,0,1,.51.58c0,.06.1.15,0,.2s-.26.23-.06.39.24-.12.24-.12c.45.12.35-.26.43-.46s.09-.25-.15-.17c-.08,0-.12,0-.07-.17a8.41,8.41,0,0,0,.26-1.5,2.37,2.37,0,0,0-.08-1.61.42.42,0,0,1,0-.51s.07,0,0-.09a4.17,4.17,0,0,1-.41-2.2c0-.52,0-1,0-1.57,0-1.46.1-2.92.14-4.39a25.36,25.36,0,0,1,.61-4.91c.36-1.63.58-3.29,1.08-4.89.26-.84.44-1.7.74-2.52s.7-1.91,1-2.88c.44-1.38,1-2.72,1.44-4.09.37-1.12.83-2.2,1.21-3.31s.76-2.35,1.21-3.51a23.57,23.57,0,0,0,.82-2.5c.37-1.37.9-2.68,1.39-4,.41-1.12.76-2.27,1.21-3.37.51-1.28.94-2.59,1.5-3.86a13.15,13.15,0,0,0,.53-1.57c.63-2,.89-4.14,1.4-6.2a28.38,28.38,0,0,0,.44-3.9,7.78,7.78,0,0,1,.24-2.2c.06-.15-.08-.21-.06-.36a32.78,32.78,0,0,0,.14-3.43c0-1.2,0-2.4,0-3.59.05-1.49-.06-3,0-4.45q.06-1.11.18-2.22a11.14,11.14,0,0,0-.32-2.7,23.7,23.7,0,0,1-.17-2.52,15.86,15.86,0,0,0-.58-2.45c-.18-.91-.78-1.67-.79-2.62a12.69,12.69,0,0,0-.53-2.08c-.14-.72-.6-1.29-.8-2a15.39,15.39,0,0,0-.73-1.36,17.2,17.2,0,0,0-.7-1.72c-.3-.52-.52-1.09-.85-1.59a29.08,29.08,0,0,0-4.36-4.91A17.1,17.1,0,0,0,132.57,6c-.53-.28-1.08-.52-1.61-.77l-.1.11c.33.3.66.59,1,.9a26.56,26.56,0,0,1,2.84,3.33c1.38,1.9,2.4,4,3.6,6,.74,1.22,1.33,2.52,2,3.78a13.7,13.7,0,0,1,.78,2.37c.26.84.53,1.68.76,2.53s.36,1.56.53,2.34.25,1.4.39,2.09a28.5,28.5,0,0,1,.64,5.82c0,1.62.08,3.24,0,4.85a28.91,28.91,0,0,1-.44,3.33c-.24,0,0-.25-.16-.31-.05.17-.34.33.05.48.09,0,.07.15,0,.2-.33.54-.16,1.24-.49,1.75s0,.86-.18,1.29a7.54,7.54,0,0,0-.31,1.5,8.45,8.45,0,0,1-.27,1.21c-.14.56-.3,1.12-.44,1.68a2.17,2.17,0,0,1-.37.8c-.07.09-.12.17-.05.28a.18.18,0,0,1,0,.25,3.37,3.37,0,0,0-.43,1.38c0,.17-.1.38-.13.57s0,.12,0,.12c-.46.14-.18.53-.28.79s0,.63-.36.84c-.08,0-.14.28-.09.32a.46.46,0,0,1-.15.72c-.27.16,0,.52-.32.61.3.39-.22.6-.21.92a6.35,6.35,0,0,1-.29,1.14c0,.34-.45.37-.5.69a4.1,4.1,0,0,1,.43-1.86,18,18,0,0,1,.7-2.15c.27-.64.28-1.36.53-2a22.32,22.32,0,0,0,.73-2.37c.35-1.11.56-2.26.81-3.39.33-1.46.6-2.93.95-4.38.2-.85.36-1.71.48-2.57s.15-1.9.22-2.85c.09-1.39,0-2.78-.05-4.17a27.5,27.5,0,0,0-.6-5.64c-.15-.69-.19-1.39-.39-2.08-.39-1.34-.64-2.72-1.06-4.05-.18-.58-.3-1.19-.53-1.77a41.22,41.22,0,0,0-2-4.36c-.63-1.17-1.28-2.33-1.93-3.48S134.77,10.5,134,9.35a8.93,8.93,0,0,0-1.29-1.61,18.07,18.07,0,0,0-4.11-3.48c-1.43-.73-2.8-1.59-4.24-2.32a1.91,1.91,0,0,1-.58-.43c-.61-.71-1.36-.45-2.09-.34-.36.05-.71.17-1.06.25s-.56,0-.4.43c.06.16-.12.22-.28.16a4.23,4.23,0,0,1-.47-.25c-.2-.1-.5-.25-.36-.47a.55.55,0,0,1,.77-.16c.07.05.09.17.24.13-.15-.33,0-.32.3-.38A17.74,17.74,0,0,1,123,.57a18.34,18.34,0,0,1,3,.21c.69.08,1.33.33,2,.4a16,16,0,0,1,2.79.83,19.48,19.48,0,0,1,2.2.72,10.93,10.93,0,0,1,3.95,2.67,38.54,38.54,0,0,1,3,3.85c.76,1.09,1.46,2.23,2.16,3.35.43.69.72,1.47,1.17,2.15.55.85.92,1.8,1.51,2.63a4.49,4.49,0,0,1,.53,1.61c.23.89.54,1.77.78,2.66.31,1.13.53,2.28.73,3.43.13.79.22,1.58.31,2.37a23.27,23.27,0,0,0,.72,3.29,21.77,21.77,0,0,1,.45,4.26c.14,1.93.08,3.87.07,5.81,0,.9-.07,1.8-.13,2.7,0,.6,0,1.21,0,1.83-.05,1.29-.1,2.59-.27,3.85-.12,1-.11,2-.3,2.91-.09.41-.18.82-.24,1.23-.16,1-.35,2-.44,3a15.29,15.29,0,0,1-.56,2.24c-.16.68-.28,1.37-.48,2-.15.47-.38.92-.55,1.39-.29.78-.63,1.55-.91,2.33-.35,1-.78,1.86-1.12,2.8s-.92,2-1.32,3.09a10,10,0,0,1-.56,1.25,9,9,0,0,0-.38,1,28.62,28.62,0,0,1-1.1,2.69,6.29,6.29,0,0,0-.33,1c-.07.19.08.2.18.25,1,.47,2,1,3,1.4a24.34,24.34,0,0,1,2.92,1.37c.52.3,1,.59,1.58.83a6,6,0,0,1,1.87,1.29,4.84,4.84,0,0,1,1.1,1.43,5.15,5.15,0,0,0,.63,1.09,4.68,4.68,0,0,1,.72,1.86,18.52,18.52,0,0,1,.54,2.54,38.48,38.48,0,0,1,.27,5.47c0,.53,0,1.06,0,1.59s-.09,1.21-.17,1.8,0,1.43-.15,2.14-.2,1.74-.36,2.61a9,9,0,0,0-.16,1.57,16,16,0,0,1-.34,2.76,10.59,10.59,0,0,1-.54,2.37c-.25.6-.1,1.27-.38,1.85a2.34,2.34,0,0,0-.23,1c0,.11.05.35-.24.32-.08,0-.1.13-.06.22s.08.15.07.15c-.38.26-.1.67-.22,1a11.74,11.74,0,0,0-.6,2.42c0,.07-.06.18-.11.19s-.45.1-.09.32c0,0,0,.09,0,.13a25.35,25.35,0,0,0-.73,2.72c0,.09-.16.15-.2.24s-.39.32-.07.56c.08,0,0,.16,0,.25-.32,1.11-.67,2.21-.91,3.35-.06.25-.39.43-.35.71a5.62,5.62,0,0,1-.36,2,4.71,4.71,0,0,0-.16,1.35.19.19,0,0,1-.06.2c-.41.33-.56.85-.89,1.24a2.41,2.41,0,0,1-.24.21c-.06,0-.13.09-.2,0s0-.14,0-.19a3.72,3.72,0,0,0,.8-1.92,20.92,20.92,0,0,1,.75-2.6,20.45,20.45,0,0,0,.5-2.16c.33-1.28.72-2.54,1.06-3.81.53-1.94,1-3.89,1.55-5.82a39.09,39.09,0,0,0,1-4.09c.11-.63.26-1.24.33-1.88,0-.41.2-.81.28-1.23.3-1.64.35-3.31.55-5a14.82,14.82,0,0,0,.22-2.09c0-1,.19-1.92.19-2.88a48.7,48.7,0,0,0-.11-5,15.38,15.38,0,0,0-.26-2.81,12.83,12.83,0,0,0-.85-3.2,8.82,8.82,0,0,0-3-3.53c-.87-.53-1.77-1-2.65-1.54a45.07,45.07,0,0,0-4.41-1.85c-.45-.2-.9,0-1.31-.23-.13-.07-.17.1-.2.19-.27.84-.66,1.63-.92,2.47-.39,1.25-.91,2.45-1.34,3.68-.34,1-.6,1.93-.88,2.9-.43,1.5-.79,3-1.13,4.56a28.54,28.54,0,0,0-.78,4.94c0,1-.07,2.1-.1,3.15,0,1.3-.1,2.61-.06,3.91,0,1,.11,1.93.22,2.89a5.86,5.86,0,0,0,.65,2.32.39.39,0,0,1,0,.14c-.22-.06-.18-.29-.33-.43-.06.32,0,.57.34.62.14,0,.14.11.13.19s-.11,0-.17,0c-.3-.08-.09.27-.26.31-.25-.19-.09-.49-.19-.72a7.63,7.63,0,0,1-.51-2.17c-.12-1-.21-2-.29-3a18.9,18.9,0,0,1,0-2.38c0-.89,0-1.78,0-2.67a31.25,31.25,0,0,1,.39-5.29c.24-1.38.61-2.74.91-4.11.38-1.76.92-3.49,1.44-5.22.32-1.08.75-2.13,1.14-3.2.14-.4.25-.83.41-1.24.35-.91.71-1.83,1-2.75a38.63,38.63,0,0,1,1.56-3.7,8.49,8.49,0,0,0,.33-1.12,14.28,14.28,0,0,1,.81-1.84c.41-.88.74-1.79,1.12-2.67.22-.53.52-1,.72-1.55a22.86,22.86,0,0,1,.84-2.32A18.78,18.78,0,0,0,145.45,60c.25-.82.44-1.67.64-2.51a25.39,25.39,0,0,0,.66-4.25c0-.56.33-1.09.33-1.65,0-1.18.28-2.33.33-3.5.06-1.34.17-2.68.13-4-.06-1.73.25-3.44.21-5.17,0-1.23-.06-2.45-.11-3.68a22.09,22.09,0,0,0-.36-3.71c-.11-.56-.28-1.11-.41-1.67a18.76,18.76,0,0,1-.44-2.7c-.11-1.15-.32-2.3-.53-3.44s-.68-2.51-1-3.78a13.15,13.15,0,0,0-1-2.62c-.6-1.29-1.37-2.49-2.08-3.71a58.46,58.46,0,0,0-3.11-5.08A21.77,21.77,0,0,0,136,5.3a11.46,11.46,0,0,0-3.2-2.13,28,28,0,0,0-3.18-1,27.21,27.21,0,0,0-4.83-1A.93.93,0,0,0,124.53,1.19Z"/><path d="M126.33,114.73c.13-.27-.1-.54,0-.81l0-.5c.21-.15.08-.45.31-.64s.28-.23.5-.06a3.43,3.43,0,0,1,.7,1c0,.07.07.15,0,.19s-.16,0-.18-.06a.41.41,0,0,0-.59-.32.68.68,0,0,0-.38.78c.06.33-.06.37-.3.41Z"/><path d="M118.72,2.42c.21,0,.37-.32.6-.06.1-.14.29,0,.39-.12s0-.22.12-.12.18.08.14.19a.28.28,0,0,1-.18.19A1.52,1.52,0,0,1,118.72,2.42Z"/><path d="M126.28,113.42l0,.5c0,.25-.09.42-.35.62a4,4,0,0,1,.23-1.25c0-.06.09-.09.11,0S126.29,113.38,126.28,113.42Z"/><path d="M114,57.84a11.69,11.69,0,0,1-1.63-.2,6.79,6.79,0,0,1-2.33-.89,19.36,19.36,0,0,1-3.18-2.35c-.39-.35-.79-.68-1.2-1s-.22-.43,0-.64.39-.08.51.07c.41.52,1,.53,1.58.64a7.79,7.79,0,0,0,3.29-.39,2.3,2.3,0,0,1,2.29.62.63.63,0,0,0,.91.1,6.36,6.36,0,0,1,1.37-.71,1.15,1.15,0,0,1,1,.13c1.2.9,2.47.64,3.74.26.69-.21,1.36-.51,2-.78.23-.09.45-.1.59.15a.39.39,0,0,1-.17.58,2.41,2.41,0,0,0-.69.8,6.93,6.93,0,0,1-3,2.5A12.55,12.55,0,0,1,114,57.84Zm-5.73-3.67c.08.09.1.14.13.15a3.79,3.79,0,0,0,.42.18,14.58,14.58,0,0,0,4.12.93c1,0,1.94-.16,2.91-.17.15,0,.26-.24.27-.19.11.34.34.11.49.12a8.75,8.75,0,0,0,2-.28,1.59,1.59,0,0,0,1.18-.55h-.19a3.73,3.73,0,0,1-3.3-.5.65.65,0,0,0-.61,0c-.49.12-.82.51-1.26.71a1.11,1.11,0,0,1-1.43-.26,1.68,1.68,0,0,0-1.67-.56A10.11,10.11,0,0,1,108.29,54.17Zm12.27.72C118.83,56,116.87,55.8,115,56a11.51,11.51,0,0,1-5.72-.71,4.1,4.1,0,0,0,1.67,1.13,7.87,7.87,0,0,0,4.69.6A9.08,9.08,0,0,0,120.56,54.89Z"/><path d="M121.71,37c-.34.65-1.23.61-1.47,1.35-.08.24-.42.23-.64.07s-.1-.32,0-.51a5.76,5.76,0,0,1,3.07-2.19,7.84,7.84,0,0,1,2.91-.6,2.23,2.23,0,0,1,.92.15,7.82,7.82,0,0,0,2,.78,4.72,4.72,0,0,1,1.5.49,1.13,1.13,0,0,1,.55.89.47.47,0,0,1-.56.52c-.75-.15-1.3.28-1.92.51-.25.09-.48.19-.73.26s-.44.37-.28-.15c0-.13-.09-.12-.18-.1s-.44-.07-.39.23-.12.27-.27.29a3.43,3.43,0,0,1-3-1c-.31-.32-.57-.76-1.17-.55C121.83,37.53,121.73,37.26,121.71,37Zm3.77,1.3a3.26,3.26,0,0,0,1.49-.11,3.44,3.44,0,0,0,1.13-.54c.17-.1.52-.08.5-.3s-.36-.23-.55-.32c-.56-.26-.75-.21-1.06.28a1.88,1.88,0,0,1-.4.44A9.55,9.55,0,0,1,125.48,38.26Zm.54-1.61c-.27,0-.57,0-.52.39,0,.12,0,.26.17.21s.6-.11.67-.43S126.16,36.65,126,36.65Z"/><path d="M103.87,34.87a11.38,11.38,0,0,1,2.94.71,7,7,0,0,1,1.91,1.31c.15.12.29.27.19.51a.35.35,0,0,1-.28.2c-.25,0-.35-.13-.43-.33a.65.65,0,0,0-.16-.21c-.44-.52-.62-.55-1,0a4.33,4.33,0,0,1-2.68,1.56,3.83,3.83,0,0,1-2.93-.47A11.21,11.21,0,0,1,99.59,37c-.44-.42-.43-.68.12-1A11.93,11.93,0,0,1,103.87,34.87Zm-2.94,2.07a3.5,3.5,0,0,0,3,.91,2.4,2.4,0,0,1-1.56-1.23c0-.08-.1-.08-.19,0Zm3.16-.23c-.09-.13.12-.42-.12-.41s-.63-.07-.75.18.27.26.41.42l0,0c.13.08.26.23.4.16S104.07,36.84,104.09,36.71Z"/><path d="M125.15,33.72a7.35,7.35,0,0,1-1.41,0c-.27-.06-.41.19-.61.23a3.16,3.16,0,0,1-1.75.05.73.73,0,0,0-.67.14c-.25.13-.52.31-.74-.06a.85.85,0,0,1,.18-.93,5.61,5.61,0,0,1,2.9-.91,17.31,17.31,0,0,1,3.6.05c.84.13,1.7.18,2.53.34a3.34,3.34,0,0,1,1.18.68c.4.26.79.54,1.2.8.19.12.47.31.41.5a3.75,3.75,0,0,1-.6,1c-.07.1-.27,0-.37-.15a1.53,1.53,0,0,0-1.48-.85,6.5,6.5,0,0,1-1.88-.56A6.32,6.32,0,0,0,125.15,33.72Z"/></g></g></svg>